%TF.GenerationSoftware,KiCad,Pcbnew,(6.0.2)*%
%TF.CreationDate,2022-04-18T15:37:34+08:00*%
%TF.ProjectId,ST-Link-Hulk,53542d4c-696e-46b2-9d48-756c6b2e6b69,V0.1*%
%TF.SameCoordinates,Original*%
%TF.FileFunction,Legend,Bot*%
%TF.FilePolarity,Positive*%
%FSLAX46Y46*%
G04 Gerber Fmt 4.6, Leading zero omitted, Abs format (unit mm)*
G04 Created by KiCad (PCBNEW (6.0.2)) date 2022-04-18 15:37:34*
%MOMM*%
%LPD*%
G01*
G04 APERTURE LIST*
%ADD10C,0.300000*%
%ADD11C,0.101600*%
%ADD12C,0.150000*%
%ADD13C,0.125000*%
%ADD14C,0.120000*%
%ADD15C,0.100000*%
%ADD16C,0.200000*%
G04 APERTURE END LIST*
D10*
X906561Y8723010D02*
X2525609Y8723010D01*
X2716085Y8627772D01*
X2811323Y8532534D01*
X2906561Y8342058D01*
X2906561Y7961105D01*
X2811323Y7770629D01*
X2716085Y7675391D01*
X2525609Y7580153D01*
X906561Y7580153D01*
X2811323Y6723010D02*
X2906561Y6437296D01*
X2906561Y5961105D01*
X2811323Y5770629D01*
X2716085Y5675391D01*
X2525609Y5580153D01*
X2335133Y5580153D01*
X2144657Y5675391D01*
X2049419Y5770629D01*
X1954180Y5961105D01*
X1858942Y6342058D01*
X1763704Y6532534D01*
X1668466Y6627772D01*
X1477990Y6723010D01*
X1287514Y6723010D01*
X1097038Y6627772D01*
X1001800Y6532534D01*
X906561Y6342058D01*
X906561Y5865867D01*
X1001800Y5580153D01*
X1858942Y4056343D02*
X1954180Y3770629D01*
X2049419Y3675391D01*
X2239895Y3580153D01*
X2525609Y3580153D01*
X2716085Y3675391D01*
X2811323Y3770629D01*
X2906561Y3961105D01*
X2906561Y4723010D01*
X906561Y4723010D01*
X906561Y4056343D01*
X1001800Y3865867D01*
X1097038Y3770629D01*
X1287514Y3675391D01*
X1477990Y3675391D01*
X1668466Y3770629D01*
X1763704Y3865867D01*
X1858942Y4056343D01*
X1858942Y4723010D01*
D11*
X24749314Y7710500D02*
X24386457Y7964500D01*
X24749314Y8145929D02*
X23987314Y8145929D01*
X23987314Y7855643D01*
X24023600Y7783072D01*
X24059885Y7746786D01*
X24132457Y7710500D01*
X24241314Y7710500D01*
X24313885Y7746786D01*
X24350171Y7783072D01*
X24386457Y7855643D01*
X24386457Y8145929D01*
X23987314Y7456500D02*
X24749314Y6948500D01*
X23987314Y6948500D02*
X24749314Y7456500D01*
X23987314Y5175943D02*
X23987314Y5538800D01*
X24350171Y5575086D01*
X24313885Y5538800D01*
X24277600Y5466229D01*
X24277600Y5284800D01*
X24313885Y5212229D01*
X24350171Y5175943D01*
X24422742Y5139658D01*
X24604171Y5139658D01*
X24676742Y5175943D01*
X24713028Y5212229D01*
X24749314Y5284800D01*
X24749314Y5466229D01*
X24713028Y5538800D01*
X24676742Y5575086D01*
X23987314Y4921943D02*
X24749314Y4667943D01*
X23987314Y4413943D01*
D12*
X11990161Y11815115D02*
X12037780Y11672258D01*
X12037780Y11434162D01*
X11990161Y11338924D01*
X11942542Y11291305D01*
X11847304Y11243686D01*
X11752066Y11243686D01*
X11656828Y11291305D01*
X11609209Y11338924D01*
X11561590Y11434162D01*
X11513971Y11624639D01*
X11466352Y11719877D01*
X11418733Y11767496D01*
X11323495Y11815115D01*
X11228257Y11815115D01*
X11133019Y11767496D01*
X11085400Y11719877D01*
X11037780Y11624639D01*
X11037780Y11386543D01*
X11085400Y11243686D01*
X11037780Y10957972D02*
X11037780Y10386543D01*
X12037780Y10672258D02*
X11037780Y10672258D01*
X11656828Y10053210D02*
X11656828Y9291305D01*
X12037780Y8338924D02*
X12037780Y8815115D01*
X11037780Y8815115D01*
X12037780Y8005591D02*
X11371114Y8005591D01*
X11037780Y8005591D02*
X11085400Y8053210D01*
X11133019Y8005591D01*
X11085400Y7957972D01*
X11037780Y8005591D01*
X11133019Y8005591D01*
X11371114Y7529400D02*
X12037780Y7529400D01*
X11466352Y7529400D02*
X11418733Y7481781D01*
X11371114Y7386543D01*
X11371114Y7243686D01*
X11418733Y7148448D01*
X11513971Y7100829D01*
X12037780Y7100829D01*
X12037780Y6624639D02*
X11037780Y6624639D01*
X11656828Y6529400D02*
X12037780Y6243686D01*
X11371114Y6243686D02*
X11752066Y6624639D01*
X11656828Y5815115D02*
X11656828Y5053210D01*
X12037780Y4577020D02*
X11037780Y4577020D01*
X12037780Y4005591D01*
X11037780Y4005591D01*
X12037780Y3100829D02*
X11513971Y3100829D01*
X11418733Y3148448D01*
X11371114Y3243686D01*
X11371114Y3434162D01*
X11418733Y3529400D01*
X11990161Y3100829D02*
X12037780Y3196067D01*
X12037780Y3434162D01*
X11990161Y3529400D01*
X11894923Y3577020D01*
X11799685Y3577020D01*
X11704447Y3529400D01*
X11656828Y3434162D01*
X11656828Y3196067D01*
X11609209Y3100829D01*
X11371114Y2624639D02*
X12037780Y2624639D01*
X11466352Y2624639D02*
X11418733Y2577020D01*
X11371114Y2481781D01*
X11371114Y2338924D01*
X11418733Y2243686D01*
X11513971Y2196067D01*
X12037780Y2196067D01*
X12037780Y1577020D02*
X11990161Y1672258D01*
X11942542Y1719877D01*
X11847304Y1767496D01*
X11561590Y1767496D01*
X11466352Y1719877D01*
X11418733Y1672258D01*
X11371114Y1577020D01*
X11371114Y1434162D01*
X11418733Y1338924D01*
X11466352Y1291305D01*
X11561590Y1243686D01*
X11847304Y1243686D01*
X11942542Y1291305D01*
X11990161Y1338924D01*
X12037780Y1434162D01*
X12037780Y1577020D01*
X13647780Y8600829D02*
X13171590Y8934162D01*
X13647780Y9172258D02*
X12647780Y9172258D01*
X12647780Y8791305D01*
X12695400Y8696067D01*
X12743019Y8648448D01*
X12838257Y8600829D01*
X12981114Y8600829D01*
X13076352Y8648448D01*
X13123971Y8696067D01*
X13171590Y8791305D01*
X13171590Y9172258D01*
X13600161Y7791305D02*
X13647780Y7886543D01*
X13647780Y8077020D01*
X13600161Y8172258D01*
X13504923Y8219877D01*
X13123971Y8219877D01*
X13028733Y8172258D01*
X12981114Y8077020D01*
X12981114Y7886543D01*
X13028733Y7791305D01*
X13123971Y7743686D01*
X13219209Y7743686D01*
X13314447Y8219877D01*
X13647780Y7315115D02*
X12981114Y7315115D01*
X13076352Y7315115D02*
X13028733Y7267496D01*
X12981114Y7172258D01*
X12981114Y7029400D01*
X13028733Y6934162D01*
X13123971Y6886543D01*
X13647780Y6886543D01*
X13123971Y6886543D02*
X13028733Y6838924D01*
X12981114Y6743686D01*
X12981114Y6600829D01*
X13028733Y6505591D01*
X13123971Y6457972D01*
X13647780Y6457972D01*
X13647780Y5553210D02*
X13123971Y5553210D01*
X13028733Y5600829D01*
X12981114Y5696067D01*
X12981114Y5886543D01*
X13028733Y5981781D01*
X13600161Y5553210D02*
X13647780Y5648448D01*
X13647780Y5886543D01*
X13600161Y5981781D01*
X13504923Y6029400D01*
X13409685Y6029400D01*
X13314447Y5981781D01*
X13266828Y5886543D01*
X13266828Y5648448D01*
X13219209Y5553210D01*
X13647780Y5077020D02*
X12647780Y5077020D01*
X13266828Y4981781D02*
X13647780Y4696067D01*
X12981114Y4696067D02*
X13362066Y5077020D01*
X13600161Y3886543D02*
X13647780Y3981781D01*
X13647780Y4172258D01*
X13600161Y4267496D01*
X13504923Y4315115D01*
X13123971Y4315115D01*
X13028733Y4267496D01*
X12981114Y4172258D01*
X12981114Y3981781D01*
X13028733Y3886543D01*
X13123971Y3838924D01*
X13219209Y3838924D01*
X13314447Y4315115D01*
D11*
X24749314Y2908086D02*
X24386457Y3162086D01*
X24749314Y3343515D02*
X23987314Y3343515D01*
X23987314Y3053229D01*
X24023600Y2980658D01*
X24059885Y2944372D01*
X24132457Y2908086D01*
X24241314Y2908086D01*
X24313885Y2944372D01*
X24350171Y2980658D01*
X24386457Y3053229D01*
X24386457Y3343515D01*
X24713028Y2617800D02*
X24749314Y2508943D01*
X24749314Y2327515D01*
X24713028Y2254943D01*
X24676742Y2218658D01*
X24604171Y2182372D01*
X24531600Y2182372D01*
X24459028Y2218658D01*
X24422742Y2254943D01*
X24386457Y2327515D01*
X24350171Y2472658D01*
X24313885Y2545229D01*
X24277600Y2581515D01*
X24205028Y2617800D01*
X24132457Y2617800D01*
X24059885Y2581515D01*
X24023600Y2545229D01*
X23987314Y2472658D01*
X23987314Y2291229D01*
X24023600Y2182372D01*
X23987314Y1964658D02*
X23987314Y1529229D01*
X24749314Y1746943D02*
X23987314Y1746943D01*
X23987314Y10691372D02*
X23987314Y10255943D01*
X24749314Y10473658D02*
X23987314Y10473658D01*
X23987314Y10074515D02*
X24749314Y9566515D01*
X23987314Y9566515D02*
X24749314Y10074515D01*
D13*
%TO.C,C2*%
X8461400Y8171600D02*
X9461400Y8171600D01*
X9461400Y7071600D02*
X8461400Y7071600D01*
%TO.C,C3*%
X8978000Y6521400D02*
X8978000Y5521400D01*
X7878000Y5521400D02*
X7878000Y6521400D01*
%TO.C,C4*%
X8970200Y5521400D02*
X8970200Y6521400D01*
X10070200Y6521400D02*
X10070200Y5521400D01*
%TO.C,R1*%
X19214200Y9213800D02*
X19214200Y8213800D01*
X18114200Y8213800D02*
X18114200Y9213800D01*
%TO.C,R2*%
X17589400Y8595600D02*
X16589400Y8595600D01*
X16589400Y9695600D02*
X17589400Y9695600D01*
%TO.C,R3*%
X14303400Y9467000D02*
X15303400Y9467000D01*
X15303400Y8367000D02*
X14303400Y8367000D01*
%TO.C,R10*%
X22236800Y4997400D02*
X22236800Y3997400D01*
X21136800Y3997400D02*
X21136800Y4997400D01*
%TO.C,R13*%
X15091600Y3743400D02*
X15091600Y4743400D01*
X16191600Y4743400D02*
X16191600Y3743400D01*
D14*
%TO.C,U2*%
X6762600Y4690800D02*
X4312600Y4690800D01*
X4962600Y7910800D02*
X6762600Y7910800D01*
D15*
%TO.C,Y1*%
X17709400Y5018200D02*
X17709400Y5418200D01*
D16*
X19659400Y6918200D02*
X19659400Y6918200D01*
D15*
X19009400Y7418200D02*
X17709400Y7418200D01*
X19009400Y5018200D02*
X19009400Y5418200D01*
D16*
X19659400Y7118200D02*
X19659400Y7118200D01*
D15*
X17709400Y6218200D02*
X17709400Y6618200D01*
X19009400Y6218200D02*
X19009400Y6618200D01*
X19009400Y4218200D02*
X17709400Y4218200D01*
D16*
X19659400Y7118200D02*
G75*
G03*
X19659400Y6918200I0J-100000D01*
G01*
X19659400Y6918200D02*
G75*
G03*
X19659400Y7118200I0J100000D01*
G01*
%TO.C,G\u002A\u002A\u002A*%
G36*
X20551732Y7063917D02*
G01*
X20555436Y7054786D01*
X20559679Y7047563D01*
X20576020Y7044495D01*
X20576276Y7044494D01*
X20590641Y7042451D01*
X20596603Y7037634D01*
X20600862Y7033121D01*
X20613756Y7030772D01*
X20624945Y7028758D01*
X20630909Y7020481D01*
X20634266Y7013768D01*
X20648062Y7010189D01*
X20659343Y7008486D01*
X20665215Y7003328D01*
X20666376Y7000171D01*
X20675507Y6996467D01*
X20680306Y6995271D01*
X20685798Y6986175D01*
X20689156Y6979462D01*
X20702951Y6975883D01*
X20714140Y6973869D01*
X20720104Y6965591D01*
X20723461Y6958878D01*
X20737257Y6955300D01*
X20748538Y6953596D01*
X20754410Y6948439D01*
X20758669Y6943926D01*
X20771563Y6941577D01*
X20782751Y6939563D01*
X20788716Y6931286D01*
X20789911Y6926486D01*
X20799007Y6920994D01*
X20803742Y6920220D01*
X20809299Y6914133D01*
X20813558Y6909620D01*
X20826452Y6907272D01*
X20837641Y6905257D01*
X20843605Y6896980D01*
X20846962Y6890267D01*
X20860758Y6886688D01*
X20871946Y6884674D01*
X20877911Y6876396D01*
X20881268Y6869683D01*
X20895064Y6866105D01*
X20906345Y6864401D01*
X20912217Y6859244D01*
X20916475Y6854731D01*
X20929369Y6852382D01*
X20940558Y6850368D01*
X20946522Y6842091D01*
X20947718Y6837291D01*
X20956814Y6831799D01*
X20961549Y6831025D01*
X20967106Y6824938D01*
X20971364Y6820425D01*
X20984259Y6818077D01*
X20995447Y6816062D01*
X21001412Y6807785D01*
X21004769Y6801072D01*
X21018564Y6797493D01*
X21029753Y6795479D01*
X21035717Y6787201D01*
X21039198Y6780404D01*
X21053360Y6776910D01*
X21069849Y6773367D01*
X21084584Y6763195D01*
X21090607Y6749955D01*
X21094868Y6745119D01*
X21107760Y6742604D01*
X21119041Y6740900D01*
X21124912Y6735743D01*
X21124914Y6735657D01*
X21131044Y6730869D01*
X21145496Y6728882D01*
X21159943Y6726761D01*
X21166079Y6718590D01*
X21169437Y6711877D01*
X21183232Y6708298D01*
X21194421Y6706284D01*
X21200385Y6698006D01*
X21203742Y6691293D01*
X21217538Y6687715D01*
X21228819Y6686011D01*
X21234691Y6680853D01*
X21235852Y6677697D01*
X21244983Y6673992D01*
X21249782Y6672797D01*
X21255274Y6663701D01*
X21258632Y6656988D01*
X21272427Y6653409D01*
X21283709Y6651705D01*
X21289580Y6646548D01*
X21293839Y6642035D01*
X21306733Y6639687D01*
X21317922Y6637672D01*
X21323886Y6629395D01*
X21327243Y6622682D01*
X21341039Y6619103D01*
X21352227Y6617089D01*
X21358192Y6608811D01*
X21359387Y6604012D01*
X21368483Y6598520D01*
X21373218Y6597746D01*
X21378775Y6591658D01*
X21383034Y6587146D01*
X21395928Y6584797D01*
X21407117Y6582783D01*
X21413081Y6574506D01*
X21416438Y6567792D01*
X21430234Y6564214D01*
X21441515Y6562510D01*
X21447387Y6557353D01*
X21451645Y6552840D01*
X21464540Y6550492D01*
X21475728Y6548477D01*
X21481693Y6540200D01*
X21485935Y6532976D01*
X21502276Y6529908D01*
X21502539Y6529907D01*
X21516900Y6527718D01*
X21522859Y6522557D01*
X21527373Y6511289D01*
X21540474Y6500269D01*
X21556675Y6495602D01*
X21565120Y6493681D01*
X21570888Y6485311D01*
X21575130Y6478087D01*
X21591471Y6475019D01*
X21591727Y6475018D01*
X21606092Y6472975D01*
X21612054Y6468158D01*
X21616313Y6463645D01*
X21629207Y6461296D01*
X21640492Y6459470D01*
X21646360Y6453945D01*
X21650874Y6442677D01*
X21663975Y6431657D01*
X21680176Y6426991D01*
X21688621Y6425069D01*
X21694388Y6416699D01*
X21698631Y6409476D01*
X21714972Y6406407D01*
X21735555Y6406407D01*
X21735555Y6104516D01*
X21735516Y6035994D01*
X21735361Y5974769D01*
X21735051Y5925047D01*
X21734547Y5885679D01*
X21733811Y5855518D01*
X21732802Y5833415D01*
X21731482Y5818223D01*
X21729812Y5808792D01*
X21727752Y5803976D01*
X21725264Y5802625D01*
X21720464Y5801430D01*
X21714972Y5792334D01*
X21711615Y5785621D01*
X21697819Y5782042D01*
X21686538Y5780339D01*
X21680666Y5775181D01*
X21676407Y5770668D01*
X21663513Y5768320D01*
X21652325Y5766305D01*
X21646360Y5758028D01*
X21643003Y5751315D01*
X21629207Y5747736D01*
X21618019Y5745722D01*
X21612054Y5737445D01*
X21608574Y5730647D01*
X21594412Y5727153D01*
X21577923Y5723610D01*
X21563188Y5713438D01*
X21557165Y5700198D01*
X21552904Y5695362D01*
X21540012Y5692847D01*
X21528731Y5691144D01*
X21522859Y5685986D01*
X21522858Y5685900D01*
X21516728Y5681112D01*
X21502276Y5679125D01*
X21487829Y5677004D01*
X21481693Y5668833D01*
X21478335Y5662120D01*
X21464540Y5658541D01*
X21453255Y5656715D01*
X21447387Y5651190D01*
X21442491Y5639258D01*
X21428435Y5628594D01*
X21410140Y5624235D01*
X21398488Y5622205D01*
X21392498Y5613944D01*
X21389140Y5607231D01*
X21375345Y5603652D01*
X21364063Y5601949D01*
X21358192Y5596791D01*
X21353933Y5592278D01*
X21341039Y5589930D01*
X21329850Y5587915D01*
X21323886Y5579638D01*
X21320529Y5572925D01*
X21306733Y5569346D01*
X21295545Y5567332D01*
X21289580Y5559054D01*
X21288385Y5554255D01*
X21279288Y5548763D01*
X21274554Y5547989D01*
X21268997Y5541902D01*
X21264738Y5537389D01*
X21251844Y5535040D01*
X21240655Y5533026D01*
X21234691Y5524749D01*
X21231334Y5518036D01*
X21217538Y5514457D01*
X21206257Y5512753D01*
X21200385Y5507596D01*
X21196126Y5503083D01*
X21183232Y5500735D01*
X21172044Y5498720D01*
X21166079Y5490443D01*
X21164884Y5485643D01*
X21155788Y5480151D01*
X21150988Y5478956D01*
X21145496Y5469859D01*
X21142139Y5463146D01*
X21128343Y5459568D01*
X21117062Y5457864D01*
X21111190Y5452707D01*
X21106931Y5448194D01*
X21094037Y5445845D01*
X21082849Y5443831D01*
X21076884Y5435554D01*
X21072642Y5428330D01*
X21056301Y5425262D01*
X21056045Y5425261D01*
X21041680Y5423218D01*
X21035717Y5418401D01*
X21031459Y5413888D01*
X21018564Y5411540D01*
X21007376Y5409525D01*
X21001412Y5401248D01*
X21000638Y5396513D01*
X20994550Y5390956D01*
X20991394Y5389795D01*
X20987689Y5380664D01*
X20983447Y5373441D01*
X20967106Y5370373D01*
X20966850Y5370372D01*
X20952484Y5368329D01*
X20946522Y5363511D01*
X20942264Y5358999D01*
X20929369Y5356650D01*
X20918181Y5354636D01*
X20912217Y5346359D01*
X20908859Y5339646D01*
X20895064Y5336067D01*
X20883782Y5334363D01*
X20877911Y5329206D01*
X20873652Y5324693D01*
X20860758Y5322345D01*
X20849569Y5320330D01*
X20843605Y5312053D01*
X20842410Y5307253D01*
X20833313Y5301761D01*
X20828514Y5300566D01*
X20823022Y5291469D01*
X20819664Y5284756D01*
X20805869Y5281178D01*
X20794587Y5279474D01*
X20788716Y5274316D01*
X20784457Y5269804D01*
X20771563Y5267455D01*
X20760374Y5265441D01*
X20754410Y5257164D01*
X20751053Y5250450D01*
X20737257Y5246872D01*
X20725976Y5245168D01*
X20720104Y5240011D01*
X20718943Y5236854D01*
X20709812Y5233150D01*
X20705013Y5231954D01*
X20699521Y5222858D01*
X20696164Y5216145D01*
X20682368Y5212566D01*
X20671087Y5210863D01*
X20665215Y5205705D01*
X20660956Y5201192D01*
X20648062Y5198844D01*
X20636874Y5196829D01*
X20630909Y5188552D01*
X20627552Y5181839D01*
X20613756Y5178260D01*
X20602568Y5176246D01*
X20596603Y5167969D01*
X20592361Y5160745D01*
X20576020Y5157677D01*
X20575764Y5157676D01*
X20561399Y5155633D01*
X20555436Y5150816D01*
X20555237Y5149176D01*
X20548575Y5143955D01*
X20546943Y5149391D01*
X20545368Y5168244D01*
X20544067Y5200340D01*
X20543046Y5245429D01*
X20542310Y5303259D01*
X20541864Y5373579D01*
X20541714Y5456137D01*
X20541714Y5768320D01*
X20558867Y5768320D01*
X20570148Y5770023D01*
X20576020Y5775181D01*
X20580279Y5779693D01*
X20593173Y5782042D01*
X20604361Y5784056D01*
X20610326Y5792334D01*
X20613683Y5799047D01*
X20627479Y5802625D01*
X20638760Y5804329D01*
X20644631Y5809487D01*
X20644633Y5809572D01*
X20650763Y5814360D01*
X20665215Y5816348D01*
X20679662Y5818469D01*
X20685798Y5826640D01*
X20689156Y5833353D01*
X20702951Y5836931D01*
X20714233Y5838635D01*
X20720104Y5843792D01*
X20724363Y5848305D01*
X20737257Y5850654D01*
X20748446Y5852668D01*
X20754410Y5860945D01*
X20757767Y5867658D01*
X20771563Y5871237D01*
X20782751Y5873251D01*
X20788716Y5881529D01*
X20792073Y5888242D01*
X20805869Y5891821D01*
X20817150Y5893524D01*
X20823022Y5898682D01*
X20823023Y5898767D01*
X20829153Y5903555D01*
X20843605Y5905543D01*
X20858052Y5907664D01*
X20864188Y5915835D01*
X20867546Y5922548D01*
X20881341Y5926126D01*
X20892623Y5927830D01*
X20898494Y5932987D01*
X20902753Y5937500D01*
X20915647Y5939849D01*
X20926836Y5941863D01*
X20932800Y5950140D01*
X20936157Y5956853D01*
X20949953Y5960432D01*
X20961141Y5962446D01*
X20967106Y5970724D01*
X20970463Y5977437D01*
X20984259Y5981016D01*
X20995540Y5982719D01*
X21001412Y5987877D01*
X21005670Y5992389D01*
X21018564Y5994738D01*
X21029753Y5996752D01*
X21035717Y6005030D01*
X21039198Y6011827D01*
X21053360Y6015321D01*
X21069849Y6018864D01*
X21084584Y6029036D01*
X21090607Y6042276D01*
X21094868Y6047112D01*
X21107760Y6049627D01*
X21118948Y6051641D01*
X21124912Y6059919D01*
X21129155Y6067142D01*
X21145496Y6070211D01*
X21145752Y6070211D01*
X21160117Y6072254D01*
X21166079Y6077072D01*
X21170338Y6081584D01*
X21183232Y6083933D01*
X21186393Y6084005D01*
X21197551Y6088029D01*
X21200385Y6101086D01*
X21200313Y6104247D01*
X21196289Y6115405D01*
X21183232Y6118239D01*
X21172044Y6120253D01*
X21166079Y6128530D01*
X21161837Y6135754D01*
X21145496Y6138822D01*
X21131049Y6140943D01*
X21124912Y6149114D01*
X21121555Y6155827D01*
X21107760Y6159406D01*
X21096478Y6161109D01*
X21090607Y6166267D01*
X21086348Y6170779D01*
X21073454Y6173128D01*
X21062265Y6175142D01*
X21056301Y6183420D01*
X21052944Y6190133D01*
X21039148Y6193711D01*
X21027867Y6195415D01*
X21021995Y6200573D01*
X21017736Y6205085D01*
X21004842Y6207434D01*
X20993654Y6209448D01*
X20987689Y6217725D01*
X20986494Y6222525D01*
X20977398Y6228017D01*
X20972598Y6229213D01*
X20967106Y6238309D01*
X20963749Y6245022D01*
X20949953Y6248601D01*
X20938672Y6250304D01*
X20932800Y6255462D01*
X20928541Y6259974D01*
X20915647Y6262323D01*
X20904459Y6264337D01*
X20898494Y6272615D01*
X20895137Y6279328D01*
X20881341Y6282906D01*
X20870060Y6284610D01*
X20864188Y6289768D01*
X20864187Y6289853D01*
X20858057Y6294641D01*
X20843605Y6296629D01*
X20829158Y6298750D01*
X20823022Y6306920D01*
X20819664Y6313634D01*
X20805869Y6317212D01*
X20794680Y6319227D01*
X20788716Y6327504D01*
X20785359Y6334217D01*
X20771563Y6337796D01*
X20760282Y6339499D01*
X20754410Y6344657D01*
X20750151Y6349169D01*
X20737257Y6351518D01*
X20726069Y6353532D01*
X20720104Y6361810D01*
X20716747Y6368523D01*
X20702951Y6372101D01*
X20691670Y6373805D01*
X20685798Y6378963D01*
X20685797Y6379048D01*
X20679667Y6383836D01*
X20665215Y6385824D01*
X20650768Y6387945D01*
X20644631Y6396115D01*
X20641274Y6402829D01*
X20627479Y6406407D01*
X20616194Y6408234D01*
X20610326Y6413758D01*
X20605430Y6425691D01*
X20591374Y6436355D01*
X20573079Y6440713D01*
X20561427Y6442744D01*
X20555436Y6451005D01*
X20554662Y6455739D01*
X20548575Y6461296D01*
X20547111Y6465481D01*
X20545487Y6482855D01*
X20544145Y6513478D01*
X20543090Y6557087D01*
X20542330Y6613417D01*
X20541869Y6682205D01*
X20541714Y6763187D01*
X20541809Y6827622D01*
X20542204Y6899079D01*
X20542900Y6958135D01*
X20543891Y7004527D01*
X20545171Y7037991D01*
X20546735Y7058262D01*
X20548575Y7065078D01*
X20551732Y7063917D01*
G37*
G36*
X20037145Y12422480D02*
G01*
X20040850Y12413349D01*
X20042045Y12408550D01*
X20051141Y12403058D01*
X20055876Y12402284D01*
X20061433Y12396197D01*
X20065692Y12391684D01*
X20078586Y12389335D01*
X20089775Y12387321D01*
X20095739Y12379044D01*
X20096934Y12374244D01*
X20106031Y12368752D01*
X20110773Y12367920D01*
X20116322Y12361401D01*
X20120836Y12350133D01*
X20133937Y12339112D01*
X20150138Y12334446D01*
X20158583Y12332525D01*
X20164351Y12324154D01*
X20165546Y12319355D01*
X20174642Y12313863D01*
X20179377Y12313089D01*
X20184934Y12307002D01*
X20186095Y12303845D01*
X20195226Y12300140D01*
X20200025Y12298945D01*
X20205517Y12289849D01*
X20208875Y12283136D01*
X20222670Y12279557D01*
X20233955Y12277731D01*
X20239823Y12272206D01*
X20244084Y12261855D01*
X20255139Y12250448D01*
X20266778Y12245251D01*
X20270165Y12244086D01*
X20274129Y12234959D01*
X20277486Y12228246D01*
X20291282Y12224668D01*
X20302563Y12222964D01*
X20308435Y12217806D01*
X20309596Y12214650D01*
X20318727Y12210945D01*
X20323526Y12209750D01*
X20329018Y12200654D01*
X20329792Y12195919D01*
X20335879Y12190362D01*
X20339036Y12189201D01*
X20342741Y12180070D01*
X20346098Y12173357D01*
X20359894Y12169778D01*
X20371175Y12168075D01*
X20377046Y12162917D01*
X20378208Y12159761D01*
X20387338Y12156056D01*
X20392138Y12154861D01*
X20397630Y12145764D01*
X20398462Y12141022D01*
X20404981Y12135473D01*
X20415332Y12131212D01*
X20426739Y12120157D01*
X20431936Y12108518D01*
X20436197Y12103682D01*
X20449089Y12101167D01*
X20460277Y12099152D01*
X20466241Y12090875D01*
X20467437Y12086075D01*
X20476533Y12080583D01*
X20481268Y12079809D01*
X20486825Y12073722D01*
X20487986Y12070566D01*
X20497117Y12066861D01*
X20501916Y12065666D01*
X20507408Y12056569D01*
X20510062Y12050454D01*
X20521621Y12046278D01*
X20535757Y12042680D01*
X20549582Y12032237D01*
X20555436Y12019323D01*
X20556602Y12015936D01*
X20565728Y12011972D01*
X20570528Y12010776D01*
X20576020Y12001680D01*
X20579377Y11994967D01*
X20593173Y11991388D01*
X20604454Y11989685D01*
X20610326Y11984527D01*
X20611487Y11981371D01*
X20620617Y11977666D01*
X20625360Y11976834D01*
X20630909Y11970315D01*
X20635805Y11958382D01*
X20649861Y11947719D01*
X20668155Y11943360D01*
X20679915Y11941477D01*
X20685798Y11936009D01*
X20690059Y11925659D01*
X20701114Y11914252D01*
X20712753Y11909054D01*
X20716140Y11907889D01*
X20720104Y11898763D01*
X20723461Y11892050D01*
X20737257Y11888471D01*
X20748446Y11886457D01*
X20754410Y11878179D01*
X20755242Y11873437D01*
X20761761Y11867888D01*
X20772112Y11863626D01*
X20783519Y11852572D01*
X20788716Y11840933D01*
X20792977Y11836097D01*
X20805869Y11833582D01*
X20817150Y11831878D01*
X20823022Y11826721D01*
X20824183Y11823564D01*
X20833313Y11819859D01*
X20838113Y11818664D01*
X20843605Y11809568D01*
X20844800Y11804768D01*
X20853897Y11799276D01*
X20858696Y11798081D01*
X20864188Y11788984D01*
X20866842Y11782869D01*
X20878401Y11778692D01*
X20892537Y11775095D01*
X20906363Y11764652D01*
X20912217Y11751738D01*
X20913382Y11748351D01*
X20922508Y11744387D01*
X20927243Y11743613D01*
X20932800Y11737526D01*
X20937059Y11733013D01*
X20949953Y11730664D01*
X20961141Y11728650D01*
X20967106Y11720373D01*
X20968301Y11715573D01*
X20977398Y11710081D01*
X20982140Y11709249D01*
X20987689Y11702730D01*
X20992203Y11691462D01*
X21005304Y11680441D01*
X21021505Y11675775D01*
X21029950Y11673854D01*
X21035717Y11665483D01*
X21036913Y11660684D01*
X21046009Y11655192D01*
X21050744Y11654418D01*
X21056301Y11648331D01*
X21057462Y11645174D01*
X21066593Y11641469D01*
X21071392Y11640274D01*
X21076884Y11631178D01*
X21080242Y11624465D01*
X21094037Y11620886D01*
X21105322Y11619060D01*
X21111190Y11613535D01*
X21115451Y11603184D01*
X21126505Y11591777D01*
X21138145Y11586580D01*
X21141532Y11585415D01*
X21145496Y11576288D01*
X21148853Y11569575D01*
X21162649Y11565997D01*
X21173930Y11564293D01*
X21179802Y11559135D01*
X21181649Y11558108D01*
X21195475Y11556356D01*
X21222568Y11554906D01*
X21262633Y11553766D01*
X21315370Y11552942D01*
X21380485Y11552442D01*
X21457678Y11552274D01*
X21735555Y11552274D01*
X21735555Y10962215D01*
X21450817Y10962215D01*
X21404389Y10962196D01*
X21341774Y10962071D01*
X21290948Y10961791D01*
X21250732Y10961314D01*
X21219944Y10960598D01*
X21197403Y10959598D01*
X21181927Y10958274D01*
X21172335Y10956582D01*
X21167446Y10954479D01*
X21166079Y10951923D01*
X21164884Y10947124D01*
X21155788Y10941631D01*
X21151053Y10940857D01*
X21145496Y10934770D01*
X21141237Y10930258D01*
X21128343Y10927909D01*
X21117155Y10925895D01*
X21111190Y10917617D01*
X21109995Y10912818D01*
X21100898Y10907326D01*
X21096164Y10906552D01*
X21090607Y10900464D01*
X21086348Y10895952D01*
X21073454Y10893603D01*
X21062265Y10891589D01*
X21056301Y10883312D01*
X21055105Y10878512D01*
X21046009Y10873020D01*
X21041267Y10872188D01*
X21035717Y10865669D01*
X21031204Y10854401D01*
X21018103Y10843380D01*
X21001902Y10838714D01*
X20993456Y10836793D01*
X20987689Y10828422D01*
X20986494Y10823623D01*
X20977398Y10818131D01*
X20972663Y10817357D01*
X20967106Y10811269D01*
X20965945Y10808113D01*
X20956814Y10804408D01*
X20952014Y10803213D01*
X20946522Y10794117D01*
X20943165Y10787403D01*
X20929369Y10783825D01*
X20918085Y10781999D01*
X20912217Y10776474D01*
X20907956Y10766123D01*
X20896901Y10754716D01*
X20885262Y10749519D01*
X20881875Y10748354D01*
X20877911Y10739227D01*
X20874554Y10732514D01*
X20860758Y10728936D01*
X20849477Y10727232D01*
X20843605Y10722074D01*
X20842444Y10718918D01*
X20833313Y10715213D01*
X20828571Y10714381D01*
X20823022Y10707862D01*
X20818508Y10696594D01*
X20805407Y10685574D01*
X20789206Y10680908D01*
X20780761Y10678986D01*
X20774993Y10670616D01*
X20773798Y10665816D01*
X20764702Y10660324D01*
X20759902Y10659129D01*
X20754410Y10650032D01*
X20751053Y10643319D01*
X20737257Y10639741D01*
X20725976Y10638037D01*
X20720104Y10632879D01*
X20718943Y10629723D01*
X20709812Y10626018D01*
X20705070Y10625186D01*
X20699521Y10618667D01*
X20694625Y10606735D01*
X20680569Y10596071D01*
X20662274Y10591712D01*
X20650622Y10589682D01*
X20644631Y10581421D01*
X20643857Y10576686D01*
X20637770Y10571129D01*
X20634614Y10569968D01*
X20630909Y10560837D01*
X20629714Y10556038D01*
X20620617Y10550546D01*
X20615883Y10549771D01*
X20610326Y10543684D01*
X20606067Y10539172D01*
X20593173Y10536823D01*
X20581984Y10534809D01*
X20576020Y10526531D01*
X20575188Y10521789D01*
X20568669Y10516240D01*
X20558318Y10511979D01*
X20546911Y10500925D01*
X20541714Y10489285D01*
X20537453Y10484449D01*
X20524561Y10481934D01*
X20513373Y10479920D01*
X20507408Y10471642D01*
X20506213Y10466843D01*
X20497117Y10461351D01*
X20492382Y10460576D01*
X20486825Y10454489D01*
X20482566Y10449977D01*
X20469672Y10447628D01*
X20458484Y10445614D01*
X20452519Y10437336D01*
X20451687Y10432594D01*
X20445168Y10427045D01*
X20434817Y10422784D01*
X20423410Y10411729D01*
X20418213Y10400090D01*
X20418212Y10399996D01*
X20412080Y10394867D01*
X20397630Y10392739D01*
X20397367Y10392738D01*
X20383006Y10390548D01*
X20377046Y10385388D01*
X20372785Y10375037D01*
X20361731Y10363630D01*
X20350092Y10358433D01*
X20346704Y10357268D01*
X20342741Y10348141D01*
X20339383Y10341428D01*
X20325588Y10337850D01*
X20314306Y10336146D01*
X20308435Y10330989D01*
X20307274Y10327832D01*
X20298143Y10324127D01*
X20293343Y10322932D01*
X20287851Y10313836D01*
X20287077Y10309101D01*
X20280990Y10303544D01*
X20277834Y10302383D01*
X20274129Y10293252D01*
X20270772Y10286539D01*
X20256976Y10282960D01*
X20245695Y10281257D01*
X20239823Y10276099D01*
X20238662Y10272943D01*
X20229532Y10269238D01*
X20224789Y10268406D01*
X20219240Y10261887D01*
X20214344Y10249955D01*
X20200288Y10239291D01*
X20181994Y10234932D01*
X20170341Y10232902D01*
X20164351Y10224641D01*
X20163576Y10219906D01*
X20157489Y10214349D01*
X20154333Y10213188D01*
X20150628Y10204057D01*
X20147271Y10197344D01*
X20133475Y10193765D01*
X20122194Y10192062D01*
X20116322Y10186904D01*
X20115161Y10183748D01*
X20106031Y10180043D01*
X20101231Y10178848D01*
X20095739Y10169751D01*
X20094544Y10164952D01*
X20085447Y10159460D01*
X20080713Y10158686D01*
X20075156Y10152598D01*
X20070897Y10148086D01*
X20058003Y10145737D01*
X20046814Y10143723D01*
X20040850Y10135446D01*
X20040076Y10130711D01*
X20033989Y10125154D01*
X20033853Y10125189D01*
X20032098Y10132985D01*
X20030599Y10154250D01*
X20029362Y10188754D01*
X20028392Y10236263D01*
X20027693Y10296543D01*
X20027270Y10369363D01*
X20027127Y10454489D01*
X20027128Y10460994D01*
X20027291Y10545246D01*
X20027734Y10617175D01*
X20028452Y10676548D01*
X20029442Y10723132D01*
X20030698Y10756695D01*
X20032215Y10777004D01*
X20033989Y10783825D01*
X20037145Y10784986D01*
X20040850Y10794117D01*
X20042045Y10798916D01*
X20051141Y10804408D01*
X20055876Y10805182D01*
X20061433Y10811269D01*
X20065692Y10815782D01*
X20078586Y10818131D01*
X20089775Y10820145D01*
X20095739Y10828422D01*
X20096934Y10833222D01*
X20106031Y10838714D01*
X20110765Y10839488D01*
X20116322Y10845575D01*
X20120581Y10850088D01*
X20133475Y10852436D01*
X20144664Y10854451D01*
X20150628Y10862728D01*
X20151402Y10867463D01*
X20157489Y10873020D01*
X20160646Y10874181D01*
X20164351Y10883312D01*
X20167831Y10890109D01*
X20181994Y10893603D01*
X20198482Y10897146D01*
X20213217Y10907318D01*
X20219240Y10920558D01*
X20223501Y10925394D01*
X20236393Y10927909D01*
X20247674Y10929613D01*
X20253546Y10934770D01*
X20254707Y10937927D01*
X20263837Y10941631D01*
X20268637Y10942827D01*
X20274129Y10951923D01*
X20277486Y10958636D01*
X20291282Y10962215D01*
X20302470Y10964229D01*
X20308435Y10972507D01*
X20309630Y10977306D01*
X20318727Y10982798D01*
X20323461Y10983572D01*
X20329018Y10989660D01*
X20333277Y10994172D01*
X20346171Y10996521D01*
X20357456Y10998347D01*
X20363324Y11003872D01*
X20368220Y11015804D01*
X20382276Y11026468D01*
X20400570Y11030826D01*
X20412223Y11032857D01*
X20418213Y11041118D01*
X20418987Y11045853D01*
X20425074Y11051410D01*
X20428231Y11052571D01*
X20431936Y11061702D01*
X20435293Y11068415D01*
X20449089Y11071993D01*
X20460370Y11073697D01*
X20466241Y11078855D01*
X20467403Y11082011D01*
X20476533Y11085716D01*
X20481333Y11086911D01*
X20486825Y11096007D01*
X20490182Y11102721D01*
X20503978Y11106299D01*
X20515259Y11108003D01*
X20521131Y11113160D01*
X20522292Y11116317D01*
X20531422Y11120021D01*
X20536222Y11121217D01*
X20541714Y11130313D01*
X20545071Y11137026D01*
X20558867Y11140605D01*
X20570056Y11142619D01*
X20576020Y11150897D01*
X20577215Y11155696D01*
X20586312Y11161188D01*
X20591046Y11161963D01*
X20596603Y11168050D01*
X20600862Y11172562D01*
X20613756Y11174911D01*
X20625041Y11176737D01*
X20630909Y11182262D01*
X20635805Y11194194D01*
X20649861Y11204858D01*
X20668155Y11209217D01*
X20679808Y11211247D01*
X20685798Y11219508D01*
X20686573Y11224243D01*
X20692660Y11229800D01*
X20695816Y11230961D01*
X20699521Y11240092D01*
X20702878Y11246805D01*
X20716674Y11250383D01*
X20727955Y11252087D01*
X20733827Y11257245D01*
X20733627Y11258885D01*
X20726965Y11264106D01*
X20723809Y11265267D01*
X20720104Y11274398D01*
X20718909Y11279197D01*
X20709812Y11284689D01*
X20705078Y11285463D01*
X20699521Y11291550D01*
X20695262Y11296063D01*
X20682368Y11298412D01*
X20671179Y11300426D01*
X20665215Y11308703D01*
X20664020Y11313503D01*
X20654923Y11318995D01*
X20650189Y11319769D01*
X20644631Y11325856D01*
X20640373Y11330369D01*
X20627479Y11332717D01*
X20616290Y11334732D01*
X20610326Y11343009D01*
X20609552Y11347744D01*
X20603465Y11353301D01*
X20600308Y11354462D01*
X20596603Y11363593D01*
X20595408Y11368392D01*
X20586312Y11373884D01*
X20581577Y11374658D01*
X20576020Y11380745D01*
X20571761Y11385258D01*
X20558867Y11387607D01*
X20547679Y11389621D01*
X20541714Y11397898D01*
X20540519Y11402698D01*
X20531422Y11408190D01*
X20526688Y11408964D01*
X20521131Y11415051D01*
X20516872Y11419564D01*
X20503978Y11421912D01*
X20492789Y11423927D01*
X20486825Y11432204D01*
X20485629Y11437004D01*
X20476533Y11442496D01*
X20471734Y11443691D01*
X20466241Y11452788D01*
X20463588Y11458903D01*
X20452029Y11463079D01*
X20437893Y11466677D01*
X20424067Y11477120D01*
X20418213Y11490034D01*
X20413695Y11494934D01*
X20400570Y11497385D01*
X20384082Y11500928D01*
X20369347Y11511100D01*
X20363324Y11524340D01*
X20359063Y11529176D01*
X20346171Y11531691D01*
X20334983Y11533705D01*
X20329018Y11541983D01*
X20327823Y11546782D01*
X20318727Y11552274D01*
X20313992Y11553048D01*
X20308435Y11559135D01*
X20307274Y11562292D01*
X20298143Y11565997D01*
X20293343Y11567192D01*
X20287851Y11576288D01*
X20285198Y11582404D01*
X20273639Y11586580D01*
X20259503Y11590178D01*
X20245677Y11600621D01*
X20239823Y11613535D01*
X20235562Y11618371D01*
X20222670Y11620886D01*
X20211482Y11622900D01*
X20205517Y11631178D01*
X20204322Y11635977D01*
X20195226Y11641469D01*
X20190491Y11642243D01*
X20184934Y11648331D01*
X20180675Y11652843D01*
X20167781Y11655192D01*
X20156593Y11657206D01*
X20150628Y11665483D01*
X20149433Y11670283D01*
X20140337Y11675775D01*
X20135602Y11676549D01*
X20130045Y11682636D01*
X20125786Y11687149D01*
X20112892Y11689497D01*
X20101703Y11691512D01*
X20095739Y11699789D01*
X20094544Y11704589D01*
X20085447Y11710081D01*
X20080648Y11711276D01*
X20075156Y11720373D01*
X20072502Y11726488D01*
X20060943Y11730664D01*
X20056062Y11730678D01*
X20049336Y11731244D01*
X20043743Y11733441D01*
X20039178Y11738369D01*
X20035536Y11747126D01*
X20032713Y11760813D01*
X20030605Y11780527D01*
X20029108Y11807368D01*
X20028117Y11842436D01*
X20027527Y11886829D01*
X20027236Y11941647D01*
X20027137Y12007989D01*
X20027127Y12086954D01*
X20027130Y12100392D01*
X20027310Y12184799D01*
X20027764Y12256839D01*
X20028488Y12316286D01*
X20029477Y12362916D01*
X20030726Y12396502D01*
X20032232Y12416819D01*
X20033989Y12423641D01*
X20037145Y12422480D01*
G37*
G36*
X21735555Y7312080D02*
G01*
X20027127Y7312080D01*
X20027127Y7902139D01*
X21735555Y7902139D01*
X21735555Y7312080D01*
G37*
G36*
X23601790Y5747736D02*
G01*
X22407949Y5747736D01*
X22407949Y6324563D01*
X22428532Y6324563D01*
X22428739Y6324228D01*
X22435978Y6322693D01*
X22453838Y6321360D01*
X22482707Y6320224D01*
X22522973Y6319279D01*
X22575023Y6318519D01*
X22639245Y6317938D01*
X22716025Y6317531D01*
X22805752Y6317291D01*
X22908813Y6317212D01*
X23389094Y6317212D01*
X23389094Y6886688D01*
X22620644Y6886688D01*
X22620644Y6691145D01*
X22620579Y6656886D01*
X22620096Y6600126D01*
X22619158Y6555130D01*
X22617781Y6522385D01*
X22615984Y6502379D01*
X22613783Y6495602D01*
X22610627Y6494441D01*
X22606922Y6485311D01*
X22606090Y6480568D01*
X22599571Y6475019D01*
X22589220Y6470758D01*
X22577813Y6459704D01*
X22572616Y6448064D01*
X22571451Y6444677D01*
X22562325Y6440713D01*
X22557590Y6439939D01*
X22552033Y6433852D01*
X22547774Y6429339D01*
X22534880Y6426991D01*
X22523692Y6424976D01*
X22517727Y6416699D01*
X22516532Y6411899D01*
X22507435Y6406407D01*
X22502693Y6405575D01*
X22497144Y6399056D01*
X22492883Y6388706D01*
X22481828Y6377299D01*
X22470189Y6372101D01*
X22466802Y6370936D01*
X22462838Y6361810D01*
X22462006Y6357067D01*
X22455487Y6351518D01*
X22445136Y6347257D01*
X22433729Y6336203D01*
X22428532Y6324563D01*
X22407949Y6324563D01*
X22407949Y6886688D01*
X21893362Y6886688D01*
X21893362Y7435581D01*
X23601790Y7435581D01*
X23601790Y5747736D01*
G37*
G36*
X23622373Y10616113D02*
G01*
X23622351Y10497320D01*
X23622291Y10391398D01*
X23622182Y10297627D01*
X23622016Y10215290D01*
X23621783Y10143667D01*
X23621473Y10082042D01*
X23621077Y10029694D01*
X23620585Y9985907D01*
X23619989Y9949961D01*
X23619278Y9921139D01*
X23618443Y9898722D01*
X23617475Y9881991D01*
X23616365Y9870229D01*
X23615102Y9862717D01*
X23613677Y9858736D01*
X23612082Y9857569D01*
X23607347Y9856795D01*
X23601790Y9850708D01*
X23597531Y9846195D01*
X23584637Y9843846D01*
X23573448Y9841832D01*
X23567484Y9833555D01*
X23564127Y9826842D01*
X23550331Y9823263D01*
X23539143Y9821249D01*
X23533178Y9812971D01*
X23531983Y9808172D01*
X23522886Y9802680D01*
X23518152Y9801905D01*
X23512595Y9795818D01*
X23508336Y9791306D01*
X23495442Y9788957D01*
X23484253Y9786943D01*
X23478289Y9778665D01*
X23474932Y9771952D01*
X23461136Y9768374D01*
X23449855Y9766670D01*
X23443983Y9761513D01*
X23439725Y9757000D01*
X23426830Y9754651D01*
X23415642Y9752637D01*
X23409677Y9744360D01*
X23408482Y9739560D01*
X23399386Y9734068D01*
X23398305Y9734428D01*
X23396561Y9737220D01*
X23395048Y9743495D01*
X23393749Y9754104D01*
X23392650Y9769903D01*
X23391734Y9791744D01*
X23390985Y9820480D01*
X23390388Y9856965D01*
X23389927Y9902053D01*
X23389584Y9956596D01*
X23389346Y10021448D01*
X23389195Y10097462D01*
X23389117Y10185492D01*
X23389094Y10286391D01*
X23389094Y10838714D01*
X21893362Y10838714D01*
X21893362Y11421912D01*
X23622373Y11421912D01*
X23622373Y10616113D01*
G37*
G36*
X23601790Y8650005D02*
G01*
X23601789Y8629892D01*
X23601717Y8489102D01*
X23601534Y8361437D01*
X23601239Y8246957D01*
X23600834Y8145722D01*
X23600318Y8057792D01*
X23599691Y7983226D01*
X23598956Y7922083D01*
X23598111Y7874424D01*
X23597158Y7840309D01*
X23596097Y7819795D01*
X23594929Y7812944D01*
X23591772Y7811783D01*
X23588067Y7802653D01*
X23586872Y7797853D01*
X23577776Y7792361D01*
X23573041Y7791587D01*
X23567484Y7785500D01*
X23566323Y7782343D01*
X23557192Y7778638D01*
X23552393Y7777443D01*
X23546901Y7768347D01*
X23543543Y7761634D01*
X23529748Y7758055D01*
X23518463Y7756229D01*
X23512595Y7750704D01*
X23507699Y7738771D01*
X23493643Y7728108D01*
X23475348Y7723749D01*
X23463589Y7721866D01*
X23457705Y7716398D01*
X23453192Y7705130D01*
X23440091Y7694110D01*
X23423890Y7689443D01*
X23419993Y7689649D01*
X23415162Y7691908D01*
X23412134Y7698580D01*
X23410490Y7711993D01*
X23409811Y7734472D01*
X23409677Y7768347D01*
X23409677Y7847250D01*
X22407949Y7847250D01*
X22407949Y8382420D01*
X22428532Y8382420D01*
X23409677Y8382420D01*
X23409677Y8931313D01*
X22620644Y8931313D01*
X22620644Y8728909D01*
X22620558Y8688272D01*
X22620050Y8631277D01*
X22619103Y8586137D01*
X22617733Y8553318D01*
X22615954Y8533285D01*
X22613783Y8526504D01*
X22610627Y8525343D01*
X22606922Y8516213D01*
X22603565Y8509500D01*
X22589769Y8505921D01*
X22578581Y8503907D01*
X22572616Y8495629D01*
X22571421Y8490830D01*
X22562325Y8485338D01*
X22557590Y8484563D01*
X22552033Y8478476D01*
X22547774Y8473964D01*
X22534880Y8471615D01*
X22523692Y8469601D01*
X22517727Y8461323D01*
X22514370Y8454610D01*
X22500574Y8451032D01*
X22489293Y8449328D01*
X22483421Y8444171D01*
X22482260Y8441014D01*
X22473130Y8437309D01*
X22468330Y8436114D01*
X22462838Y8427018D01*
X22459481Y8420305D01*
X22445685Y8416726D01*
X22442524Y8416654D01*
X22431366Y8412630D01*
X22428532Y8399573D01*
X22428532Y8382420D01*
X22407949Y8382420D01*
X22407949Y9487066D01*
X23601790Y9487066D01*
X23601790Y8650005D01*
G37*
G36*
X21735555Y9068536D02*
G01*
X21735552Y9008555D01*
X21735522Y8891298D01*
X21735452Y8786724D01*
X21735332Y8694126D01*
X21735156Y8612798D01*
X21734912Y8542035D01*
X21734593Y8481130D01*
X21734189Y8429377D01*
X21733692Y8386070D01*
X21733092Y8350502D01*
X21732380Y8321968D01*
X21731548Y8299761D01*
X21730586Y8283175D01*
X21729486Y8271504D01*
X21728238Y8264042D01*
X21726833Y8260082D01*
X21725264Y8258919D01*
X21720464Y8257724D01*
X21714972Y8248628D01*
X21711615Y8241915D01*
X21697819Y8238336D01*
X21686538Y8236632D01*
X21680666Y8231475D01*
X21676407Y8226962D01*
X21663513Y8224614D01*
X21652325Y8222599D01*
X21646360Y8214322D01*
X21645165Y8209522D01*
X21636069Y8204030D01*
X21631269Y8202835D01*
X21625777Y8193738D01*
X21622420Y8187025D01*
X21608624Y8183447D01*
X21597343Y8181743D01*
X21591471Y8176586D01*
X21587212Y8172073D01*
X21574318Y8169724D01*
X21563130Y8167710D01*
X21557165Y8159433D01*
X21553808Y8152720D01*
X21540012Y8149141D01*
X21522859Y8149141D01*
X21522859Y9308676D01*
X21268997Y9308676D01*
X21268997Y8204030D01*
X20541714Y8204030D01*
X20541714Y8773506D01*
X20555436Y8773506D01*
X21056301Y8773506D01*
X21056301Y9308676D01*
X20754410Y9308676D01*
X20754410Y9130286D01*
X20754387Y9099762D01*
X20754185Y9051655D01*
X20753704Y9015008D01*
X20752858Y8988342D01*
X20751562Y8970177D01*
X20749730Y8959035D01*
X20747277Y8953434D01*
X20744118Y8951896D01*
X20739376Y8951064D01*
X20733827Y8944545D01*
X20729565Y8934194D01*
X20718511Y8922787D01*
X20706872Y8917590D01*
X20703485Y8916425D01*
X20699521Y8907299D01*
X20696164Y8900586D01*
X20682368Y8897007D01*
X20671179Y8894993D01*
X20665215Y8886715D01*
X20664383Y8881973D01*
X20657864Y8876423D01*
X20647513Y8872162D01*
X20636106Y8861108D01*
X20630909Y8849469D01*
X20630608Y8847389D01*
X20623558Y8842118D01*
X20613207Y8837857D01*
X20601801Y8826802D01*
X20596603Y8815163D01*
X20596602Y8815069D01*
X20590470Y8809940D01*
X20576020Y8807812D01*
X20567069Y8807402D01*
X20557652Y8802918D01*
X20555436Y8790659D01*
X20555436Y8773506D01*
X20541714Y8773506D01*
X20541714Y9878152D01*
X21735555Y9878152D01*
X21735555Y9068536D01*
G37*
%TD*%
M02*
