%TF.GenerationSoftware,KiCad,Pcbnew,(6.0.2)*%
%TF.CreationDate,2022-04-18T15:37:34+08:00*%
%TF.ProjectId,ST-Link-Hulk,53542d4c-696e-46b2-9d48-756c6b2e6b69,V0.1*%
%TF.SameCoordinates,Original*%
%TF.FileFunction,Copper,L2,Bot*%
%TF.FilePolarity,Positive*%
%FSLAX46Y46*%
G04 Gerber Fmt 4.6, Leading zero omitted, Abs format (unit mm)*
G04 Created by KiCad (PCBNEW (6.0.2)) date 2022-04-18 15:37:34*
%MOMM*%
%LPD*%
G01*
G04 APERTURE LIST*
G04 Aperture macros list*
%AMRoundRect*
0 Rectangle with rounded corners*
0 $1 Rounding radius*
0 $2 $3 $4 $5 $6 $7 $8 $9 X,Y pos of 4 corners*
0 Add a 4 corners polygon primitive as box body*
4,1,4,$2,$3,$4,$5,$6,$7,$8,$9,$2,$3,0*
0 Add four circle primitives for the rounded corners*
1,1,$1+$1,$2,$3*
1,1,$1+$1,$4,$5*
1,1,$1+$1,$6,$7*
1,1,$1+$1,$8,$9*
0 Add four rect primitives between the rounded corners*
20,1,$1+$1,$2,$3,$4,$5,0*
20,1,$1+$1,$4,$5,$6,$7,0*
20,1,$1+$1,$6,$7,$8,$9,0*
20,1,$1+$1,$8,$9,$2,$3,0*%
G04 Aperture macros list end*
%TA.AperFunction,SMDPad,CuDef*%
%ADD10RoundRect,0.381000X-0.889000X-0.254000X0.889000X-0.254000X0.889000X0.254000X-0.889000X0.254000X0*%
%TD*%
%TA.AperFunction,ComponentPad*%
%ADD11O,2.100000X1.000000*%
%TD*%
%TA.AperFunction,ComponentPad*%
%ADD12O,1.600000X1.000000*%
%TD*%
%TA.AperFunction,SMDPad,CuDef*%
%ADD13R,0.600000X0.600000*%
%TD*%
%TA.AperFunction,SMDPad,CuDef*%
%ADD14R,1.060000X0.650000*%
%TD*%
%TA.AperFunction,SMDPad,CuDef*%
%ADD15R,2.000000X0.400000*%
%TD*%
%TA.AperFunction,ViaPad*%
%ADD16C,0.508000*%
%TD*%
%TA.AperFunction,Conductor*%
%ADD17C,0.254000*%
%TD*%
%TA.AperFunction,Conductor*%
%ADD18C,0.304800*%
%TD*%
%TA.AperFunction,Conductor*%
%ADD19C,0.381000*%
%TD*%
%TA.AperFunction,Conductor*%
%ADD20C,0.127000*%
%TD*%
G04 APERTURE END LIST*
D10*
%TO.P,J1,2,Pin_2*%
%TO.N,/TX*%
X26466600Y10110800D03*
%TO.P,J1,4,Pin_4*%
%TO.N,/RX*%
X26466600Y7570800D03*
%TO.P,J1,6,Pin_6*%
%TO.N,+5V*%
X26466600Y5030800D03*
%TO.P,J1,8,Pin_8*%
%TO.N,/nRST*%
X26466600Y2490800D03*
%TD*%
D11*
%TO.P,P1,S1,GND*%
%TO.N,GND*%
X5944600Y10620800D03*
X5944600Y1980800D03*
D12*
X1764600Y1980800D03*
X1764600Y10620800D03*
%TD*%
D13*
%TO.P,C2,1*%
%TO.N,GND*%
X9411400Y7621600D03*
%TO.P,C2,2*%
%TO.N,Net-(C2-Pad2)*%
X8511400Y7621600D03*
%TD*%
%TO.P,C3,1*%
%TO.N,GND*%
X8428000Y6471400D03*
%TO.P,C3,2*%
%TO.N,VCC*%
X8428000Y5571400D03*
%TD*%
%TO.P,C4,1*%
%TO.N,GND*%
X9520200Y6471400D03*
%TO.P,C4,2*%
%TO.N,VCC*%
X9520200Y5571400D03*
%TD*%
%TO.P,R1,1*%
%TO.N,Net-(R1-Pad1)*%
X18664200Y9163800D03*
%TO.P,R1,2*%
%TO.N,VCC*%
X18664200Y8263800D03*
%TD*%
%TO.P,R2,1*%
%TO.N,Net-(R1-Pad1)*%
X17539400Y9145600D03*
%TO.P,R2,2*%
%TO.N,GND*%
X16639400Y9145600D03*
%TD*%
%TO.P,R3,1*%
%TO.N,GND*%
X14353400Y8917000D03*
%TO.P,R3,2*%
%TO.N,Net-(R3-Pad2)*%
X15253400Y8917000D03*
%TD*%
%TO.P,R10,1*%
%TO.N,Net-(R10-Pad1)*%
X21686800Y4047400D03*
%TO.P,R10,2*%
%TO.N,GND*%
X21686800Y4947400D03*
%TD*%
%TO.P,R13,1*%
%TO.N,GND*%
X15641600Y4693400D03*
%TO.P,R13,2*%
%TO.N,Net-(R13-Pad2)*%
X15641600Y3793400D03*
%TD*%
D14*
%TO.P,U2,1,Vin*%
%TO.N,+5V*%
X4762600Y5350800D03*
%TO.P,U2,2,GND*%
%TO.N,GND*%
X4762600Y6300800D03*
%TO.P,U2,3,ON/~{OFF}*%
%TO.N,+5V*%
X4762600Y7250800D03*
%TO.P,U2,4,BYPASS*%
%TO.N,Net-(C2-Pad2)*%
X6962600Y7250800D03*
%TO.P,U2,5,Vout*%
%TO.N,VCC*%
X6962600Y5350800D03*
%TD*%
D15*
%TO.P,Y1,1*%
%TO.N,Net-(U1-Pad6)*%
X18359400Y7018200D03*
%TO.P,Y1,2*%
%TO.N,GND*%
X18359400Y5818200D03*
%TO.P,Y1,3*%
%TO.N,Net-(U1-Pad5)*%
X18359400Y4618200D03*
%TD*%
D16*
%TO.N,GND*%
X23769600Y9602800D03*
X25649200Y8866200D03*
X26360400Y8866200D03*
X19477000Y9679000D03*
X10536200Y4395800D03*
X14651000Y6656400D03*
X16225800Y7824800D03*
X26639800Y6300800D03*
X27401800Y3786200D03*
X19451600Y11126800D03*
X24023600Y12092000D03*
X20975600Y560400D03*
X25039600Y12117400D03*
X24658600Y535000D03*
X26639800Y3786200D03*
X25954000Y6300800D03*
X25700000Y535000D03*
X25979400Y12117400D03*
X26843000Y560400D03*
X27401800Y6300800D03*
X20772400Y2948000D03*
X16225800Y5437200D03*
X27401800Y1322400D03*
X16225800Y6707200D03*
X24455400Y7139000D03*
X17876800Y3329000D03*
X22525000Y535000D03*
X20874000Y9933000D03*
X23617200Y535000D03*
X14651000Y5437200D03*
X14727200Y4014800D03*
X27020800Y8866200D03*
X14651000Y7824800D03*
%TO.N,VCC*%
X18232400Y8282000D03*
X13127000Y11685600D03*
X10028200Y3125800D03*
X19654800Y2567000D03*
X19146800Y3583000D03*
X14270000Y3125800D03*
%TO.N,/TX*%
X21530616Y11489616D03*
%TO.N,/RX*%
X20697916Y11509516D03*
%TO.N,+5V*%
X10714000Y1906600D03*
X5329200Y5335600D03*
X5329200Y7266000D03*
X10002800Y1906600D03*
%TO.N,/nRST*%
X16276600Y11584000D03*
X25166600Y6224600D03*
X25039600Y3735400D03*
%TO.N,/JTCK*%
X17775200Y11634800D03*
X23337800Y7545400D03*
%TO.N,Net-(R1-Pad1)*%
X18105400Y9145600D03*
%TO.N,Net-(R3-Pad2)*%
X15272471Y9545018D03*
%TO.N,Net-(R10-Pad1)*%
X21178161Y4050800D03*
%TO.N,Net-(R13-Pad2)*%
X15971800Y3786200D03*
%TO.N,Net-(U1-Pad6)*%
X17318000Y7012000D03*
%TO.N,Net-(U1-Pad5)*%
X17192716Y4626116D03*
%TD*%
D17*
%TO.N,Net-(C2-Pad2)*%
X8140600Y7250800D02*
X8511400Y7621600D01*
X6962600Y7250800D02*
X8140600Y7250800D01*
D18*
%TO.N,VCC*%
X20086600Y4522800D02*
X20086600Y7799400D01*
D19*
X10201200Y5571400D02*
X9520200Y5571400D01*
D18*
X19553200Y2465400D02*
X19654800Y2567000D01*
X20086600Y7799400D02*
X19604000Y8282000D01*
X19654800Y3075000D02*
X19654800Y2567000D01*
X19146800Y3583000D02*
X19654800Y3075000D01*
X19604000Y8282000D02*
X18232400Y8282000D01*
D19*
X11145800Y6516000D02*
X10201200Y5571400D01*
D18*
X8428000Y5571400D02*
X9520200Y5571400D01*
X8207400Y5350800D02*
X8428000Y5571400D01*
X9520200Y5571400D02*
X9520200Y3633800D01*
D19*
X11145800Y9704400D02*
X11145800Y6516000D01*
D18*
X9520200Y3633800D02*
X10028200Y3125800D01*
X19146800Y3583000D02*
X20086600Y4522800D01*
X18250600Y8263800D02*
X18232400Y8282000D01*
X14270000Y3125800D02*
X14930400Y2465400D01*
X18664200Y8263800D02*
X18250600Y8263800D01*
X6962600Y5350800D02*
X8207400Y5350800D01*
X10028200Y3125800D02*
X14270000Y3125800D01*
D19*
X13127000Y11685600D02*
X11145800Y9704400D01*
D18*
X14930400Y2465400D02*
X19553200Y2465400D01*
D20*
%TO.N,/TX*%
X26466600Y10110800D02*
X22909432Y10110800D01*
X22909432Y10110800D02*
X21530616Y11489616D01*
%TO.N,/RX*%
X24785600Y7570800D02*
X20846884Y11509516D01*
X20846884Y11509516D02*
X20697916Y11509516D01*
X26466600Y7570800D02*
X24785600Y7570800D01*
D19*
%TO.N,+5V*%
X26466600Y5030800D02*
X24912600Y5030800D01*
X10714000Y1906600D02*
X10002800Y1906600D01*
X24912600Y5030800D02*
X21788400Y1906600D01*
X21788400Y1906600D02*
X10714000Y1906600D01*
D20*
%TO.N,/nRST*%
X16276600Y11584000D02*
X17597400Y10263200D01*
X25222000Y3735400D02*
X25039600Y3735400D01*
X19756400Y10263200D02*
X23795000Y6224600D01*
X17597400Y10263200D02*
X19756400Y10263200D01*
X26466600Y2490800D02*
X25222000Y3735400D01*
X23795000Y6224600D02*
X25166600Y6224600D01*
%TO.N,/JTCK*%
X23337800Y7545400D02*
X23337800Y8205800D01*
X19908800Y11634800D02*
X17775200Y11634800D01*
X23337800Y8205800D02*
X19908800Y11634800D01*
%TO.N,Net-(R1-Pad1)*%
X18646000Y9145600D02*
X18664200Y9163800D01*
X17539400Y9145600D02*
X18105400Y9145600D01*
X18105400Y9145600D02*
X18646000Y9145600D01*
%TO.N,Net-(R3-Pad2)*%
X15272471Y9545018D02*
X15272471Y8936071D01*
X15272471Y8936071D02*
X15253400Y8917000D01*
%TO.N,Net-(R10-Pad1)*%
X21178161Y4050800D02*
X21683400Y4050800D01*
X21683400Y4050800D02*
X21686800Y4047400D01*
%TO.N,Net-(R13-Pad2)*%
X15971800Y3786200D02*
X15648800Y3786200D01*
X15648800Y3786200D02*
X15641600Y3793400D01*
%TO.N,Net-(U1-Pad6)*%
X18359400Y7018200D02*
X17324200Y7018200D01*
X17324200Y7018200D02*
X17318000Y7012000D01*
%TO.N,Net-(U1-Pad5)*%
X18359400Y4618200D02*
X17200632Y4618200D01*
X17200632Y4618200D02*
X17192716Y4626116D01*
%TD*%
%TA.AperFunction,Conductor*%
%TO.N,GND*%
G36*
X26873895Y12345039D02*
G01*
X26884400Y12342224D01*
X26893963Y12344786D01*
X26903865Y12344786D01*
X26903865Y12344090D01*
X26912688Y12344814D01*
X27042390Y12332040D01*
X27056846Y12329164D01*
X27201682Y12285229D01*
X27215293Y12279591D01*
X27282668Y12243578D01*
X27348771Y12208245D01*
X27361027Y12200056D01*
X27478022Y12104040D01*
X27488440Y12093622D01*
X27584367Y11976735D01*
X27584455Y11976628D01*
X27592645Y11964372D01*
X27663991Y11830893D01*
X27669629Y11817282D01*
X27709574Y11685600D01*
X27713564Y11672447D01*
X27716440Y11657990D01*
X27723395Y11587376D01*
X27729214Y11528289D01*
X27728490Y11519465D01*
X27729186Y11519465D01*
X27729186Y11509563D01*
X27726624Y11500000D01*
X27729439Y11489495D01*
X27732000Y11470038D01*
X27732000Y10899186D01*
X27714407Y10850848D01*
X27669858Y10825128D01*
X27621334Y10833422D01*
X27620158Y10834315D01*
X27615391Y10836202D01*
X27615390Y10836203D01*
X27560142Y10858077D01*
X27484150Y10888164D01*
X27397084Y10898700D01*
X25536116Y10898700D01*
X25449050Y10888164D01*
X25373058Y10858077D01*
X25317810Y10836203D01*
X25317809Y10836202D01*
X25313042Y10834315D01*
X25196526Y10745874D01*
X25108085Y10629358D01*
X25054236Y10493350D01*
X25043700Y10406284D01*
X25043700Y10402400D01*
X25043584Y10402080D01*
X25043564Y10401756D01*
X25043468Y10401762D01*
X25026107Y10354062D01*
X24981558Y10328342D01*
X24968500Y10327200D01*
X23030215Y10327200D01*
X22981877Y10344793D01*
X22977041Y10349226D01*
X21955198Y11371069D01*
X21933458Y11417689D01*
X21934098Y11436006D01*
X21941662Y11483769D01*
X21942588Y11489616D01*
X21922425Y11616922D01*
X21890411Y11679753D01*
X21866597Y11726490D01*
X21866596Y11726491D01*
X21863908Y11731767D01*
X21772767Y11822908D01*
X21766403Y11826151D01*
X21677059Y11871674D01*
X21657922Y11881425D01*
X21530616Y11901588D01*
X21403310Y11881425D01*
X21384173Y11871674D01*
X21294830Y11826151D01*
X21288465Y11822908D01*
X21197324Y11731767D01*
X21194634Y11726488D01*
X21194632Y11726485D01*
X21186339Y11710210D01*
X21148719Y11675128D01*
X21097349Y11672436D01*
X21056268Y11703394D01*
X21052333Y11710209D01*
X21033899Y11746388D01*
X21033895Y11746393D01*
X21031208Y11751667D01*
X20940067Y11842808D01*
X20914703Y11855732D01*
X20864835Y11881141D01*
X20825222Y11901325D01*
X20697916Y11921488D01*
X20570610Y11901325D01*
X20530997Y11881141D01*
X20481130Y11855732D01*
X20455765Y11842808D01*
X20364624Y11751667D01*
X20361937Y11746393D01*
X20361933Y11746388D01*
X20321605Y11667240D01*
X20283984Y11632159D01*
X20232615Y11629467D01*
X20201428Y11648207D01*
X20067239Y11782396D01*
X20064528Y11785252D01*
X20044128Y11807909D01*
X20038839Y11813783D01*
X20017778Y11823160D01*
X20007408Y11828791D01*
X19994712Y11837036D01*
X19994711Y11837036D01*
X19988084Y11841340D01*
X19980279Y11842576D01*
X19979821Y11842752D01*
X19962502Y11847882D01*
X19962018Y11847985D01*
X19954797Y11851200D01*
X19931752Y11851200D01*
X19919988Y11852126D01*
X19905027Y11854496D01*
X19905025Y11854496D01*
X19897221Y11855732D01*
X19889586Y11853686D01*
X19889106Y11853661D01*
X19870406Y11851200D01*
X18164373Y11851200D01*
X18116035Y11868793D01*
X18108570Y11876798D01*
X18108492Y11876951D01*
X18017351Y11968092D01*
X18011837Y11970902D01*
X17962634Y11995972D01*
X17902506Y12026609D01*
X17775200Y12046772D01*
X17647894Y12026609D01*
X17587766Y11995972D01*
X17538564Y11970902D01*
X17533049Y11968092D01*
X17441908Y11876951D01*
X17439220Y11871675D01*
X17439219Y11871674D01*
X17423763Y11841340D01*
X17383391Y11762106D01*
X17363228Y11634800D01*
X17383391Y11507494D01*
X17441908Y11392649D01*
X17533049Y11301508D01*
X17538325Y11298820D01*
X17538326Y11298819D01*
X17586114Y11274470D01*
X17647894Y11242991D01*
X17775200Y11222828D01*
X17902506Y11242991D01*
X17964286Y11274470D01*
X18012074Y11298819D01*
X18012075Y11298820D01*
X18017351Y11301508D01*
X18108492Y11392649D01*
X18109628Y11391513D01*
X18146189Y11416168D01*
X18164373Y11418400D01*
X19788016Y11418400D01*
X19836354Y11400807D01*
X19841190Y11396374D01*
X23099374Y8138190D01*
X23121114Y8091570D01*
X23121400Y8085016D01*
X23121400Y7934573D01*
X23103807Y7886235D01*
X23095802Y7878770D01*
X23095649Y7878692D01*
X23004508Y7787551D01*
X23001820Y7782275D01*
X23001819Y7782274D01*
X22984526Y7748335D01*
X22945991Y7672706D01*
X22945065Y7666859D01*
X22929009Y7565484D01*
X22904071Y7520494D01*
X22856048Y7502059D01*
X22807410Y7518806D01*
X22801561Y7524074D01*
X19914839Y10410796D01*
X19912128Y10413652D01*
X19891728Y10436309D01*
X19886439Y10442183D01*
X19865378Y10451560D01*
X19855008Y10457191D01*
X19842312Y10465436D01*
X19842311Y10465436D01*
X19835684Y10469740D01*
X19827879Y10470976D01*
X19827421Y10471152D01*
X19810102Y10476282D01*
X19809618Y10476385D01*
X19802397Y10479600D01*
X19779352Y10479600D01*
X19767588Y10480526D01*
X19752627Y10482896D01*
X19752625Y10482896D01*
X19744821Y10484132D01*
X19737186Y10482086D01*
X19736706Y10482061D01*
X19718006Y10479600D01*
X17718184Y10479600D01*
X17669846Y10497193D01*
X17665010Y10501626D01*
X16701182Y11465454D01*
X16679442Y11512074D01*
X16680082Y11530391D01*
X16687646Y11578153D01*
X16688572Y11584000D01*
X16668409Y11711306D01*
X16636906Y11773133D01*
X16612581Y11820874D01*
X16612580Y11820875D01*
X16609892Y11826151D01*
X16518751Y11917292D01*
X16512334Y11920562D01*
X16465686Y11944330D01*
X16403906Y11975809D01*
X16276600Y11995972D01*
X16149294Y11975809D01*
X16087514Y11944330D01*
X16040867Y11920562D01*
X16034449Y11917292D01*
X15943308Y11826151D01*
X15940620Y11820875D01*
X15940619Y11820874D01*
X15916294Y11773133D01*
X15884791Y11711306D01*
X15864628Y11584000D01*
X15865554Y11578153D01*
X15869963Y11550318D01*
X15884791Y11456694D01*
X15887478Y11451421D01*
X15928420Y11371069D01*
X15943308Y11341849D01*
X16034449Y11250708D01*
X16039725Y11248020D01*
X16039726Y11248019D01*
X16068449Y11233384D01*
X16149294Y11192191D01*
X16276600Y11172028D01*
X16282447Y11172954D01*
X16330209Y11180518D01*
X16380704Y11170702D01*
X16395146Y11159418D01*
X17438970Y10115594D01*
X17441680Y10112739D01*
X17467361Y10084217D01*
X17488416Y10074843D01*
X17498788Y10069212D01*
X17518116Y10056660D01*
X17525925Y10055423D01*
X17526384Y10055247D01*
X17543698Y10050118D01*
X17544182Y10050015D01*
X17551403Y10046800D01*
X17574448Y10046800D01*
X17586213Y10045874D01*
X17608979Y10042268D01*
X17616614Y10044314D01*
X17617112Y10044340D01*
X17635791Y10046800D01*
X19635616Y10046800D01*
X19683954Y10029207D01*
X19688790Y10024774D01*
X23636570Y6076994D01*
X23639280Y6074139D01*
X23664961Y6045617D01*
X23686016Y6036243D01*
X23696388Y6030612D01*
X23715716Y6018060D01*
X23723525Y6016823D01*
X23723984Y6016647D01*
X23741298Y6011518D01*
X23741782Y6011415D01*
X23749003Y6008200D01*
X23772048Y6008200D01*
X23783812Y6007274D01*
X23798773Y6004904D01*
X23798775Y6004904D01*
X23806579Y6003668D01*
X23814214Y6005714D01*
X23814694Y6005739D01*
X23833394Y6008200D01*
X24777427Y6008200D01*
X24825765Y5990607D01*
X24833230Y5982602D01*
X24833308Y5982449D01*
X24924449Y5891308D01*
X24929725Y5888620D01*
X24929726Y5888619D01*
X24966021Y5870126D01*
X25039294Y5832791D01*
X25045141Y5831865D01*
X25160753Y5813554D01*
X25166600Y5812628D01*
X25169094Y5813023D01*
X25215973Y5795961D01*
X25241693Y5751412D01*
X25232760Y5700754D01*
X25213101Y5678456D01*
X25196526Y5665874D01*
X25108085Y5549358D01*
X25071542Y5457059D01*
X25057549Y5421717D01*
X25023397Y5383251D01*
X24987630Y5374200D01*
X24930870Y5374200D01*
X24924316Y5374486D01*
X24888763Y5377597D01*
X24888761Y5377597D01*
X24882209Y5378170D01*
X24875853Y5376467D01*
X24841365Y5367227D01*
X24834963Y5365808D01*
X24820598Y5363275D01*
X24793339Y5358468D01*
X24787640Y5355178D01*
X24784440Y5354013D01*
X24774665Y5349965D01*
X24771585Y5348529D01*
X24765234Y5346827D01*
X24759846Y5343054D01*
X24759843Y5343053D01*
X24730600Y5322578D01*
X24725071Y5319055D01*
X24694159Y5301207D01*
X24694156Y5301205D01*
X24688462Y5297917D01*
X24684236Y5292881D01*
X24684234Y5292879D01*
X24661291Y5265536D01*
X24656859Y5260700D01*
X21668185Y2272026D01*
X21621565Y2250286D01*
X21615011Y2250000D01*
X20072670Y2250000D01*
X20024332Y2267593D01*
X19998612Y2312142D01*
X20005667Y2359340D01*
X20043920Y2434415D01*
X20043921Y2434419D01*
X20046609Y2439694D01*
X20066772Y2567000D01*
X20046609Y2694306D01*
X20000902Y2784010D01*
X19990781Y2803874D01*
X19990780Y2803875D01*
X19988092Y2809151D01*
X19982126Y2815117D01*
X19981256Y2816983D01*
X19980429Y2818121D01*
X19980650Y2818282D01*
X19960386Y2861737D01*
X19960100Y2868291D01*
X19960100Y3019568D01*
X19960508Y3025124D01*
X19962055Y3029629D01*
X19960153Y3080301D01*
X19960100Y3083122D01*
X19960100Y3103393D01*
X19959465Y3106803D01*
X19959147Y3110247D01*
X19959324Y3110263D01*
X19958874Y3114383D01*
X19958050Y3136343D01*
X19958049Y3136346D01*
X19957789Y3143282D01*
X19955048Y3149663D01*
X19952058Y3156623D01*
X19947224Y3172535D01*
X19945836Y3179984D01*
X19945835Y3179986D01*
X19944564Y3186811D01*
X19940922Y3192720D01*
X19940921Y3192722D01*
X19929387Y3211434D01*
X19924309Y3221210D01*
X19914992Y3242897D01*
X19914990Y3242900D01*
X19912894Y3247779D01*
X19908815Y3252744D01*
X19902284Y3259275D01*
X19891443Y3272989D01*
X19888529Y3277717D01*
X19888528Y3277718D01*
X19884885Y3283628D01*
X19859904Y3302624D01*
X19852257Y3309302D01*
X19631733Y3529826D01*
X19609993Y3576446D01*
X19623307Y3626133D01*
X19631733Y3636174D01*
X19924901Y3929341D01*
X20046360Y4050800D01*
X20766189Y4050800D01*
X20767115Y4044953D01*
X20770580Y4023074D01*
X20786352Y3923494D01*
X20812326Y3872517D01*
X20842118Y3814049D01*
X20844869Y3808649D01*
X20936010Y3717508D01*
X20941286Y3714820D01*
X20941287Y3714819D01*
X20961620Y3704459D01*
X21050855Y3658991D01*
X21178161Y3638828D01*
X21226630Y3646505D01*
X21280171Y3634757D01*
X21327142Y3603372D01*
X21371743Y3594500D01*
X21686757Y3594500D01*
X22001856Y3594501D01*
X22046458Y3603372D01*
X22097034Y3637166D01*
X22111617Y3658991D01*
X22126713Y3681583D01*
X22126714Y3681584D01*
X22130828Y3687742D01*
X22139700Y3732343D01*
X22139699Y4362456D01*
X22130828Y4407058D01*
X22098079Y4456070D01*
X22085852Y4506036D01*
X22098079Y4539629D01*
X22126242Y4581777D01*
X22131803Y4595202D01*
X22138479Y4628763D01*
X22139200Y4636084D01*
X22139200Y4857941D01*
X22135503Y4868098D01*
X22130131Y4871200D01*
X21247659Y4871200D01*
X21237502Y4867503D01*
X21234400Y4862131D01*
X21234400Y4636084D01*
X21235121Y4628763D01*
X21241797Y4595202D01*
X21247359Y4581775D01*
X21249330Y4578824D01*
X21261556Y4528859D01*
X21238804Y4482724D01*
X21186803Y4461846D01*
X21184008Y4461846D01*
X21178161Y4462772D01*
X21172314Y4461846D01*
X21114508Y4452691D01*
X21050855Y4442609D01*
X21045581Y4439922D01*
X21045582Y4439922D01*
X20951880Y4392178D01*
X20936010Y4384092D01*
X20844869Y4292951D01*
X20842181Y4287675D01*
X20842180Y4287674D01*
X20819119Y4242414D01*
X20786352Y4178106D01*
X20766189Y4050800D01*
X20046360Y4050800D01*
X20263281Y4267721D01*
X20267499Y4271362D01*
X20271780Y4273455D01*
X20306276Y4310642D01*
X20308233Y4312673D01*
X20322557Y4326997D01*
X20324518Y4329855D01*
X20326733Y4332521D01*
X20326878Y4332401D01*
X20329463Y4335638D01*
X20344407Y4351748D01*
X20349128Y4356837D01*
X20354508Y4370321D01*
X20362342Y4384994D01*
X20366630Y4391245D01*
X20370556Y4396968D01*
X20377234Y4425108D01*
X20380556Y4435611D01*
X20383718Y4443535D01*
X20391273Y4462473D01*
X20391900Y4468868D01*
X20391900Y4478108D01*
X20393932Y4495472D01*
X20394724Y4498810D01*
X20396817Y4507628D01*
X20392587Y4538709D01*
X20391900Y4548850D01*
X20391900Y5036859D01*
X21234400Y5036859D01*
X21238097Y5026702D01*
X21243469Y5023600D01*
X21597341Y5023600D01*
X21607498Y5027297D01*
X21610600Y5032669D01*
X21610600Y5036859D01*
X21763000Y5036859D01*
X21766697Y5026702D01*
X21772069Y5023600D01*
X22125941Y5023600D01*
X22136098Y5027297D01*
X22139200Y5032669D01*
X22139200Y5258716D01*
X22138479Y5266037D01*
X22131803Y5299598D01*
X22126242Y5313023D01*
X22100786Y5351120D01*
X22090520Y5361386D01*
X22052423Y5386842D01*
X22038998Y5392403D01*
X22005437Y5399079D01*
X21998116Y5399800D01*
X21776259Y5399800D01*
X21766102Y5396103D01*
X21763000Y5390731D01*
X21763000Y5036859D01*
X21610600Y5036859D01*
X21610600Y5386541D01*
X21606903Y5396698D01*
X21601531Y5399800D01*
X21375484Y5399800D01*
X21368163Y5399079D01*
X21334602Y5392403D01*
X21321177Y5386842D01*
X21283080Y5361386D01*
X21272814Y5351120D01*
X21247358Y5313023D01*
X21241797Y5299598D01*
X21235121Y5266037D01*
X21234400Y5258716D01*
X21234400Y5036859D01*
X20391900Y5036859D01*
X20391900Y7743968D01*
X20392308Y7749524D01*
X20393855Y7754029D01*
X20392440Y7791741D01*
X20391953Y7804701D01*
X20391900Y7807522D01*
X20391900Y7827793D01*
X20391265Y7831203D01*
X20390947Y7834647D01*
X20391124Y7834663D01*
X20390674Y7838783D01*
X20389850Y7860743D01*
X20389849Y7860746D01*
X20389589Y7867682D01*
X20386848Y7874063D01*
X20383858Y7881023D01*
X20379024Y7896935D01*
X20377636Y7904384D01*
X20377635Y7904386D01*
X20376364Y7911211D01*
X20372722Y7917120D01*
X20372721Y7917122D01*
X20361187Y7935834D01*
X20356109Y7945610D01*
X20346792Y7967297D01*
X20346790Y7967300D01*
X20344694Y7972179D01*
X20340615Y7977144D01*
X20334084Y7983675D01*
X20323243Y7997389D01*
X20320329Y8002117D01*
X20320328Y8002118D01*
X20316685Y8008028D01*
X20291704Y8027024D01*
X20284057Y8033702D01*
X19859079Y8458681D01*
X19855438Y8462899D01*
X19853345Y8467180D01*
X19816158Y8501676D01*
X19814127Y8503633D01*
X19799803Y8517957D01*
X19796945Y8519918D01*
X19794279Y8522133D01*
X19794399Y8522278D01*
X19791162Y8524863D01*
X19775052Y8539807D01*
X19769963Y8544528D01*
X19763514Y8547101D01*
X19756479Y8549908D01*
X19741806Y8557742D01*
X19735555Y8562030D01*
X19735556Y8562030D01*
X19729832Y8565956D01*
X19723081Y8567558D01*
X19723079Y8567559D01*
X19701693Y8572634D01*
X19691194Y8575954D01*
X19664327Y8586673D01*
X19657932Y8587300D01*
X19648692Y8587300D01*
X19631330Y8589332D01*
X19619172Y8592217D01*
X19612294Y8591281D01*
X19612293Y8591281D01*
X19588091Y8587987D01*
X19577950Y8587300D01*
X19171888Y8587300D01*
X19123550Y8604893D01*
X19109375Y8624224D01*
X19108228Y8623458D01*
X19075779Y8672021D01*
X19063552Y8721987D01*
X19075779Y8755579D01*
X19104113Y8797983D01*
X19104114Y8797984D01*
X19108228Y8804142D01*
X19117100Y8848743D01*
X19117099Y9478856D01*
X19108228Y9523458D01*
X19074434Y9574034D01*
X19058410Y9584741D01*
X19030017Y9603713D01*
X19030016Y9603714D01*
X19023858Y9607828D01*
X18979257Y9616700D01*
X18664243Y9616700D01*
X18349144Y9616699D01*
X18304542Y9607828D01*
X18253966Y9574034D01*
X18249852Y9567877D01*
X18248299Y9566324D01*
X18201679Y9544584D01*
X18183363Y9545224D01*
X18105400Y9557572D01*
X18005511Y9541751D01*
X17955017Y9551566D01*
X17949721Y9555704D01*
X17949634Y9555834D01*
X17933935Y9566324D01*
X17905217Y9585513D01*
X17905216Y9585514D01*
X17899058Y9589628D01*
X17872565Y9594898D01*
X17858082Y9597779D01*
X17858081Y9597779D01*
X17854457Y9598500D01*
X17539443Y9598500D01*
X17224344Y9598499D01*
X17179742Y9589628D01*
X17173584Y9585513D01*
X17173582Y9585512D01*
X17130730Y9556879D01*
X17080764Y9544652D01*
X17047171Y9556879D01*
X17005023Y9585042D01*
X16991598Y9590603D01*
X16958037Y9597279D01*
X16950716Y9598000D01*
X16728859Y9598000D01*
X16718702Y9594303D01*
X16715600Y9588931D01*
X16715600Y8706459D01*
X16719297Y8696302D01*
X16724669Y8693200D01*
X16950716Y8693200D01*
X16958037Y8693921D01*
X16991598Y8700597D01*
X17005023Y8706158D01*
X17047171Y8734321D01*
X17097136Y8746548D01*
X17130730Y8734321D01*
X17173583Y8705687D01*
X17173584Y8705686D01*
X17179742Y8701572D01*
X17187006Y8700127D01*
X17218205Y8693921D01*
X17224343Y8692700D01*
X17539357Y8692700D01*
X17854456Y8692701D01*
X17858080Y8693422D01*
X17858082Y8693422D01*
X17863453Y8694490D01*
X17877462Y8697277D01*
X17928302Y8689452D01*
X17962218Y8650777D01*
X17963340Y8599349D01*
X17945305Y8570348D01*
X17899108Y8524151D01*
X17896420Y8518875D01*
X17896419Y8518874D01*
X17888139Y8502624D01*
X17840591Y8409306D01*
X17839665Y8403459D01*
X17821387Y8288052D01*
X17820428Y8282000D01*
X17840591Y8154694D01*
X17843278Y8149421D01*
X17888310Y8061042D01*
X17899108Y8039849D01*
X17990249Y7948708D01*
X17995525Y7946020D01*
X17995526Y7946019D01*
X18006874Y7940237D01*
X18105094Y7890191D01*
X18110941Y7889265D01*
X18216759Y7872505D01*
X18253957Y7853553D01*
X18253966Y7853566D01*
X18260123Y7849452D01*
X18260124Y7849451D01*
X18298383Y7823887D01*
X18298384Y7823886D01*
X18304542Y7819772D01*
X18349143Y7810900D01*
X18664157Y7810900D01*
X18979256Y7810901D01*
X19023858Y7819772D01*
X19074434Y7853566D01*
X19080337Y7862400D01*
X19104113Y7897983D01*
X19104114Y7897984D01*
X19108228Y7904142D01*
X19110621Y7916172D01*
X19137308Y7960148D01*
X19184376Y7976700D01*
X19446393Y7976700D01*
X19494731Y7959107D01*
X19499567Y7954674D01*
X19759274Y7694967D01*
X19781014Y7648347D01*
X19781300Y7641793D01*
X19781300Y4680407D01*
X19763707Y4632069D01*
X19759274Y4627233D01*
X19640674Y4508633D01*
X19594054Y4486893D01*
X19544367Y4500207D01*
X19514862Y4542344D01*
X19512300Y4561807D01*
X19512299Y4829559D01*
X19512299Y4833256D01*
X19503428Y4877858D01*
X19469634Y4928434D01*
X19450895Y4940955D01*
X19425217Y4958113D01*
X19425216Y4958114D01*
X19419058Y4962228D01*
X19374457Y4971100D01*
X19040977Y4971100D01*
X17429977Y4971099D01*
X17395837Y4979295D01*
X17342448Y5006498D01*
X17320022Y5017925D01*
X17192716Y5038088D01*
X17065410Y5017925D01*
X17039486Y5004716D01*
X16956100Y4962228D01*
X16950565Y4959408D01*
X16859424Y4868267D01*
X16856736Y4862991D01*
X16856735Y4862990D01*
X16843433Y4836884D01*
X16800907Y4753422D01*
X16780744Y4626116D01*
X16781670Y4620269D01*
X16787767Y4581775D01*
X16800907Y4498810D01*
X16829071Y4443535D01*
X16855715Y4391245D01*
X16859424Y4383965D01*
X16950565Y4292824D01*
X16955841Y4290136D01*
X16955842Y4290135D01*
X16999832Y4267721D01*
X17065410Y4234307D01*
X17192716Y4214144D01*
X17320022Y4234307D01*
X17325296Y4236994D01*
X17364764Y4257104D01*
X17398904Y4265300D01*
X17584533Y4265300D01*
X19215793Y4265301D01*
X19264131Y4247708D01*
X19289851Y4203159D01*
X19280918Y4152501D01*
X19268967Y4136927D01*
X19140566Y4008526D01*
X19099156Y3987426D01*
X19019494Y3974809D01*
X19014220Y3972122D01*
X19014221Y3972122D01*
X18918784Y3923494D01*
X18904649Y3916292D01*
X18813508Y3825151D01*
X18810820Y3819875D01*
X18810819Y3819874D01*
X18796315Y3791409D01*
X18754991Y3710306D01*
X18754065Y3704459D01*
X18736650Y3594501D01*
X18734828Y3583000D01*
X18754991Y3455694D01*
X18767531Y3431083D01*
X18809902Y3347927D01*
X18813508Y3340849D01*
X18904649Y3249708D01*
X18909925Y3247020D01*
X18909926Y3247019D01*
X18941663Y3230848D01*
X19019494Y3191191D01*
X19025341Y3190265D01*
X19099157Y3178574D01*
X19140567Y3157474D01*
X19327474Y2970567D01*
X19349214Y2923947D01*
X19349500Y2917393D01*
X19349500Y2868291D01*
X19331907Y2819953D01*
X19327474Y2815117D01*
X19321508Y2809151D01*
X19318820Y2803876D01*
X19317237Y2801697D01*
X19274591Y2772933D01*
X19256400Y2770700D01*
X15088008Y2770700D01*
X15039670Y2788293D01*
X15034834Y2792726D01*
X14695526Y3132034D01*
X14674426Y3173444D01*
X14662735Y3247259D01*
X14661809Y3253106D01*
X14614846Y3345275D01*
X14605981Y3362674D01*
X14605980Y3362675D01*
X14603292Y3367951D01*
X14512151Y3459092D01*
X14488838Y3470971D01*
X14402579Y3514922D01*
X14402580Y3514922D01*
X14397306Y3517609D01*
X14270000Y3537772D01*
X14142694Y3517609D01*
X14137420Y3514922D01*
X14137421Y3514922D01*
X14051163Y3470971D01*
X14027849Y3459092D01*
X14021883Y3453126D01*
X14020017Y3452256D01*
X14018879Y3451429D01*
X14018718Y3451650D01*
X13975263Y3431386D01*
X13968709Y3431100D01*
X10329491Y3431100D01*
X10281153Y3448693D01*
X10276317Y3453126D01*
X10270351Y3459092D01*
X10247038Y3470971D01*
X10160779Y3514922D01*
X10160780Y3514922D01*
X10155506Y3517609D01*
X10127851Y3521989D01*
X10075844Y3530226D01*
X10034433Y3551326D01*
X9847525Y3738235D01*
X9825786Y3784855D01*
X9825500Y3791409D01*
X9825500Y4108457D01*
X15188700Y4108457D01*
X15188701Y3478344D01*
X15197572Y3433742D01*
X15231366Y3383166D01*
X15237523Y3379052D01*
X15275783Y3353487D01*
X15275784Y3353486D01*
X15281942Y3349372D01*
X15326543Y3340500D01*
X15641557Y3340500D01*
X15956656Y3340501D01*
X16001258Y3349372D01*
X16045447Y3378898D01*
X16075461Y3390646D01*
X16099106Y3394391D01*
X16164246Y3427582D01*
X16208674Y3450219D01*
X16208675Y3450220D01*
X16213951Y3452908D01*
X16305092Y3544049D01*
X16309234Y3552177D01*
X16353385Y3638828D01*
X16363609Y3658894D01*
X16383772Y3786200D01*
X16380217Y3808649D01*
X16364535Y3907659D01*
X16363609Y3913506D01*
X16323997Y3991248D01*
X16307781Y4023074D01*
X16307780Y4023075D01*
X16305092Y4028351D01*
X16213951Y4119492D01*
X16204080Y4124522D01*
X16104381Y4175321D01*
X16104382Y4175321D01*
X16099106Y4178009D01*
X16095259Y4178618D01*
X16055454Y4209718D01*
X16044759Y4260034D01*
X16056701Y4291347D01*
X16081041Y4327774D01*
X16086603Y4341202D01*
X16093279Y4374763D01*
X16094000Y4382084D01*
X16094000Y4603941D01*
X16090303Y4614098D01*
X16084931Y4617200D01*
X15202459Y4617200D01*
X15192302Y4613503D01*
X15189200Y4608131D01*
X15189200Y4382084D01*
X15189921Y4374763D01*
X15196597Y4341202D01*
X15202158Y4327777D01*
X15230321Y4285629D01*
X15242548Y4235664D01*
X15230321Y4202070D01*
X15214309Y4178106D01*
X15197572Y4153058D01*
X15188700Y4108457D01*
X9825500Y4108457D01*
X9825500Y4782859D01*
X15189200Y4782859D01*
X15192897Y4772702D01*
X15198269Y4769600D01*
X15552141Y4769600D01*
X15562298Y4773297D01*
X15565400Y4778669D01*
X15565400Y4782859D01*
X15717800Y4782859D01*
X15721497Y4772702D01*
X15726869Y4769600D01*
X16080741Y4769600D01*
X16090898Y4773297D01*
X16094000Y4778669D01*
X16094000Y5004716D01*
X16093279Y5012037D01*
X16086603Y5045598D01*
X16081042Y5059023D01*
X16055586Y5097120D01*
X16045320Y5107386D01*
X16007223Y5132842D01*
X15993798Y5138403D01*
X15960237Y5145079D01*
X15952916Y5145800D01*
X15731059Y5145800D01*
X15720902Y5142103D01*
X15717800Y5136731D01*
X15717800Y4782859D01*
X15565400Y4782859D01*
X15565400Y5132541D01*
X15561703Y5142698D01*
X15556331Y5145800D01*
X15330284Y5145800D01*
X15322963Y5145079D01*
X15289402Y5138403D01*
X15275977Y5132842D01*
X15237880Y5107386D01*
X15227614Y5097120D01*
X15202158Y5059023D01*
X15196597Y5045598D01*
X15189921Y5012037D01*
X15189200Y5004716D01*
X15189200Y4782859D01*
X9825500Y4782859D01*
X9825500Y5056174D01*
X9843093Y5104512D01*
X9871923Y5125650D01*
X9872591Y5125927D01*
X9879858Y5127372D01*
X9930434Y5161166D01*
X9952760Y5194579D01*
X9994243Y5224996D01*
X10015286Y5228000D01*
X10182930Y5228000D01*
X10189484Y5227714D01*
X10225037Y5224603D01*
X10225039Y5224603D01*
X10231591Y5224030D01*
X10237947Y5225733D01*
X10272435Y5234973D01*
X10278837Y5236392D01*
X10293202Y5238925D01*
X10320461Y5243732D01*
X10326160Y5247022D01*
X10329360Y5248187D01*
X10339135Y5252235D01*
X10342215Y5253671D01*
X10348566Y5255373D01*
X10353954Y5259146D01*
X10353957Y5259147D01*
X10383200Y5279622D01*
X10388729Y5283145D01*
X10419641Y5300993D01*
X10419644Y5300995D01*
X10425338Y5304283D01*
X10429564Y5309319D01*
X10429566Y5309321D01*
X10452509Y5336664D01*
X10456941Y5341500D01*
X10722325Y5606884D01*
X17207000Y5606884D01*
X17207721Y5599563D01*
X17214397Y5566002D01*
X17219958Y5552577D01*
X17245414Y5514480D01*
X17255680Y5504214D01*
X17293777Y5478758D01*
X17307202Y5473197D01*
X17340763Y5466521D01*
X17348084Y5465800D01*
X18269941Y5465800D01*
X18280098Y5469497D01*
X18283200Y5474869D01*
X18283200Y5479059D01*
X18435600Y5479059D01*
X18439297Y5468902D01*
X18444669Y5465800D01*
X19370716Y5465800D01*
X19378037Y5466521D01*
X19411598Y5473197D01*
X19425023Y5478758D01*
X19463120Y5504214D01*
X19473386Y5514480D01*
X19498842Y5552577D01*
X19504403Y5566002D01*
X19511079Y5599563D01*
X19511800Y5606884D01*
X19511800Y5728741D01*
X19508103Y5738898D01*
X19502731Y5742000D01*
X18448859Y5742000D01*
X18438702Y5738303D01*
X18435600Y5732931D01*
X18435600Y5479059D01*
X18283200Y5479059D01*
X18283200Y5728741D01*
X18279503Y5738898D01*
X18274131Y5742000D01*
X17220259Y5742000D01*
X17210102Y5738303D01*
X17207000Y5732931D01*
X17207000Y5606884D01*
X10722325Y5606884D01*
X11023100Y5907659D01*
X17207000Y5907659D01*
X17210697Y5897502D01*
X17216069Y5894400D01*
X18269941Y5894400D01*
X18280098Y5898097D01*
X18283200Y5903469D01*
X18283200Y5907659D01*
X18435600Y5907659D01*
X18439297Y5897502D01*
X18444669Y5894400D01*
X19498541Y5894400D01*
X19508698Y5898097D01*
X19511800Y5903469D01*
X19511800Y6029516D01*
X19511079Y6036837D01*
X19504403Y6070398D01*
X19498842Y6083823D01*
X19473386Y6121920D01*
X19463120Y6132186D01*
X19425023Y6157642D01*
X19411598Y6163203D01*
X19378037Y6169879D01*
X19370716Y6170600D01*
X18448859Y6170600D01*
X18438702Y6166903D01*
X18435600Y6161531D01*
X18435600Y5907659D01*
X18283200Y5907659D01*
X18283200Y6157341D01*
X18279503Y6167498D01*
X18274131Y6170600D01*
X17348084Y6170600D01*
X17340763Y6169879D01*
X17307202Y6163203D01*
X17293777Y6157642D01*
X17255680Y6132186D01*
X17245414Y6121920D01*
X17219958Y6083823D01*
X17214397Y6070398D01*
X17207721Y6036837D01*
X17207000Y6029516D01*
X17207000Y5907659D01*
X11023100Y5907659D01*
X11375701Y6260260D01*
X11380538Y6264693D01*
X11407877Y6287633D01*
X11412917Y6291862D01*
X11434056Y6328476D01*
X11437577Y6334002D01*
X11458052Y6363243D01*
X11458053Y6363246D01*
X11461826Y6368634D01*
X11463528Y6374988D01*
X11464973Y6378086D01*
X11469020Y6387857D01*
X11470180Y6391044D01*
X11473468Y6396739D01*
X11480813Y6438394D01*
X11482223Y6444754D01*
X11493170Y6485609D01*
X11489486Y6527716D01*
X11489200Y6534270D01*
X11489200Y7012000D01*
X16906028Y7012000D01*
X16906954Y7006153D01*
X16912822Y6969106D01*
X16926191Y6884694D01*
X16944923Y6847930D01*
X16977919Y6783174D01*
X16984708Y6769849D01*
X17075849Y6678708D01*
X17190694Y6620191D01*
X17318000Y6600028D01*
X17445306Y6620191D01*
X17517751Y6657104D01*
X17551892Y6665300D01*
X19061622Y6665301D01*
X19374456Y6665301D01*
X19419058Y6674172D01*
X19469634Y6707966D01*
X19503428Y6758542D01*
X19506727Y6775126D01*
X19511579Y6799518D01*
X19511579Y6799519D01*
X19512300Y6803143D01*
X19512299Y7233256D01*
X19503428Y7277858D01*
X19469634Y7328434D01*
X19450675Y7341102D01*
X19425217Y7358113D01*
X19425216Y7358114D01*
X19419058Y7362228D01*
X19374457Y7371100D01*
X19057543Y7371100D01*
X17527556Y7371099D01*
X17493417Y7379295D01*
X17445306Y7403809D01*
X17439461Y7404735D01*
X17439460Y7404735D01*
X17323847Y7423046D01*
X17318000Y7423972D01*
X17190694Y7403809D01*
X17185420Y7401122D01*
X17185421Y7401122D01*
X17084830Y7349868D01*
X17075849Y7345292D01*
X16984708Y7254151D01*
X16926191Y7139306D01*
X16906028Y7012000D01*
X11489200Y7012000D01*
X11489200Y8605684D01*
X13901000Y8605684D01*
X13901721Y8598363D01*
X13908397Y8564802D01*
X13913958Y8551377D01*
X13939414Y8513280D01*
X13949680Y8503014D01*
X13987777Y8477558D01*
X14001202Y8471997D01*
X14034763Y8465321D01*
X14042084Y8464600D01*
X14263941Y8464600D01*
X14274098Y8468297D01*
X14277200Y8473669D01*
X14277200Y8477859D01*
X14429600Y8477859D01*
X14433297Y8467702D01*
X14438669Y8464600D01*
X14664716Y8464600D01*
X14672037Y8465321D01*
X14705598Y8471997D01*
X14719023Y8477558D01*
X14761171Y8505721D01*
X14811136Y8517948D01*
X14844730Y8505721D01*
X14887583Y8477087D01*
X14887584Y8477086D01*
X14893742Y8472972D01*
X14901006Y8471527D01*
X14932205Y8465321D01*
X14938343Y8464100D01*
X15253357Y8464100D01*
X15568456Y8464101D01*
X15613058Y8472972D01*
X15663634Y8506766D01*
X15678050Y8528341D01*
X15693313Y8551183D01*
X15693314Y8551184D01*
X15697428Y8557342D01*
X15698912Y8564802D01*
X15705579Y8598318D01*
X15705579Y8598319D01*
X15706300Y8601943D01*
X15706300Y8834284D01*
X16187000Y8834284D01*
X16187721Y8826963D01*
X16194397Y8793402D01*
X16199958Y8779977D01*
X16225414Y8741880D01*
X16235680Y8731614D01*
X16273777Y8706158D01*
X16287202Y8700597D01*
X16320763Y8693921D01*
X16328084Y8693200D01*
X16549941Y8693200D01*
X16560098Y8696897D01*
X16563200Y8702269D01*
X16563200Y9056141D01*
X16559503Y9066298D01*
X16554131Y9069400D01*
X16200259Y9069400D01*
X16190102Y9065703D01*
X16187000Y9060331D01*
X16187000Y8834284D01*
X15706300Y8834284D01*
X15706299Y9232056D01*
X15705702Y9235059D01*
X16187000Y9235059D01*
X16190697Y9224902D01*
X16196069Y9221800D01*
X16549941Y9221800D01*
X16560098Y9225497D01*
X16563200Y9230869D01*
X16563200Y9584741D01*
X16559503Y9594898D01*
X16554131Y9598000D01*
X16328084Y9598000D01*
X16320763Y9597279D01*
X16287202Y9590603D01*
X16273777Y9585042D01*
X16235680Y9559586D01*
X16225414Y9549320D01*
X16199958Y9511223D01*
X16194397Y9497798D01*
X16187721Y9464237D01*
X16187000Y9456916D01*
X16187000Y9235059D01*
X15705702Y9235059D01*
X15697428Y9276658D01*
X15663634Y9327234D01*
X15666094Y9328878D01*
X15649726Y9363979D01*
X15657637Y9404674D01*
X15661592Y9412437D01*
X15664280Y9417712D01*
X15678610Y9508190D01*
X15683517Y9539171D01*
X15684443Y9545018D01*
X15664280Y9672324D01*
X15605763Y9787169D01*
X15514622Y9878310D01*
X15493466Y9889090D01*
X15416045Y9928538D01*
X15399777Y9936827D01*
X15272471Y9956990D01*
X15145165Y9936827D01*
X15128897Y9928538D01*
X15051477Y9889090D01*
X15030320Y9878310D01*
X14939179Y9787169D01*
X14880662Y9672324D01*
X14860499Y9545018D01*
X14880662Y9417712D01*
X14881265Y9416529D01*
X14879540Y9367219D01*
X14851598Y9332868D01*
X14844731Y9328280D01*
X14794766Y9316052D01*
X14761171Y9328279D01*
X14719023Y9356442D01*
X14705598Y9362003D01*
X14672037Y9368679D01*
X14664716Y9369400D01*
X14442859Y9369400D01*
X14432702Y9365703D01*
X14429600Y9360331D01*
X14429600Y8477859D01*
X14277200Y8477859D01*
X14277200Y8827541D01*
X14273503Y8837698D01*
X14268131Y8840800D01*
X13914259Y8840800D01*
X13904102Y8837103D01*
X13901000Y8831731D01*
X13901000Y8605684D01*
X11489200Y8605684D01*
X11489200Y9006459D01*
X13901000Y9006459D01*
X13904697Y8996302D01*
X13910069Y8993200D01*
X14263941Y8993200D01*
X14274098Y8996897D01*
X14277200Y9002269D01*
X14277200Y9356141D01*
X14273503Y9366298D01*
X14268131Y9369400D01*
X14042084Y9369400D01*
X14034763Y9368679D01*
X14001202Y9362003D01*
X13987777Y9356442D01*
X13949680Y9330986D01*
X13939414Y9320720D01*
X13913958Y9282623D01*
X13908397Y9269198D01*
X13901721Y9235637D01*
X13901000Y9228316D01*
X13901000Y9006459D01*
X11489200Y9006459D01*
X11489200Y9531011D01*
X11506793Y9579349D01*
X11511226Y9584185D01*
X13197255Y11270214D01*
X13238666Y11291314D01*
X13248460Y11292865D01*
X13248461Y11292865D01*
X13254306Y11293791D01*
X13269452Y11301508D01*
X13363874Y11349619D01*
X13363875Y11349620D01*
X13369151Y11352308D01*
X13460292Y11443449D01*
X13483816Y11489616D01*
X13495160Y11511880D01*
X13518809Y11558294D01*
X13538972Y11685600D01*
X13534066Y11716579D01*
X13523641Y11782396D01*
X13518809Y11812906D01*
X13484041Y11881141D01*
X13462981Y11922474D01*
X13462980Y11922475D01*
X13460292Y11927751D01*
X13369151Y12018892D01*
X13359280Y12023922D01*
X13259579Y12074722D01*
X13259580Y12074722D01*
X13254306Y12077409D01*
X13127000Y12097572D01*
X12999694Y12077409D01*
X12994420Y12074722D01*
X12994421Y12074722D01*
X12894721Y12023922D01*
X12884849Y12018892D01*
X12793708Y11927751D01*
X12791020Y11922475D01*
X12791019Y11922474D01*
X12740416Y11823160D01*
X12735191Y11812906D01*
X12734265Y11807061D01*
X12734265Y11807060D01*
X12732714Y11797266D01*
X12711614Y11755855D01*
X10915899Y9960140D01*
X10911062Y9955707D01*
X10878683Y9928538D01*
X10875395Y9922844D01*
X10875393Y9922841D01*
X10857545Y9891929D01*
X10854022Y9886400D01*
X10833547Y9857157D01*
X10833546Y9857154D01*
X10829773Y9851766D01*
X10828071Y9845415D01*
X10826635Y9842335D01*
X10822587Y9832560D01*
X10821422Y9829360D01*
X10818132Y9823661D01*
X10816990Y9817182D01*
X10810792Y9782037D01*
X10809373Y9775635D01*
X10806799Y9766026D01*
X10798430Y9734791D01*
X10799003Y9728239D01*
X10799003Y9728237D01*
X10802114Y9692684D01*
X10802400Y9686130D01*
X10802400Y6689389D01*
X10784807Y6641051D01*
X10780374Y6636215D01*
X10080985Y5936826D01*
X10034365Y5915086D01*
X10027811Y5914800D01*
X10015286Y5914800D01*
X9966948Y5932393D01*
X9952760Y5948221D01*
X9931479Y5980070D01*
X9919252Y6030035D01*
X9931479Y6063629D01*
X9959642Y6105777D01*
X9965203Y6119202D01*
X9971879Y6152763D01*
X9972600Y6160084D01*
X9972600Y6381941D01*
X9968903Y6392098D01*
X9963531Y6395200D01*
X9081059Y6395200D01*
X9070902Y6391503D01*
X9067800Y6386131D01*
X9067800Y6160084D01*
X9068521Y6152763D01*
X9075197Y6119202D01*
X9080758Y6105777D01*
X9108921Y6063629D01*
X9121148Y6013664D01*
X9108921Y5980070D01*
X9076172Y5931058D01*
X9074727Y5923794D01*
X9074448Y5923120D01*
X9039695Y5885196D01*
X9004973Y5876700D01*
X8943226Y5876700D01*
X8894888Y5894293D01*
X8873750Y5923123D01*
X8873473Y5923791D01*
X8872028Y5931058D01*
X8839279Y5980070D01*
X8827052Y6030036D01*
X8839279Y6063629D01*
X8867442Y6105777D01*
X8873003Y6119202D01*
X8879679Y6152763D01*
X8880400Y6160084D01*
X8880400Y6381941D01*
X8876703Y6392098D01*
X8871331Y6395200D01*
X7988859Y6395200D01*
X7978702Y6391503D01*
X7975600Y6386131D01*
X7975600Y6160084D01*
X7976321Y6152763D01*
X7982997Y6119202D01*
X7988558Y6105777D01*
X8016721Y6063629D01*
X8028948Y6013664D01*
X8016721Y5980070D01*
X7983972Y5931058D01*
X7975100Y5886457D01*
X7975100Y5731300D01*
X7957507Y5682962D01*
X7912958Y5657242D01*
X7899900Y5656100D01*
X7714128Y5656100D01*
X7665790Y5673693D01*
X7640373Y5716629D01*
X7638073Y5728192D01*
X7636628Y5735458D01*
X7602834Y5786034D01*
X7587977Y5795961D01*
X7558417Y5815713D01*
X7558416Y5815714D01*
X7552258Y5819828D01*
X7507657Y5828700D01*
X6962674Y5828700D01*
X6417544Y5828699D01*
X6372942Y5819828D01*
X6366784Y5815713D01*
X6366782Y5815712D01*
X6356354Y5808744D01*
X6322366Y5786034D01*
X6288572Y5735458D01*
X6287127Y5728194D01*
X6284827Y5716629D01*
X6279700Y5690857D01*
X6279701Y5010744D01*
X6288572Y4966142D01*
X6322366Y4915566D01*
X6328523Y4911452D01*
X6366783Y4885887D01*
X6366784Y4885886D01*
X6372942Y4881772D01*
X6417543Y4872900D01*
X6962526Y4872900D01*
X7507656Y4872901D01*
X7552258Y4881772D01*
X7602834Y4915566D01*
X7614181Y4932548D01*
X7632513Y4959983D01*
X7632514Y4959984D01*
X7636628Y4966142D01*
X7640373Y4984971D01*
X7667058Y5028947D01*
X7714128Y5045500D01*
X8151960Y5045500D01*
X8157519Y5045092D01*
X8162028Y5043544D01*
X8212716Y5045447D01*
X8215536Y5045500D01*
X8235793Y5045500D01*
X8239197Y5046134D01*
X8242649Y5046453D01*
X8242665Y5046281D01*
X8246783Y5046726D01*
X8268743Y5047550D01*
X8268746Y5047551D01*
X8275682Y5047811D01*
X8282061Y5050552D01*
X8282063Y5050552D01*
X8289023Y5053542D01*
X8304935Y5058376D01*
X8312384Y5059764D01*
X8312386Y5059765D01*
X8319211Y5061036D01*
X8325120Y5064678D01*
X8325122Y5064679D01*
X8343834Y5076213D01*
X8353610Y5081291D01*
X8375297Y5090608D01*
X8375300Y5090610D01*
X8380179Y5092706D01*
X8385144Y5096785D01*
X8386448Y5098089D01*
X8387449Y5098997D01*
X8437975Y5118500D01*
X8701249Y5118501D01*
X8743056Y5118501D01*
X8787658Y5127372D01*
X8838234Y5161166D01*
X8872028Y5211742D01*
X8873473Y5219007D01*
X8873752Y5219680D01*
X8908505Y5257604D01*
X8943227Y5266100D01*
X9004974Y5266100D01*
X9053312Y5248507D01*
X9074450Y5219677D01*
X9074727Y5219009D01*
X9076172Y5211742D01*
X9109966Y5161166D01*
X9160542Y5127372D01*
X9167807Y5125927D01*
X9168480Y5125648D01*
X9206404Y5090895D01*
X9214900Y5056173D01*
X9214900Y3689240D01*
X9214492Y3683681D01*
X9212944Y3679172D01*
X9214290Y3643323D01*
X9214847Y3628485D01*
X9214900Y3625664D01*
X9214900Y3605407D01*
X9215534Y3602003D01*
X9215853Y3598551D01*
X9215681Y3598535D01*
X9216126Y3594417D01*
X9216950Y3572457D01*
X9216951Y3572454D01*
X9217211Y3565518D01*
X9219952Y3559139D01*
X9219952Y3559137D01*
X9222942Y3552177D01*
X9227776Y3536265D01*
X9228976Y3529826D01*
X9230436Y3521989D01*
X9234078Y3516080D01*
X9234079Y3516078D01*
X9245613Y3497366D01*
X9250691Y3487590D01*
X9260008Y3465903D01*
X9260010Y3465900D01*
X9262106Y3461021D01*
X9266185Y3456056D01*
X9272716Y3449525D01*
X9283557Y3435811D01*
X9286285Y3431386D01*
X9290115Y3425172D01*
X9315096Y3406176D01*
X9322743Y3399498D01*
X9602674Y3119567D01*
X9623774Y3078157D01*
X9636391Y2998494D01*
X9694908Y2883649D01*
X9786049Y2792508D01*
X9791325Y2789820D01*
X9791326Y2789819D01*
X9794321Y2788293D01*
X9900894Y2733991D01*
X10028200Y2713828D01*
X10155506Y2733991D01*
X10262079Y2788293D01*
X10265074Y2789819D01*
X10265075Y2789820D01*
X10270351Y2792508D01*
X10276317Y2798474D01*
X10278183Y2799344D01*
X10279321Y2800171D01*
X10279482Y2799950D01*
X10322937Y2820214D01*
X10329491Y2820500D01*
X13968709Y2820500D01*
X14017047Y2802907D01*
X14021883Y2798474D01*
X14027849Y2792508D01*
X14033125Y2789820D01*
X14033126Y2789819D01*
X14036121Y2788293D01*
X14142694Y2733991D01*
X14148541Y2733065D01*
X14222357Y2721374D01*
X14263766Y2700275D01*
X14585668Y2378373D01*
X14607406Y2331754D01*
X14594092Y2282067D01*
X14551955Y2252562D01*
X14532492Y2250000D01*
X10954368Y2250000D01*
X10920228Y2258196D01*
X10887411Y2274917D01*
X10841306Y2298409D01*
X10714000Y2318572D01*
X10586694Y2298409D01*
X10540589Y2274917D01*
X10507772Y2258196D01*
X10473632Y2250000D01*
X10243168Y2250000D01*
X10209028Y2258196D01*
X10176211Y2274917D01*
X10130106Y2298409D01*
X10002800Y2318572D01*
X9875494Y2298409D01*
X9823715Y2272026D01*
X9792834Y2256291D01*
X9760649Y2239892D01*
X9669508Y2148751D01*
X9666820Y2143475D01*
X9666819Y2143474D01*
X9646584Y2103760D01*
X9610991Y2033906D01*
X9590828Y1906600D01*
X9610991Y1779294D01*
X9669508Y1664449D01*
X9760649Y1573308D01*
X9765925Y1570620D01*
X9765926Y1570619D01*
X9775702Y1565638D01*
X9875494Y1514791D01*
X9881341Y1513865D01*
X9977362Y1498657D01*
X10002800Y1494628D01*
X10028239Y1498657D01*
X10124259Y1513865D01*
X10130106Y1514791D01*
X10209027Y1555004D01*
X10243168Y1563200D01*
X10473632Y1563200D01*
X10507773Y1555004D01*
X10586694Y1514791D01*
X10592541Y1513865D01*
X10688562Y1498657D01*
X10714000Y1494628D01*
X10739439Y1498657D01*
X10835459Y1513865D01*
X10841306Y1514791D01*
X10920227Y1555004D01*
X10954368Y1563200D01*
X21770130Y1563200D01*
X21776684Y1562914D01*
X21812237Y1559803D01*
X21812239Y1559803D01*
X21818791Y1559230D01*
X21825147Y1560933D01*
X21859635Y1570173D01*
X21866037Y1571592D01*
X21880402Y1574125D01*
X21907661Y1578932D01*
X21913360Y1582222D01*
X21916560Y1583387D01*
X21926335Y1587435D01*
X21929415Y1588871D01*
X21935766Y1590573D01*
X21941154Y1594346D01*
X21941157Y1594347D01*
X21970400Y1614822D01*
X21975929Y1618345D01*
X22006841Y1636193D01*
X22006844Y1636195D01*
X22012538Y1639483D01*
X22016764Y1644519D01*
X22016766Y1644521D01*
X22039709Y1671864D01*
X22044141Y1676700D01*
X24962353Y4594912D01*
X25008973Y4616652D01*
X25058660Y4603338D01*
X25085446Y4569421D01*
X25108085Y4512242D01*
X25196526Y4395726D01*
X25200606Y4392629D01*
X25267963Y4341502D01*
X25313042Y4307285D01*
X25317809Y4305398D01*
X25317810Y4305397D01*
X25353297Y4291347D01*
X25449050Y4253436D01*
X25536116Y4242900D01*
X27397084Y4242900D01*
X27484150Y4253436D01*
X27579903Y4291347D01*
X27615390Y4305397D01*
X27615391Y4305398D01*
X27620158Y4307285D01*
X27621321Y4308168D01*
X27670634Y4316331D01*
X27714910Y4290145D01*
X27732000Y4242414D01*
X27732000Y3279186D01*
X27714407Y3230848D01*
X27669858Y3205128D01*
X27621334Y3213422D01*
X27620158Y3214315D01*
X27615391Y3216202D01*
X27615390Y3216203D01*
X27560142Y3238077D01*
X27484150Y3268164D01*
X27397084Y3278700D01*
X26015883Y3278700D01*
X25967545Y3296293D01*
X25962709Y3300726D01*
X25454461Y3808974D01*
X25433361Y3850382D01*
X25432335Y3856860D01*
X25431409Y3862706D01*
X25372892Y3977551D01*
X25281751Y4068692D01*
X25166906Y4127209D01*
X25103253Y4137290D01*
X25045447Y4146446D01*
X25039600Y4147372D01*
X25033753Y4146446D01*
X24975947Y4137290D01*
X24912294Y4127209D01*
X24797449Y4068692D01*
X24706308Y3977551D01*
X24647791Y3862706D01*
X24627628Y3735400D01*
X24628554Y3729553D01*
X24634026Y3695006D01*
X24647791Y3608094D01*
X24663917Y3576446D01*
X24688186Y3528816D01*
X24706308Y3493249D01*
X24797449Y3402108D01*
X24802725Y3399420D01*
X24802726Y3399419D01*
X24843001Y3378898D01*
X24912294Y3343591D01*
X25039600Y3323428D01*
X25166906Y3343591D01*
X25172180Y3346278D01*
X25172182Y3346279D01*
X25211543Y3366335D01*
X25262599Y3372605D01*
X25298860Y3352505D01*
X25322815Y3328549D01*
X25344553Y3281929D01*
X25331238Y3232242D01*
X25312399Y3215163D01*
X25313042Y3214315D01*
X25196526Y3125874D01*
X25193429Y3121794D01*
X25172586Y3094335D01*
X25108085Y3009358D01*
X25106198Y3004591D01*
X25106197Y3004590D01*
X25101696Y2993221D01*
X25054236Y2873350D01*
X25043700Y2786284D01*
X25043700Y2195316D01*
X25054236Y2108250D01*
X25108085Y1972242D01*
X25196526Y1855726D01*
X25313042Y1767285D01*
X25317809Y1765398D01*
X25317810Y1765397D01*
X25356333Y1750145D01*
X25449050Y1713436D01*
X25536116Y1702900D01*
X27397084Y1702900D01*
X27484150Y1713436D01*
X27576867Y1750145D01*
X27615390Y1765397D01*
X27615391Y1765398D01*
X27620158Y1767285D01*
X27621321Y1768168D01*
X27670634Y1776331D01*
X27714910Y1750145D01*
X27732000Y1702414D01*
X27732000Y1029962D01*
X27729439Y1010505D01*
X27726624Y1000000D01*
X27729186Y990437D01*
X27729186Y980535D01*
X27728490Y980535D01*
X27729214Y971711D01*
X27716440Y842011D01*
X27713564Y827554D01*
X27669629Y682718D01*
X27663991Y669107D01*
X27631073Y607522D01*
X27592645Y535629D01*
X27584456Y523373D01*
X27488440Y406378D01*
X27478022Y395960D01*
X27361028Y299945D01*
X27348772Y291755D01*
X27215293Y220409D01*
X27201682Y214771D01*
X27056847Y170836D01*
X27042390Y167960D01*
X26912688Y155186D01*
X26903865Y155910D01*
X26903865Y155214D01*
X26893963Y155214D01*
X26884400Y157776D01*
X26873895Y154961D01*
X26854438Y152400D01*
X1029962Y152400D01*
X1010505Y154961D01*
X1000000Y157776D01*
X990437Y155214D01*
X980535Y155214D01*
X980535Y155910D01*
X971712Y155186D01*
X842010Y167960D01*
X827553Y170836D01*
X682718Y214771D01*
X669107Y220409D01*
X535628Y291755D01*
X523372Y299945D01*
X406378Y395960D01*
X395960Y406378D01*
X299944Y523373D01*
X291755Y535629D01*
X253327Y607522D01*
X220409Y669107D01*
X214771Y682718D01*
X170836Y827554D01*
X167960Y842011D01*
X155186Y971711D01*
X155910Y980537D01*
X155214Y980537D01*
X155214Y990438D01*
X157776Y1000000D01*
X154894Y1010756D01*
X153581Y1030737D01*
X152400Y1030737D01*
X152400Y1896422D01*
X816219Y1896422D01*
X818366Y1862299D01*
X820124Y1853085D01*
X868138Y1705309D01*
X872134Y1696820D01*
X955385Y1565638D01*
X961373Y1558399D01*
X1074629Y1452045D01*
X1082230Y1446522D01*
X1218381Y1371672D01*
X1227110Y1368216D01*
X1377597Y1329578D01*
X1386917Y1328400D01*
X1675141Y1328400D01*
X1685298Y1332097D01*
X1688400Y1337469D01*
X1688400Y1341659D01*
X1840800Y1341659D01*
X1844497Y1331502D01*
X1849869Y1328400D01*
X2103274Y1328400D01*
X2107995Y1328697D01*
X2223443Y1343281D01*
X2232533Y1345615D01*
X2376995Y1402812D01*
X2385222Y1407335D01*
X2510916Y1498657D01*
X2517766Y1505090D01*
X2616805Y1624807D01*
X2621829Y1632724D01*
X2687985Y1773313D01*
X2690887Y1782244D01*
X2711743Y1891574D01*
X2710958Y1896422D01*
X4746219Y1896422D01*
X4748366Y1862299D01*
X4750124Y1853085D01*
X4798138Y1705309D01*
X4802134Y1696820D01*
X4885385Y1565638D01*
X4891373Y1558399D01*
X5004629Y1452045D01*
X5012230Y1446522D01*
X5148381Y1371672D01*
X5157110Y1368216D01*
X5307597Y1329578D01*
X5316917Y1328400D01*
X5855141Y1328400D01*
X5865298Y1332097D01*
X5868400Y1337469D01*
X5868400Y1341659D01*
X6020800Y1341659D01*
X6024497Y1331502D01*
X6029869Y1328400D01*
X6533274Y1328400D01*
X6537995Y1328697D01*
X6653443Y1343281D01*
X6662533Y1345615D01*
X6806995Y1402812D01*
X6815222Y1407335D01*
X6940916Y1498657D01*
X6947766Y1505090D01*
X7046805Y1624807D01*
X7051829Y1632724D01*
X7117985Y1773313D01*
X7120887Y1782244D01*
X7141743Y1891574D01*
X7140015Y1902246D01*
X7137288Y1904600D01*
X6034059Y1904600D01*
X6023902Y1900903D01*
X6020800Y1895531D01*
X6020800Y1341659D01*
X5868400Y1341659D01*
X5868400Y1891341D01*
X5864703Y1901498D01*
X5859331Y1904600D01*
X4758964Y1904600D01*
X4748807Y1900903D01*
X4746219Y1896422D01*
X2710958Y1896422D01*
X2710015Y1902246D01*
X2707288Y1904600D01*
X1854059Y1904600D01*
X1843902Y1900903D01*
X1840800Y1895531D01*
X1840800Y1341659D01*
X1688400Y1341659D01*
X1688400Y1891341D01*
X1684703Y1901498D01*
X1679331Y1904600D01*
X828964Y1904600D01*
X818807Y1900903D01*
X816219Y1896422D01*
X152400Y1896422D01*
X152400Y2070026D01*
X817457Y2070026D01*
X819185Y2059354D01*
X821912Y2057000D01*
X1675141Y2057000D01*
X1685298Y2060697D01*
X1688400Y2066069D01*
X1688400Y2070259D01*
X1840800Y2070259D01*
X1844497Y2060102D01*
X1849869Y2057000D01*
X2700236Y2057000D01*
X2710393Y2060697D01*
X2712981Y2065178D01*
X2712676Y2070026D01*
X4747457Y2070026D01*
X4749185Y2059354D01*
X4751912Y2057000D01*
X5855141Y2057000D01*
X5865298Y2060697D01*
X5868400Y2066069D01*
X5868400Y2070259D01*
X6020800Y2070259D01*
X6024497Y2060102D01*
X6029869Y2057000D01*
X7130236Y2057000D01*
X7140393Y2060697D01*
X7142981Y2065178D01*
X7140834Y2099301D01*
X7139076Y2108515D01*
X7091062Y2256291D01*
X7087066Y2264780D01*
X7003815Y2395962D01*
X6997827Y2403201D01*
X6884571Y2509555D01*
X6876970Y2515078D01*
X6740819Y2589928D01*
X6732090Y2593384D01*
X6581603Y2632022D01*
X6572283Y2633200D01*
X6034059Y2633200D01*
X6023902Y2629503D01*
X6020800Y2624131D01*
X6020800Y2070259D01*
X5868400Y2070259D01*
X5868400Y2619941D01*
X5864703Y2630098D01*
X5859331Y2633200D01*
X5355926Y2633200D01*
X5351205Y2632903D01*
X5235757Y2618319D01*
X5226667Y2615985D01*
X5082205Y2558788D01*
X5073978Y2554265D01*
X4948284Y2462943D01*
X4941434Y2456510D01*
X4842395Y2336793D01*
X4837371Y2328876D01*
X4771215Y2188287D01*
X4768313Y2179356D01*
X4747457Y2070026D01*
X2712676Y2070026D01*
X2710834Y2099301D01*
X2709076Y2108515D01*
X2661062Y2256291D01*
X2657066Y2264780D01*
X2573815Y2395962D01*
X2567827Y2403201D01*
X2454571Y2509555D01*
X2446970Y2515078D01*
X2310819Y2589928D01*
X2302090Y2593384D01*
X2151603Y2632022D01*
X2142283Y2633200D01*
X1854059Y2633200D01*
X1843902Y2629503D01*
X1840800Y2624131D01*
X1840800Y2070259D01*
X1688400Y2070259D01*
X1688400Y2619941D01*
X1684703Y2630098D01*
X1679331Y2633200D01*
X1425926Y2633200D01*
X1421205Y2632903D01*
X1305757Y2618319D01*
X1296667Y2615985D01*
X1152205Y2558788D01*
X1143978Y2554265D01*
X1018284Y2462943D01*
X1011434Y2456510D01*
X912395Y2336793D01*
X907371Y2328876D01*
X841215Y2188287D01*
X838313Y2179356D01*
X817457Y2070026D01*
X152400Y2070026D01*
X152400Y3345275D01*
X4936253Y3345275D01*
X4973871Y3213652D01*
X5046919Y3097879D01*
X5149524Y3007261D01*
X5154371Y3004985D01*
X5154373Y3004984D01*
X5179428Y2993221D01*
X5273439Y2949083D01*
X5319490Y2941913D01*
X5374506Y2933346D01*
X5374511Y2933346D01*
X5377373Y2932900D01*
X5448912Y2932900D01*
X5487581Y2938438D01*
X5544807Y2946633D01*
X5544811Y2946634D01*
X5550110Y2947393D01*
X5554984Y2949609D01*
X5554987Y2949610D01*
X5650904Y2993221D01*
X5674726Y3004052D01*
X5721259Y3044147D01*
X5774377Y3089916D01*
X5774380Y3089919D01*
X5778431Y3093410D01*
X5784902Y3103393D01*
X5849976Y3203790D01*
X5849977Y3203791D01*
X5852888Y3208283D01*
X5869999Y3265499D01*
X5890576Y3334302D01*
X5890576Y3334305D01*
X5892111Y3339436D01*
X5892180Y3350629D01*
X5892671Y3431100D01*
X5892947Y3476325D01*
X5855329Y3607948D01*
X5782281Y3723721D01*
X5679676Y3814339D01*
X5674829Y3816615D01*
X5674827Y3816616D01*
X5589109Y3856860D01*
X5555761Y3872517D01*
X5509710Y3879687D01*
X5454694Y3888254D01*
X5454689Y3888254D01*
X5451827Y3888700D01*
X5380288Y3888700D01*
X5341619Y3883162D01*
X5284393Y3874967D01*
X5284389Y3874966D01*
X5279090Y3874207D01*
X5274216Y3871991D01*
X5274213Y3871990D01*
X5226689Y3850382D01*
X5154474Y3817548D01*
X5118093Y3786200D01*
X5054823Y3731684D01*
X5054820Y3731681D01*
X5050769Y3728190D01*
X5047858Y3723699D01*
X4989104Y3633052D01*
X4976312Y3613317D01*
X4973338Y3603372D01*
X4938712Y3487590D01*
X4937089Y3482164D01*
X4937056Y3476809D01*
X4937056Y3476807D01*
X4936852Y3443301D01*
X4936253Y3345275D01*
X152400Y3345275D01*
X152400Y5690857D01*
X4079700Y5690857D01*
X4079701Y5010744D01*
X4088572Y4966142D01*
X4122366Y4915566D01*
X4128523Y4911452D01*
X4166783Y4885887D01*
X4166784Y4885886D01*
X4172942Y4881772D01*
X4217543Y4872900D01*
X4762526Y4872900D01*
X5307656Y4872901D01*
X5352258Y4881772D01*
X5402834Y4915566D01*
X5406758Y4921438D01*
X5445060Y4940955D01*
X5445033Y4941037D01*
X5445553Y4941206D01*
X5447975Y4942440D01*
X5448616Y4942541D01*
X5450661Y4942865D01*
X5450663Y4942866D01*
X5456506Y4943791D01*
X5484615Y4958113D01*
X5566074Y4999619D01*
X5566075Y4999620D01*
X5571351Y5002308D01*
X5662492Y5093449D01*
X5684546Y5136731D01*
X5718322Y5203021D01*
X5721009Y5208294D01*
X5741172Y5335600D01*
X5721009Y5462906D01*
X5674878Y5553442D01*
X5665181Y5572474D01*
X5665180Y5572475D01*
X5662492Y5577751D01*
X5571351Y5668892D01*
X5543738Y5682962D01*
X5456506Y5727409D01*
X5457278Y5728924D01*
X5424328Y5753866D01*
X5422767Y5756203D01*
X5403879Y5784470D01*
X5391652Y5834436D01*
X5403879Y5868029D01*
X5432042Y5910177D01*
X5437603Y5923602D01*
X5444279Y5957163D01*
X5445000Y5964484D01*
X5445000Y6211341D01*
X5441303Y6221498D01*
X5435931Y6224600D01*
X4093459Y6224600D01*
X4083302Y6220903D01*
X4080200Y6215531D01*
X4080200Y5964484D01*
X4080921Y5957163D01*
X4087597Y5923602D01*
X4093158Y5910177D01*
X4121321Y5868029D01*
X4133548Y5818064D01*
X4121321Y5784470D01*
X4088572Y5735458D01*
X4087127Y5728194D01*
X4084827Y5716629D01*
X4079700Y5690857D01*
X152400Y5690857D01*
X152400Y7590857D01*
X4079700Y7590857D01*
X4079701Y6910744D01*
X4088572Y6866142D01*
X4092688Y6859982D01*
X4121321Y6817130D01*
X4133548Y6767164D01*
X4121321Y6733571D01*
X4093158Y6691423D01*
X4087597Y6677998D01*
X4080921Y6644437D01*
X4080200Y6637116D01*
X4080200Y6390259D01*
X4083897Y6380102D01*
X4089269Y6377000D01*
X5431741Y6377000D01*
X5441898Y6380697D01*
X5445000Y6386069D01*
X5445000Y6637116D01*
X5444279Y6644437D01*
X5437603Y6677998D01*
X5432042Y6691423D01*
X5403879Y6733571D01*
X5391652Y6783536D01*
X5403879Y6817130D01*
X5417171Y6837023D01*
X5424328Y6847734D01*
X5457278Y6872676D01*
X5456506Y6874191D01*
X5566074Y6930019D01*
X5566075Y6930020D01*
X5571351Y6932708D01*
X5662492Y7023849D01*
X5721009Y7138694D01*
X5741172Y7266000D01*
X5740055Y7273056D01*
X5725702Y7363673D01*
X5721009Y7393306D01*
X5662492Y7508151D01*
X5579786Y7590857D01*
X6279700Y7590857D01*
X6279701Y6910744D01*
X6288572Y6866142D01*
X6322366Y6815566D01*
X6328523Y6811452D01*
X6366783Y6785887D01*
X6366784Y6785886D01*
X6372942Y6781772D01*
X6380206Y6780327D01*
X6406353Y6775126D01*
X6417543Y6772900D01*
X6962526Y6772900D01*
X7507656Y6772901D01*
X7552258Y6781772D01*
X7602834Y6815566D01*
X7608201Y6823598D01*
X7632513Y6859983D01*
X7632514Y6859984D01*
X7636628Y6866142D01*
X7645426Y6910371D01*
X7672112Y6954348D01*
X7719181Y6970900D01*
X7937322Y6970900D01*
X7985660Y6953307D01*
X8011380Y6908758D01*
X7999848Y6853920D01*
X7988558Y6837023D01*
X7982997Y6823598D01*
X7976321Y6790037D01*
X7975600Y6782716D01*
X7975600Y6560859D01*
X7979297Y6550702D01*
X7984669Y6547600D01*
X8338541Y6547600D01*
X8348698Y6551297D01*
X8351800Y6556669D01*
X8351800Y6560859D01*
X8504200Y6560859D01*
X8507897Y6550702D01*
X8513269Y6547600D01*
X8867141Y6547600D01*
X8877298Y6551297D01*
X8880400Y6556669D01*
X8880400Y6560859D01*
X9067800Y6560859D01*
X9071497Y6550702D01*
X9076869Y6547600D01*
X9430741Y6547600D01*
X9440898Y6551297D01*
X9444000Y6556669D01*
X9444000Y6560859D01*
X9596400Y6560859D01*
X9600097Y6550702D01*
X9605469Y6547600D01*
X9959341Y6547600D01*
X9969498Y6551297D01*
X9972600Y6556669D01*
X9972600Y6782716D01*
X9971879Y6790037D01*
X9965203Y6823598D01*
X9959642Y6837023D01*
X9934186Y6875120D01*
X9923920Y6885386D01*
X9885823Y6910842D01*
X9872398Y6916403D01*
X9838837Y6923079D01*
X9831516Y6923800D01*
X9609659Y6923800D01*
X9599502Y6920103D01*
X9596400Y6914731D01*
X9596400Y6560859D01*
X9444000Y6560859D01*
X9444000Y6910541D01*
X9440303Y6920698D01*
X9434931Y6923800D01*
X9208884Y6923800D01*
X9201563Y6923079D01*
X9168002Y6916403D01*
X9154577Y6910842D01*
X9116480Y6885386D01*
X9106214Y6875120D01*
X9080758Y6837023D01*
X9075197Y6823598D01*
X9068521Y6790037D01*
X9067800Y6782716D01*
X9067800Y6560859D01*
X8880400Y6560859D01*
X8880400Y6782716D01*
X8879679Y6790037D01*
X8873003Y6823598D01*
X8867442Y6837023D01*
X8841986Y6875120D01*
X8831720Y6885386D01*
X8793623Y6910842D01*
X8780198Y6916403D01*
X8746637Y6923079D01*
X8739316Y6923800D01*
X8517459Y6923800D01*
X8507302Y6920103D01*
X8504200Y6914731D01*
X8504200Y6560859D01*
X8351800Y6560859D01*
X8351800Y6910541D01*
X8348104Y6920697D01*
X8346048Y6921884D01*
X8312983Y6961289D01*
X8312982Y7012729D01*
X8330744Y7039162D01*
X8331871Y7039857D01*
X8349023Y7062413D01*
X8355708Y7070070D01*
X8432314Y7146675D01*
X8478934Y7168414D01*
X8485488Y7168700D01*
X8786976Y7168701D01*
X8826456Y7168701D01*
X8871058Y7177572D01*
X8920070Y7210321D01*
X8970036Y7222548D01*
X9003629Y7210321D01*
X9045777Y7182158D01*
X9059202Y7176597D01*
X9092763Y7169921D01*
X9100084Y7169200D01*
X9321941Y7169200D01*
X9332098Y7172897D01*
X9335200Y7178269D01*
X9335200Y7182459D01*
X9487600Y7182459D01*
X9491297Y7172302D01*
X9496669Y7169200D01*
X9722716Y7169200D01*
X9730037Y7169921D01*
X9763598Y7176597D01*
X9777023Y7182158D01*
X9815120Y7207614D01*
X9825386Y7217880D01*
X9850842Y7255977D01*
X9856403Y7269402D01*
X9863079Y7302963D01*
X9863800Y7310284D01*
X9863800Y7532141D01*
X9860103Y7542298D01*
X9854731Y7545400D01*
X9500859Y7545400D01*
X9490702Y7541703D01*
X9487600Y7536331D01*
X9487600Y7182459D01*
X9335200Y7182459D01*
X9335200Y7711059D01*
X9487600Y7711059D01*
X9491297Y7700902D01*
X9496669Y7697800D01*
X9850541Y7697800D01*
X9860698Y7701497D01*
X9863800Y7706869D01*
X9863800Y7932916D01*
X9863079Y7940237D01*
X9856403Y7973798D01*
X9850842Y7987223D01*
X9825386Y8025320D01*
X9815120Y8035586D01*
X9777023Y8061042D01*
X9763598Y8066603D01*
X9730037Y8073279D01*
X9722716Y8074000D01*
X9500859Y8074000D01*
X9490702Y8070303D01*
X9487600Y8064931D01*
X9487600Y7711059D01*
X9335200Y7711059D01*
X9335200Y8060741D01*
X9331503Y8070898D01*
X9326131Y8074000D01*
X9100084Y8074000D01*
X9092763Y8073279D01*
X9059202Y8066603D01*
X9045777Y8061042D01*
X9003629Y8032879D01*
X8953664Y8020652D01*
X8920070Y8032879D01*
X8877217Y8061513D01*
X8877216Y8061514D01*
X8871058Y8065628D01*
X8844565Y8070898D01*
X8830082Y8073779D01*
X8830081Y8073779D01*
X8826457Y8074500D01*
X8511443Y8074500D01*
X8196344Y8074499D01*
X8151742Y8065628D01*
X8101166Y8031834D01*
X8097052Y8025677D01*
X8073146Y7989899D01*
X8067372Y7981258D01*
X8065927Y7973994D01*
X8061821Y7953350D01*
X8058500Y7936657D01*
X8058501Y7754029D01*
X8058501Y7605900D01*
X8040908Y7557563D01*
X7996360Y7531842D01*
X7983301Y7530700D01*
X7719179Y7530700D01*
X7670841Y7548293D01*
X7645424Y7591231D01*
X7644778Y7594482D01*
X7636628Y7635458D01*
X7602834Y7686034D01*
X7579692Y7701497D01*
X7558417Y7715713D01*
X7558416Y7715714D01*
X7552258Y7719828D01*
X7507657Y7728700D01*
X6962674Y7728700D01*
X6417544Y7728699D01*
X6372942Y7719828D01*
X6322366Y7686034D01*
X6318252Y7679877D01*
X6303507Y7657809D01*
X6288572Y7635458D01*
X6279700Y7590857D01*
X5579786Y7590857D01*
X5571351Y7599292D01*
X5566074Y7601981D01*
X5461778Y7655123D01*
X5461777Y7655123D01*
X5456506Y7657809D01*
X5450663Y7658734D01*
X5450661Y7658735D01*
X5448616Y7659059D01*
X5447975Y7659160D01*
X5445553Y7660394D01*
X5445033Y7660563D01*
X5445060Y7660645D01*
X5406758Y7680162D01*
X5402834Y7686034D01*
X5379692Y7701497D01*
X5358417Y7715713D01*
X5358416Y7715714D01*
X5352258Y7719828D01*
X5307657Y7728700D01*
X4762674Y7728700D01*
X4217544Y7728699D01*
X4172942Y7719828D01*
X4122366Y7686034D01*
X4118252Y7679877D01*
X4103507Y7657809D01*
X4088572Y7635458D01*
X4079700Y7590857D01*
X152400Y7590857D01*
X152400Y9125275D01*
X4936253Y9125275D01*
X4973871Y8993652D01*
X5046919Y8877879D01*
X5149524Y8787261D01*
X5154371Y8784985D01*
X5154373Y8784984D01*
X5161085Y8781833D01*
X5273439Y8729083D01*
X5319490Y8721913D01*
X5374506Y8713346D01*
X5374511Y8713346D01*
X5377373Y8712900D01*
X5448912Y8712900D01*
X5487581Y8718438D01*
X5544807Y8726633D01*
X5544811Y8726634D01*
X5550110Y8727393D01*
X5554984Y8729609D01*
X5554987Y8729610D01*
X5665763Y8779977D01*
X5674726Y8784052D01*
X5724527Y8826963D01*
X5774377Y8869916D01*
X5774380Y8869919D01*
X5778431Y8873410D01*
X5852888Y8988283D01*
X5874435Y9060331D01*
X5890576Y9114302D01*
X5890576Y9114305D01*
X5892111Y9119436D01*
X5892180Y9130629D01*
X5892776Y9228359D01*
X5892947Y9256325D01*
X5855329Y9387948D01*
X5782281Y9503721D01*
X5679676Y9594339D01*
X5674829Y9596615D01*
X5674827Y9596616D01*
X5621783Y9621520D01*
X5555761Y9652517D01*
X5509710Y9659687D01*
X5454694Y9668254D01*
X5454689Y9668254D01*
X5451827Y9668700D01*
X5380288Y9668700D01*
X5341619Y9663162D01*
X5284393Y9654967D01*
X5284389Y9654966D01*
X5279090Y9654207D01*
X5274216Y9651991D01*
X5274213Y9651990D01*
X5200948Y9618678D01*
X5154474Y9597548D01*
X5127185Y9574034D01*
X5054823Y9511684D01*
X5054820Y9511681D01*
X5050769Y9508190D01*
X5047858Y9503699D01*
X4995915Y9423560D01*
X4976312Y9393317D01*
X4973167Y9382800D01*
X4939193Y9269198D01*
X4937089Y9262164D01*
X4937056Y9256809D01*
X4937056Y9256807D01*
X4936882Y9228316D01*
X4936253Y9125275D01*
X152400Y9125275D01*
X152400Y10536422D01*
X816219Y10536422D01*
X818366Y10502299D01*
X820124Y10493085D01*
X868138Y10345309D01*
X872134Y10336820D01*
X955385Y10205638D01*
X961373Y10198399D01*
X1074629Y10092045D01*
X1082230Y10086522D01*
X1218381Y10011672D01*
X1227110Y10008216D01*
X1377597Y9969578D01*
X1386917Y9968400D01*
X1675141Y9968400D01*
X1685298Y9972097D01*
X1688400Y9977469D01*
X1688400Y9981659D01*
X1840800Y9981659D01*
X1844497Y9971502D01*
X1849869Y9968400D01*
X2103274Y9968400D01*
X2107995Y9968697D01*
X2223443Y9983281D01*
X2232533Y9985615D01*
X2376995Y10042812D01*
X2385222Y10047335D01*
X2510916Y10138657D01*
X2517766Y10145090D01*
X2616805Y10264807D01*
X2621829Y10272724D01*
X2687985Y10413313D01*
X2690887Y10422244D01*
X2711743Y10531574D01*
X2710958Y10536422D01*
X4746219Y10536422D01*
X4748366Y10502299D01*
X4750124Y10493085D01*
X4798138Y10345309D01*
X4802134Y10336820D01*
X4885385Y10205638D01*
X4891373Y10198399D01*
X5004629Y10092045D01*
X5012230Y10086522D01*
X5148381Y10011672D01*
X5157110Y10008216D01*
X5307597Y9969578D01*
X5316917Y9968400D01*
X5855141Y9968400D01*
X5865298Y9972097D01*
X5868400Y9977469D01*
X5868400Y9981659D01*
X6020800Y9981659D01*
X6024497Y9971502D01*
X6029869Y9968400D01*
X6533274Y9968400D01*
X6537995Y9968697D01*
X6653443Y9983281D01*
X6662533Y9985615D01*
X6806995Y10042812D01*
X6815222Y10047335D01*
X6940916Y10138657D01*
X6947766Y10145090D01*
X7046805Y10264807D01*
X7051829Y10272724D01*
X7117985Y10413313D01*
X7120887Y10422244D01*
X7141743Y10531574D01*
X7140015Y10542246D01*
X7137288Y10544600D01*
X6034059Y10544600D01*
X6023902Y10540903D01*
X6020800Y10535531D01*
X6020800Y9981659D01*
X5868400Y9981659D01*
X5868400Y10531341D01*
X5864703Y10541498D01*
X5859331Y10544600D01*
X4758964Y10544600D01*
X4748807Y10540903D01*
X4746219Y10536422D01*
X2710958Y10536422D01*
X2710015Y10542246D01*
X2707288Y10544600D01*
X1854059Y10544600D01*
X1843902Y10540903D01*
X1840800Y10535531D01*
X1840800Y9981659D01*
X1688400Y9981659D01*
X1688400Y10531341D01*
X1684703Y10541498D01*
X1679331Y10544600D01*
X828964Y10544600D01*
X818807Y10540903D01*
X816219Y10536422D01*
X152400Y10536422D01*
X152400Y10710026D01*
X817457Y10710026D01*
X819185Y10699354D01*
X821912Y10697000D01*
X1675141Y10697000D01*
X1685298Y10700697D01*
X1688400Y10706069D01*
X1688400Y10710259D01*
X1840800Y10710259D01*
X1844497Y10700102D01*
X1849869Y10697000D01*
X2700236Y10697000D01*
X2710393Y10700697D01*
X2712981Y10705178D01*
X2712676Y10710026D01*
X4747457Y10710026D01*
X4749185Y10699354D01*
X4751912Y10697000D01*
X5855141Y10697000D01*
X5865298Y10700697D01*
X5868400Y10706069D01*
X5868400Y10710259D01*
X6020800Y10710259D01*
X6024497Y10700102D01*
X6029869Y10697000D01*
X7130236Y10697000D01*
X7140393Y10700697D01*
X7142981Y10705178D01*
X7140834Y10739301D01*
X7139076Y10748515D01*
X7091062Y10896291D01*
X7087066Y10904780D01*
X7003815Y11035962D01*
X6997827Y11043201D01*
X6884571Y11149555D01*
X6876970Y11155078D01*
X6740819Y11229928D01*
X6732090Y11233384D01*
X6581603Y11272022D01*
X6572283Y11273200D01*
X6034059Y11273200D01*
X6023902Y11269503D01*
X6020800Y11264131D01*
X6020800Y10710259D01*
X5868400Y10710259D01*
X5868400Y11259941D01*
X5864703Y11270098D01*
X5859331Y11273200D01*
X5355926Y11273200D01*
X5351205Y11272903D01*
X5235757Y11258319D01*
X5226667Y11255985D01*
X5082205Y11198788D01*
X5073978Y11194265D01*
X4948284Y11102943D01*
X4941434Y11096510D01*
X4842395Y10976793D01*
X4837371Y10968876D01*
X4771215Y10828287D01*
X4768313Y10819356D01*
X4747457Y10710026D01*
X2712676Y10710026D01*
X2710834Y10739301D01*
X2709076Y10748515D01*
X2661062Y10896291D01*
X2657066Y10904780D01*
X2573815Y11035962D01*
X2567827Y11043201D01*
X2454571Y11149555D01*
X2446970Y11155078D01*
X2310819Y11229928D01*
X2302090Y11233384D01*
X2151603Y11272022D01*
X2142283Y11273200D01*
X1854059Y11273200D01*
X1843902Y11269503D01*
X1840800Y11264131D01*
X1840800Y10710259D01*
X1688400Y10710259D01*
X1688400Y11259941D01*
X1684703Y11270098D01*
X1679331Y11273200D01*
X1425926Y11273200D01*
X1421205Y11272903D01*
X1305757Y11258319D01*
X1296667Y11255985D01*
X1152205Y11198788D01*
X1143978Y11194265D01*
X1018284Y11102943D01*
X1011434Y11096510D01*
X912395Y10976793D01*
X907371Y10968876D01*
X841215Y10828287D01*
X838313Y10819356D01*
X817457Y10710026D01*
X152400Y10710026D01*
X152400Y11470038D01*
X154961Y11489495D01*
X157776Y11500000D01*
X155214Y11509563D01*
X155214Y11519465D01*
X155910Y11519465D01*
X155186Y11528289D01*
X161006Y11587376D01*
X167960Y11657990D01*
X170836Y11672447D01*
X174826Y11685600D01*
X214771Y11817282D01*
X220409Y11830893D01*
X291755Y11964372D01*
X299945Y11976628D01*
X300033Y11976735D01*
X395960Y12093622D01*
X406378Y12104040D01*
X523373Y12200056D01*
X535629Y12208245D01*
X601732Y12243578D01*
X669107Y12279591D01*
X682718Y12285229D01*
X827554Y12329164D01*
X842010Y12332040D01*
X971712Y12344814D01*
X980535Y12344090D01*
X980535Y12344786D01*
X990437Y12344786D01*
X1000000Y12342224D01*
X1010505Y12345039D01*
X1029962Y12347600D01*
X26854438Y12347600D01*
X26873895Y12345039D01*
G37*
%TD.AperFunction*%
%TA.AperFunction,Conductor*%
G36*
X23648449Y8401915D02*
G01*
X24627170Y7423194D01*
X24629881Y7420338D01*
X24649473Y7398579D01*
X24655561Y7391817D01*
X24676622Y7382440D01*
X24686986Y7376813D01*
X24695785Y7371099D01*
X24706317Y7364259D01*
X24714126Y7363022D01*
X24714590Y7362844D01*
X24731893Y7357719D01*
X24732382Y7357615D01*
X24739603Y7354400D01*
X24762648Y7354400D01*
X24774412Y7353474D01*
X24789373Y7351104D01*
X24789375Y7351104D01*
X24797179Y7349868D01*
X24804814Y7351914D01*
X24805294Y7351939D01*
X24823994Y7354400D01*
X24968500Y7354400D01*
X25016838Y7336807D01*
X25042558Y7292258D01*
X25043700Y7279200D01*
X25043700Y7275316D01*
X25054236Y7188250D01*
X25108085Y7052242D01*
X25111185Y7048158D01*
X25177123Y6961289D01*
X25196526Y6935726D01*
X25200606Y6932629D01*
X25216326Y6920697D01*
X25313042Y6847285D01*
X25317809Y6845398D01*
X25317810Y6845397D01*
X25338961Y6837023D01*
X25449050Y6793436D01*
X25536116Y6782900D01*
X27397084Y6782900D01*
X27484150Y6793436D01*
X27594239Y6837023D01*
X27615390Y6845397D01*
X27615391Y6845398D01*
X27620158Y6847285D01*
X27621321Y6848168D01*
X27670634Y6856331D01*
X27714910Y6830145D01*
X27732000Y6782414D01*
X27732000Y5819186D01*
X27714407Y5770848D01*
X27669858Y5745128D01*
X27621334Y5753422D01*
X27620158Y5754315D01*
X27615391Y5756202D01*
X27615390Y5756203D01*
X27555595Y5779877D01*
X27484150Y5808164D01*
X27397084Y5818700D01*
X25536116Y5818700D01*
X25533862Y5818427D01*
X25533858Y5818427D01*
X25530860Y5818064D01*
X25524812Y5817332D01*
X25474711Y5828990D01*
X25443826Y5870126D01*
X25446607Y5921490D01*
X25462604Y5945161D01*
X25499892Y5982449D01*
X25558409Y6097294D01*
X25578572Y6224600D01*
X25558409Y6351906D01*
X25511876Y6443232D01*
X25502581Y6461474D01*
X25502580Y6461475D01*
X25499892Y6466751D01*
X25408751Y6557892D01*
X25293906Y6616409D01*
X25166600Y6636572D01*
X25039294Y6616409D01*
X24924449Y6557892D01*
X24833308Y6466751D01*
X24832172Y6467887D01*
X24795611Y6443232D01*
X24777427Y6441000D01*
X23915784Y6441000D01*
X23867446Y6458593D01*
X23862610Y6463026D01*
X23592065Y6733571D01*
X23316474Y7009161D01*
X23294734Y7055781D01*
X23308048Y7105468D01*
X23350185Y7134973D01*
X23357884Y7136609D01*
X23465106Y7153591D01*
X23526886Y7185070D01*
X23574674Y7209419D01*
X23574675Y7209420D01*
X23579951Y7212108D01*
X23671092Y7303249D01*
X23729609Y7418094D01*
X23749772Y7545400D01*
X23729609Y7672706D01*
X23691074Y7748335D01*
X23673781Y7782274D01*
X23673780Y7782275D01*
X23671092Y7787551D01*
X23579951Y7878692D01*
X23581087Y7879828D01*
X23556432Y7916389D01*
X23554200Y7934573D01*
X23554200Y8198161D01*
X23554303Y8202097D01*
X23555897Y8232517D01*
X23556311Y8240409D01*
X23553478Y8247789D01*
X23548053Y8261923D01*
X23544702Y8273236D01*
X23541552Y8288052D01*
X23541551Y8288054D01*
X23539908Y8295784D01*
X23535265Y8302175D01*
X23535068Y8302617D01*
X23526063Y8319204D01*
X23525065Y8321804D01*
X23524176Y8373236D01*
X23556555Y8413207D01*
X23607052Y8423013D01*
X23648449Y8401915D01*
G37*
%TD.AperFunction*%
%TA.AperFunction,Conductor*%
G36*
X25016838Y9876807D02*
G01*
X25042558Y9832258D01*
X25043700Y9819200D01*
X25043700Y9815316D01*
X25054236Y9728250D01*
X25083894Y9653341D01*
X25106091Y9597279D01*
X25108085Y9592242D01*
X25111185Y9588158D01*
X25175277Y9503721D01*
X25196526Y9475726D01*
X25200606Y9472629D01*
X25221307Y9456916D01*
X25313042Y9387285D01*
X25317809Y9385398D01*
X25317810Y9385397D01*
X25356333Y9370145D01*
X25449050Y9333436D01*
X25536116Y9322900D01*
X27397084Y9322900D01*
X27484150Y9333436D01*
X27576867Y9370145D01*
X27615390Y9385397D01*
X27615391Y9385398D01*
X27620158Y9387285D01*
X27621321Y9388168D01*
X27670634Y9396331D01*
X27714910Y9370145D01*
X27732000Y9322414D01*
X27732000Y8359186D01*
X27714407Y8310848D01*
X27669858Y8285128D01*
X27621334Y8293422D01*
X27620158Y8294315D01*
X27615391Y8296202D01*
X27615390Y8296203D01*
X27539390Y8326293D01*
X27484150Y8348164D01*
X27397084Y8358700D01*
X25536116Y8358700D01*
X25449050Y8348164D01*
X25393810Y8326293D01*
X25317810Y8296203D01*
X25317809Y8296202D01*
X25313042Y8294315D01*
X25196526Y8205874D01*
X25193429Y8201794D01*
X25190671Y8198161D01*
X25108085Y8089358D01*
X25106198Y8084591D01*
X25106197Y8084590D01*
X25099262Y8067073D01*
X25054236Y7953350D01*
X25043700Y7866284D01*
X25043700Y7862400D01*
X25043584Y7862080D01*
X25043564Y7861756D01*
X25043468Y7861762D01*
X25026107Y7814062D01*
X24981558Y7788342D01*
X24968500Y7787200D01*
X24906384Y7787200D01*
X24858046Y7804793D01*
X24853210Y7809226D01*
X22896409Y9766027D01*
X22874669Y9812646D01*
X22887983Y9862333D01*
X22930120Y9891838D01*
X22949583Y9894400D01*
X24968500Y9894400D01*
X25016838Y9876807D01*
G37*
%TD.AperFunction*%
%TD*%
M02*
