%TF.GenerationSoftware,KiCad,Pcbnew,(6.0.2)*%
%TF.CreationDate,2022-04-18T15:37:34+08:00*%
%TF.ProjectId,ST-Link-Hulk,53542d4c-696e-46b2-9d48-756c6b2e6b69,V0.1*%
%TF.SameCoordinates,Original*%
%TF.FileFunction,Soldermask,Top*%
%TF.FilePolarity,Negative*%
%FSLAX46Y46*%
G04 Gerber Fmt 4.6, Leading zero omitted, Abs format (unit mm)*
G04 Created by KiCad (PCBNEW (6.0.2)) date 2022-04-18 15:37:34*
%MOMM*%
%LPD*%
G01*
G04 APERTURE LIST*
G04 Aperture macros list*
%AMRoundRect*
0 Rectangle with rounded corners*
0 $1 Rounding radius*
0 $2 $3 $4 $5 $6 $7 $8 $9 X,Y pos of 4 corners*
0 Add a 4 corners polygon primitive as box body*
4,1,4,$2,$3,$4,$5,$6,$7,$8,$9,$2,$3,0*
0 Add four circle primitives for the rounded corners*
1,1,$1+$1,$2,$3*
1,1,$1+$1,$4,$5*
1,1,$1+$1,$6,$7*
1,1,$1+$1,$8,$9*
0 Add four rect primitives between the rounded corners*
20,1,$1+$1,$2,$3,$4,$5,0*
20,1,$1+$1,$4,$5,$6,$7,0*
20,1,$1+$1,$6,$7,$8,$9,0*
20,1,$1+$1,$8,$9,$2,$3,0*%
G04 Aperture macros list end*
%ADD10R,0.600000X0.600000*%
%ADD11RoundRect,0.147500X-0.147500X-0.172500X0.147500X-0.172500X0.147500X0.172500X-0.147500X0.172500X0*%
%ADD12RoundRect,0.147500X-0.172500X0.147500X-0.172500X-0.147500X0.172500X-0.147500X0.172500X0.147500X0*%
%ADD13RoundRect,0.317500X-0.952500X-0.317500X0.952500X-0.317500X0.952500X0.317500X-0.952500X0.317500X0*%
%ADD14RoundRect,0.381000X-0.889000X-0.254000X0.889000X-0.254000X0.889000X0.254000X-0.889000X0.254000X0*%
%ADD15C,0.650000*%
%ADD16R,1.450000X0.600000*%
%ADD17R,1.450000X0.300000*%
%ADD18O,2.100000X1.000000*%
%ADD19O,1.600000X1.000000*%
%ADD20R,1.500000X0.300000*%
%ADD21R,0.300000X1.500000*%
G04 APERTURE END LIST*
D10*
%TO.C,C1*%
X22067800Y4860200D03*
X22067800Y5760200D03*
%TD*%
D11*
%TO.C,D1*%
X8873300Y7164400D03*
X9843300Y7164400D03*
%TD*%
D12*
%TO.C,D2*%
X22067800Y9630600D03*
X22067800Y8660600D03*
%TD*%
D13*
%TO.C,J1*%
X26466600Y10110800D03*
D14*
X26466600Y7570800D03*
X26466600Y5030800D03*
X26466600Y2490800D03*
%TD*%
D10*
%TO.C,JP1*%
X23337800Y5368200D03*
X23337800Y6268200D03*
X23337800Y7168200D03*
%TD*%
%TO.C,JP2*%
X23337800Y2345600D03*
X23337800Y3245600D03*
X23337800Y4145600D03*
%TD*%
D15*
%TO.C,P1*%
X5414600Y3410800D03*
X5414600Y9190800D03*
D16*
X6859600Y9550800D03*
X6859600Y8750800D03*
D17*
X6859600Y7550800D03*
X6859600Y6550800D03*
X6859600Y6050800D03*
X6859600Y5050800D03*
D16*
X6859600Y3850800D03*
X6859600Y3050800D03*
X6859600Y3050800D03*
X6859600Y3850800D03*
D17*
X6859600Y4550800D03*
X6859600Y5550800D03*
X6859600Y7050800D03*
X6859600Y8050800D03*
D16*
X6859600Y8750800D03*
X6859600Y9550800D03*
D18*
X5944600Y10620800D03*
X5944600Y1980800D03*
D19*
X1764600Y1980800D03*
X1764600Y10620800D03*
%TD*%
D10*
%TO.C,R4*%
X9810600Y6046800D03*
X8910600Y6046800D03*
%TD*%
%TO.C,R5*%
X9817800Y8180400D03*
X8917800Y8180400D03*
%TD*%
%TO.C,R6*%
X9810600Y4954600D03*
X8910600Y4954600D03*
%TD*%
%TO.C,R7*%
X9817800Y9272600D03*
X8917800Y9272600D03*
%TD*%
%TO.C,R8*%
X21991600Y10549800D03*
X21991600Y11449800D03*
%TD*%
%TO.C,R9*%
X23083800Y10549800D03*
X23083800Y11449800D03*
%TD*%
%TO.C,R11*%
X8910612Y3862400D03*
X9810612Y3862400D03*
%TD*%
%TO.C,R12*%
X22067800Y7766800D03*
X22067800Y6866800D03*
%TD*%
D12*
%TO.C,D3*%
X23007600Y9630600D03*
X23007600Y8660600D03*
%TD*%
D20*
%TO.C,U1*%
X20222600Y3550800D03*
X20222600Y4050800D03*
X20222600Y4550800D03*
X20222600Y5050800D03*
X20222600Y5550800D03*
X20222600Y6050800D03*
X20222600Y6550800D03*
X20222600Y7050800D03*
X20222600Y7550800D03*
X20222600Y8050800D03*
X20222600Y8550800D03*
X20222600Y9050800D03*
D21*
X18772600Y10500800D03*
X18272600Y10500800D03*
X17772600Y10500800D03*
X17272600Y10500800D03*
X16772600Y10500800D03*
X16272600Y10500800D03*
X15772600Y10500800D03*
X15272600Y10500800D03*
X14772600Y10500800D03*
X14272600Y10500800D03*
X13772600Y10500800D03*
X13272600Y10500800D03*
D20*
X11822600Y9050800D03*
X11822600Y8550800D03*
X11822600Y8050800D03*
X11822600Y7550800D03*
X11822600Y7050800D03*
X11822600Y6550800D03*
X11822600Y6050800D03*
X11822600Y5550800D03*
X11822600Y5050800D03*
X11822600Y4550800D03*
X11822600Y4050800D03*
X11822600Y3550800D03*
D21*
X13272600Y2100800D03*
X13772600Y2100800D03*
X14272600Y2100800D03*
X14772600Y2100800D03*
X15272600Y2100800D03*
X15772600Y2100800D03*
X16272600Y2100800D03*
X16772600Y2100800D03*
X17272600Y2100800D03*
X17772600Y2100800D03*
X18272600Y2100800D03*
X18772600Y2100800D03*
%TD*%
M02*
