%TF.GenerationSoftware,KiCad,Pcbnew,(6.0.2)*%
%TF.CreationDate,2022-04-18T15:37:34+08:00*%
%TF.ProjectId,ST-Link-Hulk,53542d4c-696e-46b2-9d48-756c6b2e6b69,V0.1*%
%TF.SameCoordinates,Original*%
%TF.FileFunction,Copper,L1,Top*%
%TF.FilePolarity,Positive*%
%FSLAX46Y46*%
G04 Gerber Fmt 4.6, Leading zero omitted, Abs format (unit mm)*
G04 Created by KiCad (PCBNEW (6.0.2)) date 2022-04-18 15:37:34*
%MOMM*%
%LPD*%
G01*
G04 APERTURE LIST*
G04 Aperture macros list*
%AMRoundRect*
0 Rectangle with rounded corners*
0 $1 Rounding radius*
0 $2 $3 $4 $5 $6 $7 $8 $9 X,Y pos of 4 corners*
0 Add a 4 corners polygon primitive as box body*
4,1,4,$2,$3,$4,$5,$6,$7,$8,$9,$2,$3,0*
0 Add four circle primitives for the rounded corners*
1,1,$1+$1,$2,$3*
1,1,$1+$1,$4,$5*
1,1,$1+$1,$6,$7*
1,1,$1+$1,$8,$9*
0 Add four rect primitives between the rounded corners*
20,1,$1+$1,$2,$3,$4,$5,0*
20,1,$1+$1,$4,$5,$6,$7,0*
20,1,$1+$1,$6,$7,$8,$9,0*
20,1,$1+$1,$8,$9,$2,$3,0*%
G04 Aperture macros list end*
%TA.AperFunction,SMDPad,CuDef*%
%ADD10R,0.600000X0.600000*%
%TD*%
%TA.AperFunction,SMDPad,CuDef*%
%ADD11RoundRect,0.147500X-0.147500X-0.172500X0.147500X-0.172500X0.147500X0.172500X-0.147500X0.172500X0*%
%TD*%
%TA.AperFunction,SMDPad,CuDef*%
%ADD12RoundRect,0.147500X-0.172500X0.147500X-0.172500X-0.147500X0.172500X-0.147500X0.172500X0.147500X0*%
%TD*%
%TA.AperFunction,SMDPad,CuDef*%
%ADD13RoundRect,0.317500X-0.952500X-0.317500X0.952500X-0.317500X0.952500X0.317500X-0.952500X0.317500X0*%
%TD*%
%TA.AperFunction,SMDPad,CuDef*%
%ADD14RoundRect,0.381000X-0.889000X-0.254000X0.889000X-0.254000X0.889000X0.254000X-0.889000X0.254000X0*%
%TD*%
%TA.AperFunction,SMDPad,CuDef*%
%ADD15R,1.450000X0.600000*%
%TD*%
%TA.AperFunction,SMDPad,CuDef*%
%ADD16R,1.450000X0.300000*%
%TD*%
%TA.AperFunction,ComponentPad*%
%ADD17O,2.100000X1.000000*%
%TD*%
%TA.AperFunction,ComponentPad*%
%ADD18O,1.600000X1.000000*%
%TD*%
%TA.AperFunction,SMDPad,CuDef*%
%ADD19R,1.500000X0.300000*%
%TD*%
%TA.AperFunction,SMDPad,CuDef*%
%ADD20R,0.300000X1.500000*%
%TD*%
%TA.AperFunction,ViaPad*%
%ADD21C,0.508000*%
%TD*%
%TA.AperFunction,Conductor*%
%ADD22C,0.127000*%
%TD*%
%TA.AperFunction,Conductor*%
%ADD23C,0.381000*%
%TD*%
%TA.AperFunction,Conductor*%
%ADD24C,0.304800*%
%TD*%
G04 APERTURE END LIST*
D10*
%TO.P,C1,1*%
%TO.N,GND*%
X22067800Y4860200D03*
%TO.P,C1,2*%
%TO.N,/RST*%
X22067800Y5760200D03*
%TD*%
D11*
%TO.P,D1,1,K*%
%TO.N,Net-(D1-Pad1)*%
X8873300Y7164400D03*
%TO.P,D1,2,A*%
%TO.N,/LED_B*%
X9843300Y7164400D03*
%TD*%
D12*
%TO.P,D2,1,K*%
%TO.N,Net-(D2-Pad1)*%
X22067800Y9630600D03*
%TO.P,D2,2,A*%
%TO.N,VCC*%
X22067800Y8660600D03*
%TD*%
D13*
%TO.P,J1,1,Pin_1*%
%TO.N,VCC*%
X26466600Y10110800D03*
D14*
%TO.P,J1,3,Pin_3*%
%TO.N,Net-(J1-Pad3)*%
X26466600Y7570800D03*
%TO.P,J1,5,Pin_5*%
%TO.N,Net-(J1-Pad5)*%
X26466600Y5030800D03*
%TO.P,J1,7,Pin_7*%
%TO.N,GND*%
X26466600Y2490800D03*
%TD*%
D10*
%TO.P,JP1,1,A*%
%TO.N,/ST_SWCLK*%
X23337800Y5368200D03*
%TO.P,JP1,2,C*%
%TO.N,Net-(J1-Pad3)*%
X23337800Y6268200D03*
%TO.P,JP1,3,B*%
%TO.N,/JTCK*%
X23337800Y7168200D03*
%TD*%
%TO.P,JP2,1,A*%
%TO.N,/ST_SWDIO*%
X23337800Y2345600D03*
%TO.P,JP2,2,C*%
%TO.N,Net-(J1-Pad5)*%
X23337800Y3245600D03*
%TO.P,JP2,3,B*%
%TO.N,/JTMS*%
X23337800Y4145600D03*
%TD*%
D15*
%TO.P,P1,A1,GND*%
%TO.N,GND*%
X6859600Y9550800D03*
%TO.P,P1,A4,VBUS*%
%TO.N,+5V*%
X6859600Y8750800D03*
D16*
%TO.P,P1,A5,CC*%
%TO.N,unconnected-(P1-PadA5)*%
X6859600Y7550800D03*
%TO.P,P1,A6,D+*%
%TO.N,/USB_P*%
X6859600Y6550800D03*
%TO.P,P1,A7,D-*%
%TO.N,/USB_N*%
X6859600Y6050800D03*
%TO.P,P1,A8*%
%TO.N,N/C*%
X6859600Y5050800D03*
D15*
%TO.P,P1,A9,VBUS*%
%TO.N,+5V*%
X6859600Y3850800D03*
%TO.P,P1,A12,GND*%
%TO.N,GND*%
X6859600Y3050800D03*
%TO.P,P1,B1,GND*%
X6859600Y3050800D03*
%TO.P,P1,B4,VBUS*%
%TO.N,+5V*%
X6859600Y3850800D03*
D16*
%TO.P,P1,B5,VCONN*%
%TO.N,unconnected-(P1-PadB5)*%
X6859600Y4550800D03*
%TO.P,P1,B6,D+*%
%TO.N,/USB_P*%
X6859600Y5550800D03*
%TO.P,P1,B7,D-*%
%TO.N,/USB_N*%
X6859600Y7050800D03*
%TO.P,P1,B8*%
%TO.N,N/C*%
X6859600Y8050800D03*
D15*
%TO.P,P1,B9,VBUS*%
%TO.N,+5V*%
X6859600Y8750800D03*
%TO.P,P1,B12,GND*%
%TO.N,GND*%
X6859600Y9550800D03*
D17*
%TO.P,P1,S1,GND*%
X5944600Y10620800D03*
X5944600Y1980800D03*
D18*
X1764600Y1980800D03*
X1764600Y10620800D03*
%TD*%
D10*
%TO.P,R4,1*%
%TO.N,Net-(R4-Pad1)*%
X9810600Y6046800D03*
%TO.P,R4,2*%
%TO.N,/USB_N*%
X8910600Y6046800D03*
%TD*%
%TO.P,R5,1*%
%TO.N,GND*%
X9817800Y8180400D03*
%TO.P,R5,2*%
%TO.N,Net-(D1-Pad1)*%
X8917800Y8180400D03*
%TD*%
%TO.P,R6,1*%
%TO.N,Net-(R6-Pad1)*%
X9810600Y4954600D03*
%TO.P,R6,2*%
%TO.N,/USB_P*%
X8910600Y4954600D03*
%TD*%
%TO.P,R7,1*%
%TO.N,/JTMS*%
X9817800Y9272600D03*
%TO.P,R7,2*%
%TO.N,Net-(R7-Pad2)*%
X8917800Y9272600D03*
%TD*%
%TO.P,R8,1*%
%TO.N,Net-(D2-Pad1)*%
X21991600Y10549800D03*
%TO.P,R8,2*%
%TO.N,/TX*%
X21991600Y11449800D03*
%TD*%
%TO.P,R9,1*%
%TO.N,Net-(D3-Pad1)*%
X23083800Y10549800D03*
%TO.P,R9,2*%
%TO.N,/RX*%
X23083800Y11449800D03*
%TD*%
%TO.P,R11,1*%
%TO.N,/USB_P*%
X8910612Y3862400D03*
%TO.P,R11,2*%
%TO.N,VCC*%
X9810612Y3862400D03*
%TD*%
%TO.P,R12,1*%
%TO.N,VCC*%
X22067800Y7766800D03*
%TO.P,R12,2*%
%TO.N,/RST*%
X22067800Y6866800D03*
%TD*%
D12*
%TO.P,D3,1,K*%
%TO.N,Net-(D3-Pad1)*%
X23007600Y9630600D03*
%TO.P,D3,2,A*%
%TO.N,VCC*%
X23007600Y8660600D03*
%TD*%
D19*
%TO.P,U1,1,VBAT*%
%TO.N,VCC*%
X20222600Y3550800D03*
%TO.P,U1,2,PC13*%
%TO.N,Net-(R10-Pad1)*%
X20222600Y4050800D03*
%TO.P,U1,3,PC14-OSC32_IN*%
%TO.N,unconnected-(U1-Pad3)*%
X20222600Y4550800D03*
%TO.P,U1,4,PC15-OSC32_OUT*%
%TO.N,unconnected-(U1-Pad4)*%
X20222600Y5050800D03*
%TO.P,U1,5,OSC_IN*%
%TO.N,Net-(U1-Pad5)*%
X20222600Y5550800D03*
%TO.P,U1,6,OSC_OUT*%
%TO.N,Net-(U1-Pad6)*%
X20222600Y6050800D03*
%TO.P,U1,7,NRST*%
%TO.N,/RST*%
X20222600Y6550800D03*
%TO.P,U1,8,VSSA*%
%TO.N,GND*%
X20222600Y7050800D03*
%TO.P,U1,9,VDDA*%
%TO.N,VCC*%
X20222600Y7550800D03*
%TO.P,U1,10,PA0-WKUP*%
%TO.N,Net-(R1-Pad1)*%
X20222600Y8050800D03*
%TO.P,U1,11,PA1*%
%TO.N,unconnected-(U1-Pad11)*%
X20222600Y8550800D03*
%TO.P,U1,12,PA2*%
%TO.N,/TX*%
X20222600Y9050800D03*
D20*
%TO.P,U1,13,PA3*%
%TO.N,/RX*%
X18772600Y10500800D03*
%TO.P,U1,14,PA4*%
%TO.N,unconnected-(U1-Pad14)*%
X18272600Y10500800D03*
%TO.P,U1,15,PA5*%
%TO.N,/JTCK*%
X17772600Y10500800D03*
%TO.P,U1,16,PA6*%
%TO.N,unconnected-(U1-Pad16)*%
X17272600Y10500800D03*
%TO.P,U1,17,PA7*%
%TO.N,unconnected-(U1-Pad17)*%
X16772600Y10500800D03*
%TO.P,U1,18,PB0*%
%TO.N,/nRST*%
X16272600Y10500800D03*
%TO.P,U1,19,PB1*%
%TO.N,unconnected-(U1-Pad19)*%
X15772600Y10500800D03*
%TO.P,U1,20,PB2*%
%TO.N,Net-(R3-Pad2)*%
X15272600Y10500800D03*
%TO.P,U1,21,PB10*%
%TO.N,GND*%
X14772600Y10500800D03*
%TO.P,U1,22,PB11*%
%TO.N,unconnected-(U1-Pad22)*%
X14272600Y10500800D03*
%TO.P,U1,23,VSS_1*%
%TO.N,GND*%
X13772600Y10500800D03*
%TO.P,U1,24,VDD_1*%
%TO.N,VCC*%
X13272600Y10500800D03*
D19*
%TO.P,U1,25,PB12*%
%TO.N,Net-(R7-Pad2)*%
X11822600Y9050800D03*
%TO.P,U1,26,PB13*%
%TO.N,/JTCK*%
X11822600Y8550800D03*
%TO.P,U1,27,PB14*%
%TO.N,/JTMS*%
X11822600Y8050800D03*
%TO.P,U1,28,PB15*%
%TO.N,unconnected-(U1-Pad28)*%
X11822600Y7550800D03*
%TO.P,U1,29,PA8*%
%TO.N,unconnected-(U1-Pad29)*%
X11822600Y7050800D03*
%TO.P,U1,30,PA9*%
%TO.N,/LED_B*%
X11822600Y6550800D03*
%TO.P,U1,31,PA10*%
%TO.N,unconnected-(U1-Pad31)*%
X11822600Y6050800D03*
%TO.P,U1,32,PA11*%
%TO.N,Net-(R4-Pad1)*%
X11822600Y5550800D03*
%TO.P,U1,33,PA12*%
%TO.N,Net-(R6-Pad1)*%
X11822600Y5050800D03*
%TO.P,U1,34,PA13*%
%TO.N,/ST_SWDIO*%
X11822600Y4550800D03*
%TO.P,U1,35,VSS_2*%
%TO.N,GND*%
X11822600Y4050800D03*
%TO.P,U1,36,VDD_2*%
%TO.N,VCC*%
X11822600Y3550800D03*
D20*
%TO.P,U1,37,PA14*%
%TO.N,/ST_SWCLK*%
X13272600Y2100800D03*
%TO.P,U1,38,PA15*%
%TO.N,unconnected-(U1-Pad38)*%
X13772600Y2100800D03*
%TO.P,U1,39,PB3*%
%TO.N,VCC*%
X14272600Y2100800D03*
%TO.P,U1,40,PB4*%
%TO.N,unconnected-(U1-Pad40)*%
X14772600Y2100800D03*
%TO.P,U1,41,PB5*%
%TO.N,unconnected-(U1-Pad41)*%
X15272600Y2100800D03*
%TO.P,U1,42,PB6*%
%TO.N,unconnected-(U1-Pad42)*%
X15772600Y2100800D03*
%TO.P,U1,43,PB7*%
%TO.N,unconnected-(U1-Pad43)*%
X16272600Y2100800D03*
%TO.P,U1,44,BOOT0*%
%TO.N,Net-(R13-Pad2)*%
X16772600Y2100800D03*
%TO.P,U1,45,PB8*%
%TO.N,unconnected-(U1-Pad45)*%
X17272600Y2100800D03*
%TO.P,U1,46,PB9*%
%TO.N,unconnected-(U1-Pad46)*%
X17772600Y2100800D03*
%TO.P,U1,47,VSS_3*%
%TO.N,GND*%
X18272600Y2100800D03*
%TO.P,U1,48,VDD_3*%
%TO.N,VCC*%
X18772600Y2100800D03*
%TD*%
D21*
%TO.N,GND*%
X23769600Y9602800D03*
X25649200Y8866200D03*
X26360400Y8866200D03*
X19477000Y9679000D03*
X10536200Y4395800D03*
X14651000Y6656400D03*
X16225800Y7824800D03*
X26639800Y6300800D03*
X27401800Y3786200D03*
X19451600Y11126800D03*
X24023600Y12092000D03*
X20975600Y560400D03*
X25039600Y12117400D03*
X24658600Y535000D03*
X26639800Y3786200D03*
X25954000Y6300800D03*
X25700000Y535000D03*
X25979400Y12117400D03*
X26843000Y560400D03*
X27401800Y6300800D03*
X20772400Y2948000D03*
X16225800Y5437200D03*
X27401800Y1322400D03*
X16225800Y6707200D03*
X24455400Y7139000D03*
X17876800Y3329000D03*
X22525000Y535000D03*
X20874000Y9933000D03*
X23617200Y535000D03*
X14651000Y5437200D03*
X14727200Y4014800D03*
X27020800Y8866200D03*
X14651000Y7824800D03*
%TO.N,VCC*%
X18232400Y8282000D03*
X13127000Y11685600D03*
X10028200Y3125800D03*
X19654800Y2567000D03*
X19146800Y3583000D03*
X14270000Y3125800D03*
%TO.N,/TX*%
X21530616Y11489616D03*
%TO.N,/RX*%
X20697916Y11509516D03*
%TO.N,+5V*%
X10714000Y1906600D03*
X5329200Y5335600D03*
X5329200Y7266000D03*
X10002800Y1906600D03*
%TO.N,/nRST*%
X16276600Y11584000D03*
X25166600Y6224600D03*
X25039600Y3735400D03*
%TO.N,/JTCK*%
X17775200Y11634800D03*
X23337800Y7545400D03*
%TO.N,Net-(R1-Pad1)*%
X18105400Y9145600D03*
%TO.N,Net-(R3-Pad2)*%
X15272471Y9545018D03*
%TO.N,Net-(R10-Pad1)*%
X21178161Y4050800D03*
%TO.N,Net-(R13-Pad2)*%
X15971800Y3786200D03*
%TO.N,Net-(U1-Pad6)*%
X17318000Y7012000D03*
%TO.N,Net-(U1-Pad5)*%
X17192716Y4626116D03*
%TD*%
D22*
%TO.N,GND*%
X7711600Y9550800D02*
X6859600Y9550800D01*
X9711400Y8713800D02*
X8548600Y8713800D01*
X9817800Y8180400D02*
X9817800Y8607400D01*
X9817800Y8607400D02*
X9711400Y8713800D01*
X8548600Y8713800D02*
X7711600Y9550800D01*
%TO.N,/RST*%
X20222600Y6550800D02*
X21751800Y6550800D01*
X21751800Y6550800D02*
X22067800Y6866800D01*
X22067800Y6866800D02*
X22067800Y5760200D01*
D23*
%TO.N,VCC*%
X20222600Y3550800D02*
X19179000Y3550800D01*
X9810612Y3343388D02*
X10028200Y3125800D01*
X20222600Y7550800D02*
X18963600Y7550800D01*
X23995800Y8660600D02*
X22067800Y8660600D01*
X13272600Y10500800D02*
X13272600Y11540000D01*
X26466600Y10110800D02*
X25446000Y10110800D01*
D24*
X14270000Y2103400D02*
X14272600Y2100800D01*
D23*
X19179000Y3550800D02*
X19146800Y3583000D01*
X10453200Y3550800D02*
X10028200Y3125800D01*
X9810612Y3862400D02*
X9810612Y3343388D01*
D24*
X19238800Y2567000D02*
X18772600Y2100800D01*
D23*
X11822600Y3550800D02*
X10453200Y3550800D01*
X22067800Y7766800D02*
X22067800Y8660600D01*
X18963600Y7550800D02*
X18232400Y8282000D01*
X25446000Y10110800D02*
X23995800Y8660600D01*
D24*
X19654800Y2567000D02*
X19238800Y2567000D01*
X14270000Y3125800D02*
X14270000Y2103400D01*
D23*
X20222600Y7550800D02*
X21851800Y7550800D01*
X13272600Y11540000D02*
X13127000Y11685600D01*
X21851800Y7550800D02*
X22067800Y7766800D01*
D22*
%TO.N,/LED_B*%
X10456900Y6550800D02*
X11822600Y6550800D01*
X9843300Y7164400D02*
X10456900Y6550800D01*
%TO.N,Net-(D1-Pad1)*%
X8917800Y7208900D02*
X8873300Y7164400D01*
X8917800Y8180400D02*
X8917800Y7208900D01*
%TO.N,/TX*%
X20222600Y9050800D02*
X20222600Y10181600D01*
X21570432Y11449800D02*
X21530616Y11489616D01*
X20222600Y10181600D02*
X21530616Y11489616D01*
X21991600Y11449800D02*
X21570432Y11449800D01*
%TO.N,Net-(D2-Pad1)*%
X21991600Y10549800D02*
X21991600Y9706800D01*
X21991600Y9706800D02*
X22067800Y9630600D01*
%TO.N,/RX*%
X22543200Y11990400D02*
X21178800Y11990400D01*
X18772600Y10500800D02*
X19689200Y10500800D01*
X23083800Y11449800D02*
X22543200Y11990400D01*
X19689200Y10500800D02*
X20697916Y11509516D01*
X21178800Y11990400D02*
X20697916Y11509516D01*
%TO.N,Net-(D3-Pad1)*%
X23083800Y9706800D02*
X23007600Y9630600D01*
X23083800Y10549800D02*
X23083800Y9706800D01*
%TO.N,Net-(J1-Pad3)*%
X24295800Y6268200D02*
X23337800Y6268200D01*
X26466600Y7570800D02*
X25598400Y7570800D01*
X25598400Y7570800D02*
X24295800Y6268200D01*
%TO.N,Net-(J1-Pad5)*%
X25213634Y3245600D02*
X26466600Y4498566D01*
X23337800Y3245600D02*
X25213634Y3245600D01*
X26466600Y4498566D02*
X26466600Y5030800D01*
D23*
%TO.N,+5V*%
X5329200Y4446600D02*
X5329200Y5335600D01*
X5329200Y5335600D02*
X5329200Y7266000D01*
X5329200Y7266000D02*
X5329200Y8129600D01*
X10002800Y1906600D02*
X10714000Y1906600D01*
X5329200Y8129600D02*
X5950400Y8750800D01*
X5925000Y3850800D02*
X5329200Y4446600D01*
X7703000Y3785190D02*
X9581590Y1906600D01*
X9581590Y1906600D02*
X10002800Y1906600D01*
X7703000Y3850800D02*
X7703000Y3785190D01*
X5950400Y8750800D02*
X6859600Y8750800D01*
X6859600Y3850800D02*
X5925000Y3850800D01*
X6859600Y3850800D02*
X7703000Y3850800D01*
D22*
%TO.N,/nRST*%
X16272600Y10500800D02*
X16272600Y11580000D01*
X24790680Y5848680D02*
X24790680Y3984320D01*
X25166600Y6224600D02*
X24790680Y5848680D01*
X16272600Y11580000D02*
X16276600Y11584000D01*
X24790680Y3984320D02*
X25039600Y3735400D01*
%TO.N,/JTCK*%
X17775200Y11634800D02*
X17775200Y10503400D01*
X17775200Y10503400D02*
X17772600Y10500800D01*
X23337800Y7168200D02*
X23337800Y7545400D01*
X16699600Y8550800D02*
X11822600Y8550800D01*
X17772600Y10500800D02*
X17772600Y9623800D01*
X17772600Y9623800D02*
X16699600Y8550800D01*
%TO.N,/ST_SWCLK*%
X13272600Y2100800D02*
X13272600Y2890400D01*
X13711200Y4522800D02*
X15997200Y4522800D01*
X13272600Y2890400D02*
X13482600Y3100400D01*
X13482600Y3100400D02*
X13482600Y4294200D01*
X22677400Y4707800D02*
X23337800Y5368200D01*
X19819437Y3066211D02*
X20521848Y2363800D01*
X18156200Y3811600D02*
X18901589Y3066211D01*
X20521848Y2363800D02*
X21026400Y2363800D01*
X13482600Y4294200D02*
X13711200Y4522800D01*
X21026400Y2363800D02*
X22677400Y4014800D01*
X15997200Y4522800D02*
X16708400Y3811600D01*
X18901589Y3066211D02*
X19819437Y3066211D01*
X16708400Y3811600D02*
X18156200Y3811600D01*
X22677400Y4014800D02*
X22677400Y4707800D01*
%TO.N,/JTMS*%
X9817800Y9229000D02*
X10996000Y8050800D01*
X20078978Y1017600D02*
X23206978Y4145600D01*
X10996000Y8050800D02*
X11822600Y8050800D01*
X13203200Y7547200D02*
X13203200Y3290160D01*
X12699600Y8050800D02*
X13203200Y7547200D01*
X12695200Y2782160D02*
X12695200Y1297000D01*
X9817800Y9272600D02*
X9817800Y9229000D01*
X23206978Y4145600D02*
X23337800Y4145600D01*
X12695200Y1297000D02*
X12974600Y1017600D01*
X12974600Y1017600D02*
X20078978Y1017600D01*
X11822600Y8050800D02*
X12699600Y8050800D01*
X13203200Y3290160D02*
X12695200Y2782160D01*
%TO.N,/ST_SWDIO*%
X12923800Y4326600D02*
X12923800Y3405200D01*
X11822600Y4550800D02*
X12699600Y4550800D01*
X12339600Y1258161D02*
X12859072Y738689D01*
X12859072Y738689D02*
X20194507Y738689D01*
X12699600Y4550800D02*
X12923800Y4326600D01*
X20194507Y738689D02*
X21801418Y2345600D01*
X12923800Y3405200D02*
X12339600Y2821000D01*
X21801418Y2345600D02*
X23337800Y2345600D01*
X12339600Y2821000D02*
X12339600Y1258161D01*
%TO.N,/USB_N*%
X7711600Y7050800D02*
X8715600Y6046800D01*
X6859600Y7050800D02*
X7711600Y7050800D01*
X8715600Y6046800D02*
X8910600Y6046800D01*
X6859600Y6050800D02*
X8906600Y6050800D01*
X8906600Y6050800D02*
X8910600Y6046800D01*
%TO.N,/USB_P*%
X6053778Y5550800D02*
X6859600Y5550800D01*
X5888000Y6300800D02*
X5888000Y5716578D01*
X6859600Y5550800D02*
X7711600Y5550800D01*
X8910600Y4954600D02*
X8910600Y3862400D01*
X5888000Y5716578D02*
X6053778Y5550800D01*
X8307800Y4954600D02*
X8910600Y4954600D01*
X6138000Y6550800D02*
X5888000Y6300800D01*
X7711600Y5550800D02*
X8307800Y4954600D01*
X6859600Y6550800D02*
X6138000Y6550800D01*
%TO.N,Net-(R1-Pad1)*%
X20222600Y8050800D02*
X19200200Y8050800D01*
X19200200Y8050800D02*
X18105400Y9145600D01*
%TO.N,Net-(R3-Pad2)*%
X15272600Y9545147D02*
X15272471Y9545018D01*
X15272600Y10500800D02*
X15272600Y9545147D01*
%TO.N,Net-(R4-Pad1)*%
X9810600Y6046800D02*
X10206000Y6046800D01*
X10206000Y6046800D02*
X10702000Y5550800D01*
X10702000Y5550800D02*
X11822600Y5550800D01*
%TO.N,Net-(R6-Pad1)*%
X10460000Y4954600D02*
X10556200Y5050800D01*
X10556200Y5050800D02*
X11822600Y5050800D01*
X9810600Y4954600D02*
X10460000Y4954600D01*
%TO.N,Net-(R7-Pad2)*%
X11342200Y9050800D02*
X10604989Y9788011D01*
X8917800Y9330600D02*
X8917800Y9272600D01*
X10604989Y9788011D02*
X9375211Y9788011D01*
X9375211Y9788011D02*
X8917800Y9330600D01*
X11822600Y9050800D02*
X11342200Y9050800D01*
%TO.N,Net-(R10-Pad1)*%
X20222600Y4050800D02*
X21178161Y4050800D01*
%TO.N,Net-(R13-Pad2)*%
X16772600Y2985400D02*
X15971800Y3786200D01*
X16772600Y2100800D02*
X16772600Y2985400D01*
%TO.N,Net-(U1-Pad6)*%
X20222600Y6050800D02*
X18279200Y6050800D01*
X18279200Y6050800D02*
X17318000Y7012000D01*
%TO.N,Net-(U1-Pad5)*%
X20222600Y5550800D02*
X18117400Y5550800D01*
X18117400Y5550800D02*
X17192716Y4626116D01*
%TD*%
%TA.AperFunction,Conductor*%
%TO.N,GND*%
G36*
X21148082Y12330007D02*
G01*
X21173802Y12285458D01*
X21164869Y12234800D01*
X21126691Y12202194D01*
X21122671Y12200651D01*
X21111360Y12197301D01*
X21096548Y12194152D01*
X21096546Y12194151D01*
X21088816Y12192508D01*
X21082423Y12187863D01*
X21081980Y12187666D01*
X21066096Y12179042D01*
X21065685Y12178775D01*
X21058307Y12175943D01*
X21042012Y12159648D01*
X21033048Y12151990D01*
X21014390Y12138435D01*
X21010437Y12131589D01*
X21010117Y12131233D01*
X20998633Y12116269D01*
X20816462Y11934098D01*
X20769842Y11912358D01*
X20751525Y11912998D01*
X20703763Y11920562D01*
X20697916Y11921488D01*
X20692069Y11920562D01*
X20688401Y11919981D01*
X20570610Y11901325D01*
X20530997Y11881141D01*
X20489573Y11860034D01*
X20455765Y11842808D01*
X20364624Y11751667D01*
X20306107Y11636822D01*
X20305181Y11630975D01*
X20286983Y11516073D01*
X20285944Y11509516D01*
X20286870Y11503669D01*
X20294434Y11455907D01*
X20284618Y11405412D01*
X20273334Y11390970D01*
X19621591Y10739226D01*
X19574971Y10717486D01*
X19568417Y10717200D01*
X19150699Y10717200D01*
X19102361Y10734793D01*
X19076641Y10779342D01*
X19075499Y10792400D01*
X19075499Y11265856D01*
X19066628Y11310458D01*
X19032834Y11361034D01*
X18995539Y11385954D01*
X18988417Y11390713D01*
X18988416Y11390714D01*
X18982258Y11394828D01*
X18974989Y11396274D01*
X18941282Y11402979D01*
X18941281Y11402979D01*
X18937657Y11403700D01*
X18772623Y11403700D01*
X18607544Y11403699D01*
X18582850Y11398788D01*
X18570211Y11396274D01*
X18570210Y11396274D01*
X18562942Y11394828D01*
X18556780Y11390711D01*
X18551378Y11388473D01*
X18499987Y11386230D01*
X18493821Y11388474D01*
X18488416Y11390713D01*
X18482258Y11394828D01*
X18474989Y11396274D01*
X18441282Y11402979D01*
X18441281Y11402979D01*
X18437657Y11403700D01*
X18428123Y11403700D01*
X18235813Y11403699D01*
X18187477Y11421292D01*
X18161757Y11465840D01*
X18164295Y11502138D01*
X18164322Y11502220D01*
X18167009Y11507494D01*
X18177978Y11576747D01*
X18186246Y11628953D01*
X18187172Y11634800D01*
X18167009Y11762106D01*
X18108492Y11876951D01*
X18017351Y11968092D01*
X18011837Y11970902D01*
X17962634Y11995972D01*
X17902506Y12026609D01*
X17775200Y12046772D01*
X17647894Y12026609D01*
X17587766Y11995972D01*
X17538564Y11970902D01*
X17533049Y11968092D01*
X17441908Y11876951D01*
X17383391Y11762106D01*
X17363228Y11634800D01*
X17364154Y11628953D01*
X17365948Y11617626D01*
X17383391Y11507494D01*
X17386078Y11502221D01*
X17386105Y11502137D01*
X17384309Y11450728D01*
X17349888Y11412502D01*
X17314585Y11403700D01*
X17117236Y11403699D01*
X17107544Y11403699D01*
X17082850Y11398788D01*
X17070211Y11396274D01*
X17070210Y11396274D01*
X17062942Y11394828D01*
X17056780Y11390711D01*
X17051378Y11388473D01*
X16999987Y11386230D01*
X16993821Y11388474D01*
X16988416Y11390713D01*
X16982258Y11394828D01*
X16974989Y11396274D01*
X16941282Y11402979D01*
X16941281Y11402979D01*
X16937657Y11403700D01*
X16927737Y11403700D01*
X16748062Y11403699D01*
X16699726Y11421292D01*
X16674006Y11465840D01*
X16673789Y11490663D01*
X16675607Y11502138D01*
X16685427Y11564141D01*
X16687646Y11578153D01*
X16688572Y11584000D01*
X16668409Y11711306D01*
X16619620Y11807059D01*
X16612581Y11820874D01*
X16612580Y11820875D01*
X16609892Y11826151D01*
X16518751Y11917292D01*
X16512864Y11920292D01*
X16465686Y11944330D01*
X16403906Y11975809D01*
X16276600Y11995972D01*
X16149294Y11975809D01*
X16087514Y11944330D01*
X16040337Y11920292D01*
X16034449Y11917292D01*
X15943308Y11826151D01*
X15940620Y11820875D01*
X15940619Y11820874D01*
X15933580Y11807059D01*
X15884791Y11711306D01*
X15864628Y11584000D01*
X15877594Y11502138D01*
X15879411Y11490664D01*
X15869596Y11440169D01*
X15829620Y11407797D01*
X15805137Y11403700D01*
X15617737Y11403699D01*
X15607544Y11403699D01*
X15582850Y11398788D01*
X15570211Y11396274D01*
X15570210Y11396274D01*
X15562942Y11394828D01*
X15556780Y11390711D01*
X15551378Y11388473D01*
X15499987Y11386230D01*
X15493821Y11388474D01*
X15488416Y11390713D01*
X15482258Y11394828D01*
X15474989Y11396274D01*
X15441282Y11402979D01*
X15441281Y11402979D01*
X15437657Y11403700D01*
X15272623Y11403700D01*
X15107544Y11403699D01*
X15062942Y11394828D01*
X15056781Y11390711D01*
X15050713Y11388198D01*
X14999323Y11385955D01*
X14993157Y11388199D01*
X14974801Y11395803D01*
X14941237Y11402479D01*
X14933916Y11403200D01*
X14862059Y11403200D01*
X14851902Y11399503D01*
X14848800Y11394131D01*
X14848800Y9611660D01*
X14857655Y9587331D01*
X14860596Y9556782D01*
X14861425Y9556782D01*
X14861425Y9550865D01*
X14860499Y9545018D01*
X14861425Y9539171D01*
X14866332Y9508190D01*
X14880662Y9417712D01*
X14885800Y9407628D01*
X14935018Y9311034D01*
X14939179Y9302867D01*
X15030320Y9211726D01*
X15035596Y9209038D01*
X15035597Y9209037D01*
X15056083Y9198599D01*
X15145165Y9153209D01*
X15151012Y9152283D01*
X15253088Y9136116D01*
X15272471Y9133046D01*
X15291855Y9136116D01*
X15393930Y9152283D01*
X15399777Y9153209D01*
X15488859Y9198599D01*
X15509345Y9209037D01*
X15509346Y9209038D01*
X15514622Y9211726D01*
X15605763Y9302867D01*
X15609925Y9311034D01*
X15659142Y9407628D01*
X15664280Y9417712D01*
X15682771Y9534464D01*
X15707709Y9579454D01*
X15757045Y9597900D01*
X15926235Y9597901D01*
X15937656Y9597901D01*
X15962350Y9602812D01*
X15974989Y9605326D01*
X15974990Y9605326D01*
X15982258Y9606772D01*
X15988420Y9610889D01*
X15993822Y9613127D01*
X16045213Y9615370D01*
X16051379Y9613126D01*
X16056783Y9610888D01*
X16062942Y9606772D01*
X16070206Y9605327D01*
X16103783Y9598648D01*
X16107543Y9597900D01*
X16272577Y9597900D01*
X16437656Y9597901D01*
X16462350Y9602812D01*
X16474989Y9605326D01*
X16474990Y9605326D01*
X16482258Y9606772D01*
X16488420Y9610889D01*
X16493822Y9613127D01*
X16545213Y9615370D01*
X16551379Y9613126D01*
X16556783Y9610888D01*
X16562942Y9606772D01*
X16570206Y9605327D01*
X16603783Y9598648D01*
X16607543Y9597900D01*
X16772577Y9597900D01*
X16937656Y9597901D01*
X16962350Y9602812D01*
X16974989Y9605326D01*
X16974990Y9605326D01*
X16982258Y9606772D01*
X16988420Y9610889D01*
X16993822Y9613127D01*
X17045213Y9615370D01*
X17051379Y9613126D01*
X17056783Y9610888D01*
X17062942Y9606772D01*
X17070206Y9605327D01*
X17103783Y9598648D01*
X17107543Y9597900D01*
X17259117Y9597900D01*
X17307455Y9580307D01*
X17333175Y9535758D01*
X17324242Y9485100D01*
X17312294Y9469530D01*
X17025466Y9182701D01*
X16631991Y8789226D01*
X16585371Y8767486D01*
X16578817Y8767200D01*
X12793552Y8767200D01*
X12745214Y8784793D01*
X12719494Y8829342D01*
X12719797Y8857070D01*
X12724779Y8882116D01*
X12724779Y8882121D01*
X12725500Y8885743D01*
X12725499Y9215856D01*
X12716628Y9260458D01*
X12682834Y9311034D01*
X12674217Y9316792D01*
X12638417Y9340713D01*
X12638416Y9340714D01*
X12632258Y9344828D01*
X12587657Y9353700D01*
X12455881Y9353700D01*
X11376485Y9353699D01*
X11328147Y9371292D01*
X11323311Y9375725D01*
X10763427Y9935608D01*
X10760716Y9938464D01*
X10740317Y9961120D01*
X10735028Y9966994D01*
X10713967Y9976371D01*
X10703597Y9982002D01*
X10690901Y9990247D01*
X10690900Y9990247D01*
X10684273Y9994551D01*
X10676468Y9995787D01*
X10676010Y9995963D01*
X10658691Y10001093D01*
X10658207Y10001196D01*
X10650986Y10004411D01*
X10627941Y10004411D01*
X10616177Y10005337D01*
X10601216Y10007707D01*
X10601214Y10007707D01*
X10593410Y10008943D01*
X10585775Y10006897D01*
X10585295Y10006872D01*
X10566595Y10004411D01*
X9382862Y10004411D01*
X9378925Y10004514D01*
X9340602Y10006523D01*
X9319068Y9998257D01*
X9307780Y9994913D01*
X9285227Y9990119D01*
X9278831Y9985473D01*
X9278383Y9985273D01*
X9262510Y9976655D01*
X9262097Y9976387D01*
X9254718Y9973554D01*
X9238423Y9957259D01*
X9229459Y9949601D01*
X9210801Y9936046D01*
X9206848Y9929200D01*
X9206528Y9928844D01*
X9195044Y9913880D01*
X9028690Y9747526D01*
X8982070Y9725786D01*
X8975516Y9725500D01*
X8645599Y9725499D01*
X8602744Y9725499D01*
X8558142Y9716628D01*
X8507566Y9682834D01*
X8503452Y9676677D01*
X8485787Y9650239D01*
X8473772Y9632258D01*
X8472327Y9624994D01*
X8466868Y9597548D01*
X8464900Y9587657D01*
X8464901Y8957544D01*
X8473772Y8912942D01*
X8507566Y8862366D01*
X8513723Y8858252D01*
X8551983Y8832687D01*
X8551984Y8832686D01*
X8558142Y8828572D01*
X8602743Y8819700D01*
X8917757Y8819700D01*
X9232856Y8819701D01*
X9277458Y8828572D01*
X9326021Y8861021D01*
X9375987Y8873248D01*
X9409579Y8861021D01*
X9451983Y8832687D01*
X9451984Y8832686D01*
X9458142Y8828572D01*
X9502743Y8819700D01*
X9547115Y8819700D01*
X9889915Y8819701D01*
X9938252Y8802108D01*
X9943089Y8797675D01*
X9979590Y8761174D01*
X10001330Y8714554D01*
X9988016Y8664867D01*
X9945879Y8635362D01*
X9926416Y8632800D01*
X9907259Y8632800D01*
X9897102Y8629103D01*
X9894000Y8623731D01*
X9894000Y8269859D01*
X9897697Y8259702D01*
X9903069Y8256600D01*
X10256941Y8256600D01*
X10267098Y8260297D01*
X10270200Y8265669D01*
X10270200Y8289016D01*
X10287793Y8337354D01*
X10332342Y8363074D01*
X10383000Y8354141D01*
X10398574Y8342190D01*
X10837570Y7903194D01*
X10840281Y7900338D01*
X10857350Y7881381D01*
X10865961Y7871817D01*
X10887016Y7862443D01*
X10897392Y7856808D01*
X10902197Y7853687D01*
X10933151Y7812603D01*
X10930804Y7763798D01*
X10928572Y7760458D01*
X10919700Y7715857D01*
X10919701Y7385744D01*
X10928572Y7341142D01*
X10932689Y7334980D01*
X10934927Y7329578D01*
X10937170Y7278187D01*
X10934926Y7272021D01*
X10932688Y7266617D01*
X10928572Y7260458D01*
X10927127Y7253194D01*
X10922839Y7231635D01*
X10919700Y7215857D01*
X10919701Y6885744D01*
X10920959Y6879421D01*
X10925404Y6857069D01*
X10917578Y6806228D01*
X10878902Y6772312D01*
X10851649Y6767200D01*
X10577683Y6767200D01*
X10529345Y6784793D01*
X10524509Y6789226D01*
X10313226Y7000509D01*
X10291486Y7047129D01*
X10291200Y7053683D01*
X10291199Y7379307D01*
X10291199Y7381524D01*
X10288083Y7407723D01*
X10256174Y7479559D01*
X10245475Y7503647D01*
X10245474Y7503648D01*
X10242655Y7509995D01*
X10237739Y7514902D01*
X10237738Y7514904D01*
X10168370Y7584152D01*
X10168368Y7584153D01*
X10163456Y7589057D01*
X10154664Y7592944D01*
X10152515Y7595008D01*
X10151375Y7595789D01*
X10151505Y7595979D01*
X10117569Y7628580D01*
X10112058Y7679723D01*
X10140711Y7722444D01*
X10163250Y7732337D01*
X10163157Y7732563D01*
X10183423Y7740958D01*
X10221520Y7766414D01*
X10231786Y7776680D01*
X10257242Y7814777D01*
X10262803Y7828202D01*
X10269479Y7861763D01*
X10270200Y7869084D01*
X10270200Y8090941D01*
X10266503Y8101098D01*
X10261131Y8104200D01*
X9816800Y8104200D01*
X9768462Y8121793D01*
X9742742Y8166342D01*
X9741600Y8179400D01*
X9741600Y8619541D01*
X9737903Y8629698D01*
X9732531Y8632800D01*
X9506484Y8632800D01*
X9499163Y8632079D01*
X9465602Y8625403D01*
X9452177Y8619842D01*
X9410029Y8591679D01*
X9360064Y8579452D01*
X9326470Y8591679D01*
X9283617Y8620313D01*
X9283616Y8620314D01*
X9277458Y8624428D01*
X9250965Y8629698D01*
X9236482Y8632579D01*
X9236481Y8632579D01*
X9232857Y8633300D01*
X8917843Y8633300D01*
X8602744Y8633299D01*
X8558142Y8624428D01*
X8507566Y8590634D01*
X8503452Y8584477D01*
X8480120Y8549558D01*
X8473772Y8540058D01*
X8464900Y8495457D01*
X8464901Y7865344D01*
X8473772Y7820742D01*
X8507566Y7770166D01*
X8558142Y7736372D01*
X8565407Y7734927D01*
X8567217Y7734177D01*
X8605141Y7699424D01*
X8611854Y7648424D01*
X8584214Y7605041D01*
X8568964Y7595977D01*
X8559053Y7591575D01*
X8559052Y7591574D01*
X8552705Y7588755D01*
X8547798Y7583839D01*
X8547796Y7583838D01*
X8478548Y7514470D01*
X8473643Y7509556D01*
X8470838Y7503210D01*
X8470836Y7503208D01*
X8457011Y7471935D01*
X8428394Y7407204D01*
X8427740Y7401593D01*
X8427739Y7401590D01*
X8426323Y7389441D01*
X8425400Y7381525D01*
X8425401Y6947276D01*
X8428517Y6921077D01*
X8444212Y6885743D01*
X8469265Y6829342D01*
X8473945Y6818805D01*
X8478861Y6813898D01*
X8478862Y6813896D01*
X8548230Y6744648D01*
X8548232Y6744647D01*
X8553144Y6739743D01*
X8559490Y6736938D01*
X8559492Y6736936D01*
X8615382Y6712228D01*
X8655496Y6694494D01*
X8661107Y6693840D01*
X8661110Y6693839D01*
X8679013Y6691752D01*
X8679014Y6691752D01*
X8681175Y6691500D01*
X8871506Y6691500D01*
X9065424Y6691501D01*
X9091623Y6694617D01*
X9139441Y6715857D01*
X9187547Y6737225D01*
X9187548Y6737226D01*
X9193895Y6740045D01*
X9198802Y6744961D01*
X9198804Y6744962D01*
X9268052Y6814330D01*
X9268053Y6814332D01*
X9272957Y6819244D01*
X9289536Y6856745D01*
X9325171Y6893840D01*
X9376315Y6899352D01*
X9419036Y6870699D01*
X9427039Y6856865D01*
X9439265Y6829342D01*
X9443945Y6818805D01*
X9448861Y6813898D01*
X9448862Y6813896D01*
X9518230Y6744648D01*
X9518232Y6744647D01*
X9523144Y6739743D01*
X9529490Y6736938D01*
X9529492Y6736936D01*
X9585382Y6712228D01*
X9625496Y6694494D01*
X9631107Y6693840D01*
X9631110Y6693839D01*
X9649013Y6691752D01*
X9649014Y6691752D01*
X9651175Y6691500D01*
X9674616Y6691500D01*
X9979015Y6691501D01*
X10027352Y6673908D01*
X10032189Y6669475D01*
X10073590Y6628074D01*
X10095330Y6581454D01*
X10082016Y6531767D01*
X10039879Y6502262D01*
X10020416Y6499700D01*
X9516928Y6499699D01*
X9495544Y6499699D01*
X9450942Y6490828D01*
X9444784Y6486713D01*
X9444782Y6486712D01*
X9402379Y6458379D01*
X9352413Y6446152D01*
X9318821Y6458379D01*
X9276417Y6486713D01*
X9276416Y6486714D01*
X9270258Y6490828D01*
X9248018Y6495252D01*
X9229282Y6498979D01*
X9229281Y6498979D01*
X9225657Y6499700D01*
X8935849Y6499700D01*
X8599884Y6499699D01*
X8551546Y6517292D01*
X8546710Y6521725D01*
X7870039Y7198396D01*
X7867328Y7201252D01*
X7846928Y7223909D01*
X7841639Y7229783D01*
X7820578Y7239160D01*
X7810208Y7244791D01*
X7808468Y7245921D01*
X7790884Y7257340D01*
X7783079Y7258576D01*
X7776403Y7261139D01*
X7737580Y7294887D01*
X7729597Y7346014D01*
X7737500Y7385743D01*
X7737499Y7715856D01*
X7728628Y7760458D01*
X7724511Y7766620D01*
X7722273Y7772022D01*
X7720030Y7823413D01*
X7722274Y7829579D01*
X7724512Y7834983D01*
X7728628Y7841142D01*
X7737500Y7885743D01*
X7737499Y8215856D01*
X7728628Y8260458D01*
X7712883Y8284022D01*
X7700657Y8333987D01*
X7712883Y8367578D01*
X7724513Y8384984D01*
X7728628Y8391142D01*
X7733290Y8414579D01*
X7736779Y8432118D01*
X7736779Y8432119D01*
X7737500Y8435743D01*
X7737499Y9065856D01*
X7728628Y9110458D01*
X7724511Y9116619D01*
X7721998Y9122687D01*
X7719755Y9174077D01*
X7721999Y9180243D01*
X7729603Y9198599D01*
X7736279Y9232163D01*
X7737000Y9239484D01*
X7737000Y9461341D01*
X7733303Y9471498D01*
X7727931Y9474600D01*
X5995459Y9474600D01*
X5985302Y9470903D01*
X5982200Y9465531D01*
X5982200Y9446981D01*
X5964607Y9398643D01*
X5920058Y9372923D01*
X5869400Y9381856D01*
X5843402Y9406853D01*
X5785142Y9499189D01*
X5785136Y9499196D01*
X5782281Y9503721D01*
X5679676Y9594339D01*
X5674829Y9596615D01*
X5674827Y9596616D01*
X5589978Y9636452D01*
X5581869Y9640259D01*
X5982200Y9640259D01*
X5985897Y9630102D01*
X5991269Y9627000D01*
X6770141Y9627000D01*
X6780298Y9630697D01*
X6783400Y9636069D01*
X6783400Y9985899D01*
X6800993Y10034237D01*
X6814400Y10046738D01*
X6816400Y10048191D01*
X6865848Y10062369D01*
X6912840Y10041445D01*
X6935388Y9995210D01*
X6935800Y9987352D01*
X6935800Y9640259D01*
X6939497Y9630102D01*
X6944869Y9627000D01*
X7723741Y9627000D01*
X7733898Y9630697D01*
X7737000Y9636069D01*
X7737000Y9862116D01*
X7736279Y9869437D01*
X7729603Y9902998D01*
X7724042Y9916423D01*
X7698586Y9954520D01*
X7688320Y9964786D01*
X7650223Y9990242D01*
X7636798Y9995803D01*
X7603237Y10002479D01*
X7595916Y10003200D01*
X6985917Y10003200D01*
X6937579Y10020793D01*
X6911859Y10065342D01*
X6920792Y10116000D01*
X6937884Y10134984D01*
X6937472Y10135423D01*
X6947766Y10145090D01*
X7046805Y10264807D01*
X7051829Y10272724D01*
X7117985Y10413313D01*
X7120887Y10422244D01*
X7141743Y10531574D01*
X7140015Y10542246D01*
X7137288Y10544600D01*
X6034059Y10544600D01*
X6023902Y10540903D01*
X6020800Y10535531D01*
X6020800Y9975720D01*
X6001594Y9925523D01*
X5999594Y9923292D01*
X5984731Y9915348D01*
X5988052Y9895235D01*
X5982921Y9869439D01*
X5982200Y9862116D01*
X5982200Y9640259D01*
X5581869Y9640259D01*
X5555761Y9652517D01*
X5509710Y9659687D01*
X5454694Y9668254D01*
X5454689Y9668254D01*
X5451827Y9668700D01*
X5380288Y9668700D01*
X5341619Y9663162D01*
X5284393Y9654967D01*
X5284389Y9654966D01*
X5279090Y9654207D01*
X5274216Y9651991D01*
X5274213Y9651990D01*
X5239197Y9636069D01*
X5154474Y9597548D01*
X5117668Y9565834D01*
X5054823Y9511684D01*
X5054820Y9511681D01*
X5050769Y9508190D01*
X5047858Y9503699D01*
X4985086Y9406853D01*
X4976312Y9393317D01*
X4968890Y9368498D01*
X4940302Y9272906D01*
X4937089Y9262164D01*
X4937056Y9256809D01*
X4937056Y9256807D01*
X4936748Y9206336D01*
X4936253Y9125275D01*
X4973871Y8993652D01*
X5046919Y8877879D01*
X5149524Y8787261D01*
X5154371Y8784985D01*
X5154373Y8784984D01*
X5205087Y8761174D01*
X5273439Y8729083D01*
X5278734Y8728259D01*
X5283857Y8726692D01*
X5283027Y8723976D01*
X5318937Y8704200D01*
X5337504Y8656228D01*
X5320891Y8607545D01*
X5315493Y8601534D01*
X5099299Y8385340D01*
X5094462Y8380907D01*
X5062083Y8353738D01*
X5058795Y8348044D01*
X5058793Y8348041D01*
X5040945Y8317129D01*
X5037422Y8311600D01*
X5016947Y8282357D01*
X5016946Y8282354D01*
X5013173Y8276966D01*
X5011471Y8270615D01*
X5010035Y8267535D01*
X5005987Y8257760D01*
X5004822Y8254560D01*
X5001532Y8248861D01*
X5000390Y8242382D01*
X4994192Y8207237D01*
X4992773Y8200835D01*
X4986256Y8176511D01*
X4981830Y8159991D01*
X4982403Y8153439D01*
X4982403Y8153437D01*
X4985514Y8117884D01*
X4985800Y8111330D01*
X4985800Y7506368D01*
X4977604Y7472228D01*
X4977455Y7471935D01*
X4937391Y7393306D01*
X4917228Y7266000D01*
X4937391Y7138694D01*
X4960883Y7092589D01*
X4977604Y7059772D01*
X4985800Y7025632D01*
X4985800Y5575968D01*
X4977604Y5541828D01*
X4937391Y5462906D01*
X4917228Y5335600D01*
X4918154Y5329753D01*
X4921759Y5306991D01*
X4937391Y5208294D01*
X4940078Y5203021D01*
X4977604Y5129372D01*
X4985800Y5095232D01*
X4985800Y4464870D01*
X4985514Y4458316D01*
X4983905Y4439922D01*
X4981830Y4416209D01*
X4983533Y4409853D01*
X4992773Y4375365D01*
X4994192Y4368963D01*
X5001532Y4327339D01*
X5004822Y4321640D01*
X5005987Y4318440D01*
X5010035Y4308665D01*
X5011471Y4305585D01*
X5013173Y4299234D01*
X5016946Y4293846D01*
X5016947Y4293843D01*
X5037422Y4264600D01*
X5040945Y4259071D01*
X5058793Y4228159D01*
X5058795Y4228156D01*
X5062083Y4222462D01*
X5067119Y4218236D01*
X5067121Y4218234D01*
X5094464Y4195291D01*
X5099300Y4190859D01*
X5296453Y3993706D01*
X5318193Y3947086D01*
X5304879Y3897399D01*
X5274405Y3872077D01*
X5154474Y3817548D01*
X5113411Y3782166D01*
X5054823Y3731684D01*
X5054820Y3731681D01*
X5050769Y3728190D01*
X5047858Y3723699D01*
X4988822Y3632617D01*
X4976312Y3613317D01*
X4964307Y3573174D01*
X4944266Y3506161D01*
X4937089Y3482164D01*
X4937056Y3476809D01*
X4937056Y3476807D01*
X4936894Y3450219D01*
X4936253Y3345275D01*
X4973871Y3213652D01*
X5046919Y3097879D01*
X5149524Y3007261D01*
X5154371Y3004985D01*
X5154373Y3004984D01*
X5194906Y2985954D01*
X5273439Y2949083D01*
X5319490Y2941913D01*
X5374506Y2933346D01*
X5374511Y2933346D01*
X5377373Y2932900D01*
X5448912Y2932900D01*
X5487581Y2938438D01*
X5544807Y2946633D01*
X5544811Y2946634D01*
X5550110Y2947393D01*
X5554984Y2949609D01*
X5554987Y2949610D01*
X5650906Y2993222D01*
X5674726Y3004052D01*
X5724629Y3047051D01*
X5774377Y3089916D01*
X5774380Y3089919D01*
X5778431Y3093410D01*
X5807848Y3138794D01*
X5843896Y3194410D01*
X5884951Y3225403D01*
X5936323Y3222756D01*
X5973974Y3187707D01*
X5982200Y3153508D01*
X5982200Y3140259D01*
X5985897Y3130102D01*
X5991269Y3127000D01*
X6770141Y3127000D01*
X6780298Y3130697D01*
X6783400Y3136069D01*
X6783400Y3322700D01*
X6800993Y3371038D01*
X6845542Y3396758D01*
X6858562Y3397900D01*
X6859562Y3397900D01*
X6860563Y3397901D01*
X6908909Y3380332D01*
X6934651Y3335796D01*
X6935800Y3322701D01*
X6935800Y3140259D01*
X6939497Y3130102D01*
X6944869Y3127000D01*
X7723741Y3127000D01*
X7733898Y3130697D01*
X7735392Y3133284D01*
X7774797Y3166349D01*
X7826237Y3166349D01*
X7853691Y3148858D01*
X9325850Y1676699D01*
X9330283Y1671862D01*
X9357452Y1639483D01*
X9363149Y1636194D01*
X9363150Y1636193D01*
X9394055Y1618350D01*
X9399587Y1614826D01*
X9428835Y1594347D01*
X9428837Y1594346D01*
X9434224Y1590574D01*
X9440575Y1588872D01*
X9443666Y1587431D01*
X9453447Y1583380D01*
X9456634Y1582220D01*
X9462329Y1578932D01*
X9478155Y1576141D01*
X9503964Y1571590D01*
X9510366Y1570171D01*
X9537453Y1562914D01*
X9551199Y1559231D01*
X9557751Y1559804D01*
X9557753Y1559804D01*
X9593298Y1562914D01*
X9599852Y1563200D01*
X9762432Y1563200D01*
X9796573Y1555004D01*
X9875494Y1514791D01*
X9881341Y1513865D01*
X9977362Y1498657D01*
X10002800Y1494628D01*
X10028239Y1498657D01*
X10124259Y1513865D01*
X10130106Y1514791D01*
X10209027Y1555004D01*
X10243168Y1563200D01*
X10473632Y1563200D01*
X10507773Y1555004D01*
X10586694Y1514791D01*
X10592541Y1513865D01*
X10688562Y1498657D01*
X10714000Y1494628D01*
X10739439Y1498657D01*
X10835459Y1513865D01*
X10841306Y1514791D01*
X10941098Y1565638D01*
X10950874Y1570619D01*
X10950875Y1570620D01*
X10956151Y1573308D01*
X11047292Y1664449D01*
X11072207Y1713346D01*
X11098952Y1765837D01*
X11105809Y1779294D01*
X11115890Y1842947D01*
X11125046Y1900753D01*
X11125972Y1906600D01*
X11105809Y2033906D01*
X11068477Y2107174D01*
X11049981Y2143474D01*
X11049980Y2143475D01*
X11047292Y2148751D01*
X10956151Y2239892D01*
X10923967Y2256291D01*
X10846579Y2295722D01*
X10846580Y2295722D01*
X10841306Y2298409D01*
X10714000Y2318572D01*
X10586694Y2298409D01*
X10581420Y2295722D01*
X10581421Y2295722D01*
X10507772Y2258196D01*
X10473632Y2250000D01*
X10243168Y2250000D01*
X10209028Y2258196D01*
X10135379Y2295722D01*
X10135380Y2295722D01*
X10130106Y2298409D01*
X10002800Y2318572D01*
X9875494Y2298409D01*
X9870220Y2295722D01*
X9870221Y2295722D01*
X9796572Y2258196D01*
X9762432Y2250000D01*
X9754979Y2250000D01*
X9706641Y2267593D01*
X9701805Y2272026D01*
X8692705Y3281126D01*
X8670965Y3327746D01*
X8684279Y3377433D01*
X8726416Y3406938D01*
X8745879Y3409500D01*
X9210543Y3409501D01*
X9225668Y3409501D01*
X9270270Y3418372D01*
X9318833Y3450821D01*
X9368799Y3463048D01*
X9402391Y3450821D01*
X9433791Y3429840D01*
X9464208Y3388357D01*
X9467212Y3367314D01*
X9467212Y3361658D01*
X9466926Y3355104D01*
X9465166Y3334983D01*
X9463242Y3312997D01*
X9464945Y3306641D01*
X9474185Y3272153D01*
X9475604Y3265751D01*
X9477442Y3255327D01*
X9482944Y3224127D01*
X9486234Y3218428D01*
X9487399Y3215228D01*
X9491447Y3205453D01*
X9492883Y3202373D01*
X9494585Y3196022D01*
X9498358Y3190634D01*
X9498359Y3190631D01*
X9518834Y3161388D01*
X9522357Y3155859D01*
X9540205Y3124947D01*
X9540207Y3124944D01*
X9543495Y3119250D01*
X9548531Y3115024D01*
X9548533Y3115022D01*
X9575876Y3092079D01*
X9580712Y3087647D01*
X9612814Y3055545D01*
X9633914Y3014134D01*
X9635003Y3007261D01*
X9636391Y2998494D01*
X9639077Y2993223D01*
X9639077Y2993222D01*
X9671014Y2930543D01*
X9694908Y2883649D01*
X9786049Y2792508D01*
X9791325Y2789820D01*
X9791326Y2789819D01*
X9839114Y2765470D01*
X9900894Y2733991D01*
X10028200Y2713828D01*
X10155506Y2733991D01*
X10217286Y2765470D01*
X10265074Y2789819D01*
X10265075Y2789820D01*
X10270351Y2792508D01*
X10361492Y2883649D01*
X10385386Y2930543D01*
X10417323Y2993222D01*
X10417323Y2993223D01*
X10420009Y2998494D01*
X10421398Y3007261D01*
X10422486Y3014134D01*
X10443586Y3055545D01*
X10573415Y3185374D01*
X10620035Y3207114D01*
X10626589Y3207400D01*
X11852641Y3207400D01*
X11855866Y3207969D01*
X11855870Y3207969D01*
X11917293Y3218800D01*
X11941861Y3223132D01*
X11967311Y3237826D01*
X12004912Y3247901D01*
X12278916Y3247901D01*
X12327254Y3230308D01*
X12352974Y3185759D01*
X12344041Y3135101D01*
X12332091Y3119527D01*
X12191994Y2979429D01*
X12189138Y2976719D01*
X12160617Y2951039D01*
X12157403Y2943820D01*
X12151240Y2929978D01*
X12145609Y2919608D01*
X12133060Y2900284D01*
X12131824Y2892479D01*
X12131648Y2892021D01*
X12126518Y2874702D01*
X12126415Y2874218D01*
X12123200Y2866997D01*
X12123200Y2843952D01*
X12122274Y2832188D01*
X12118668Y2809421D01*
X12120714Y2801786D01*
X12120740Y2801288D01*
X12123200Y2782609D01*
X12123200Y1265812D01*
X12123097Y1261875D01*
X12121088Y1223552D01*
X12129354Y1202018D01*
X12132698Y1190730D01*
X12137492Y1168177D01*
X12142138Y1161781D01*
X12142338Y1161333D01*
X12150956Y1145460D01*
X12151224Y1145047D01*
X12154057Y1137668D01*
X12170352Y1121373D01*
X12178010Y1112409D01*
X12191565Y1093751D01*
X12198411Y1089798D01*
X12198767Y1089478D01*
X12213731Y1077994D01*
X12700642Y591083D01*
X12703352Y588228D01*
X12729033Y559706D01*
X12750088Y550332D01*
X12760460Y544701D01*
X12779788Y532149D01*
X12787597Y530912D01*
X12788056Y530736D01*
X12805370Y525607D01*
X12805854Y525504D01*
X12813075Y522289D01*
X12836120Y522289D01*
X12847885Y521363D01*
X12870651Y517757D01*
X12878286Y519803D01*
X12878784Y519829D01*
X12897463Y522289D01*
X20186856Y522289D01*
X20190793Y522186D01*
X20229116Y520177D01*
X20250650Y528443D01*
X20261938Y531787D01*
X20284491Y536581D01*
X20290887Y541227D01*
X20291335Y541427D01*
X20307208Y550045D01*
X20307621Y550313D01*
X20315000Y553146D01*
X20331295Y569441D01*
X20340259Y577099D01*
X20358917Y590654D01*
X20362870Y597500D01*
X20363190Y597856D01*
X20374674Y612820D01*
X21869028Y2107174D01*
X21915648Y2128914D01*
X21922202Y2129200D01*
X22809701Y2129200D01*
X22858039Y2111607D01*
X22883759Y2067058D01*
X22884901Y2054000D01*
X22884901Y2030544D01*
X22893772Y1985942D01*
X22927566Y1935366D01*
X22933723Y1931252D01*
X22971983Y1905687D01*
X22971984Y1905686D01*
X22978142Y1901572D01*
X23022743Y1892700D01*
X23337757Y1892700D01*
X23652856Y1892701D01*
X23697458Y1901572D01*
X23748034Y1935366D01*
X23781828Y1985942D01*
X23790700Y2030543D01*
X23790700Y2197618D01*
X25044201Y2197618D01*
X25044473Y2193114D01*
X25054146Y2113172D01*
X25056507Y2103874D01*
X25106637Y1977258D01*
X25111625Y1968406D01*
X25193786Y1860163D01*
X25200963Y1852986D01*
X25309206Y1770825D01*
X25318058Y1765837D01*
X25444680Y1715705D01*
X25453965Y1713347D01*
X25533899Y1703674D01*
X25538433Y1703400D01*
X26377141Y1703400D01*
X26387298Y1707097D01*
X26390400Y1712469D01*
X26390400Y2401341D01*
X26386703Y2411498D01*
X26381331Y2414600D01*
X25057460Y2414600D01*
X25047303Y2410903D01*
X25044201Y2405531D01*
X25044201Y2197618D01*
X23790700Y2197618D01*
X23790699Y2660656D01*
X23781828Y2705258D01*
X23749379Y2753821D01*
X23737152Y2803787D01*
X23749379Y2837379D01*
X23777713Y2879783D01*
X23777714Y2879784D01*
X23781828Y2885942D01*
X23790700Y2930543D01*
X23790700Y2954000D01*
X23808293Y3002338D01*
X23852842Y3028058D01*
X23865900Y3029200D01*
X25005826Y3029200D01*
X25054164Y3011607D01*
X25079884Y2967058D01*
X25075745Y2926318D01*
X25056506Y2877723D01*
X25054147Y2868435D01*
X25044474Y2788501D01*
X25044200Y2783967D01*
X25044200Y2580259D01*
X25047897Y2570102D01*
X25053269Y2567000D01*
X26377141Y2567000D01*
X26387298Y2570697D01*
X26390400Y2576069D01*
X26390400Y3264940D01*
X26386703Y3275097D01*
X26381331Y3278199D01*
X25733817Y3278199D01*
X25685479Y3295792D01*
X25659759Y3340341D01*
X25668692Y3390999D01*
X25680643Y3406573D01*
X26494944Y4220874D01*
X26541564Y4242614D01*
X26548118Y4242900D01*
X27397084Y4242900D01*
X27484150Y4253436D01*
X27576867Y4290145D01*
X27615390Y4305397D01*
X27615391Y4305398D01*
X27620158Y4307285D01*
X27621321Y4308168D01*
X27670634Y4316331D01*
X27714910Y4290145D01*
X27732000Y4242414D01*
X27732000Y3278606D01*
X27714407Y3230268D01*
X27669858Y3204548D01*
X27619883Y3213091D01*
X27615140Y3215763D01*
X27488520Y3265895D01*
X27479235Y3268253D01*
X27399301Y3277926D01*
X27394767Y3278200D01*
X26556059Y3278200D01*
X26545902Y3274503D01*
X26542800Y3269131D01*
X26542800Y1716660D01*
X26546497Y1706503D01*
X26551869Y1703401D01*
X27394782Y1703401D01*
X27399286Y1703673D01*
X27479228Y1713346D01*
X27488526Y1715707D01*
X27615140Y1765837D01*
X27619883Y1768509D01*
X27670632Y1776911D01*
X27714909Y1750726D01*
X27732000Y1702994D01*
X27732000Y1029962D01*
X27729439Y1010505D01*
X27726624Y1000000D01*
X27729186Y990437D01*
X27729186Y980535D01*
X27728490Y980535D01*
X27729214Y971711D01*
X27716440Y842011D01*
X27713564Y827554D01*
X27669629Y682718D01*
X27663991Y669107D01*
X27599217Y547924D01*
X27592645Y535629D01*
X27584456Y523373D01*
X27488440Y406378D01*
X27478022Y395960D01*
X27361028Y299945D01*
X27348772Y291755D01*
X27215293Y220409D01*
X27201682Y214771D01*
X27056847Y170836D01*
X27042390Y167960D01*
X26912688Y155186D01*
X26903865Y155910D01*
X26903865Y155214D01*
X26893963Y155214D01*
X26884400Y157776D01*
X26873895Y154961D01*
X26854438Y152400D01*
X1029962Y152400D01*
X1010505Y154961D01*
X1000000Y157776D01*
X990437Y155214D01*
X980535Y155214D01*
X980535Y155910D01*
X971712Y155186D01*
X842010Y167960D01*
X827553Y170836D01*
X682718Y214771D01*
X669107Y220409D01*
X535628Y291755D01*
X523372Y299945D01*
X406378Y395960D01*
X395960Y406378D01*
X299944Y523373D01*
X291755Y535629D01*
X285183Y547924D01*
X220409Y669107D01*
X214771Y682718D01*
X170836Y827554D01*
X167960Y842011D01*
X155186Y971711D01*
X155910Y980537D01*
X155214Y980537D01*
X155214Y990438D01*
X157776Y1000000D01*
X154894Y1010756D01*
X153581Y1030737D01*
X152400Y1030737D01*
X152400Y1896422D01*
X816219Y1896422D01*
X818366Y1862299D01*
X820124Y1853085D01*
X868138Y1705309D01*
X872134Y1696820D01*
X955385Y1565638D01*
X961373Y1558399D01*
X1074629Y1452045D01*
X1082230Y1446522D01*
X1218381Y1371672D01*
X1227110Y1368216D01*
X1377597Y1329578D01*
X1386917Y1328400D01*
X1675141Y1328400D01*
X1685298Y1332097D01*
X1688400Y1337469D01*
X1688400Y1341659D01*
X1840800Y1341659D01*
X1844497Y1331502D01*
X1849869Y1328400D01*
X2103274Y1328400D01*
X2107995Y1328697D01*
X2223443Y1343281D01*
X2232533Y1345615D01*
X2376995Y1402812D01*
X2385222Y1407335D01*
X2510916Y1498657D01*
X2517766Y1505090D01*
X2616805Y1624807D01*
X2621829Y1632724D01*
X2687985Y1773313D01*
X2690887Y1782244D01*
X2711743Y1891574D01*
X2710958Y1896422D01*
X4746219Y1896422D01*
X4748366Y1862299D01*
X4750124Y1853085D01*
X4798138Y1705309D01*
X4802134Y1696820D01*
X4885385Y1565638D01*
X4891373Y1558399D01*
X5004629Y1452045D01*
X5012230Y1446522D01*
X5148381Y1371672D01*
X5157110Y1368216D01*
X5307597Y1329578D01*
X5316917Y1328400D01*
X5855141Y1328400D01*
X5865298Y1332097D01*
X5868400Y1337469D01*
X5868400Y1341659D01*
X6020800Y1341659D01*
X6024497Y1331502D01*
X6029869Y1328400D01*
X6533274Y1328400D01*
X6537995Y1328697D01*
X6653443Y1343281D01*
X6662533Y1345615D01*
X6806995Y1402812D01*
X6815222Y1407335D01*
X6940916Y1498657D01*
X6947766Y1505090D01*
X7046805Y1624807D01*
X7051829Y1632724D01*
X7117985Y1773313D01*
X7120887Y1782244D01*
X7141743Y1891574D01*
X7140015Y1902246D01*
X7137288Y1904600D01*
X6034059Y1904600D01*
X6023902Y1900903D01*
X6020800Y1895531D01*
X6020800Y1341659D01*
X5868400Y1341659D01*
X5868400Y1891341D01*
X5864703Y1901498D01*
X5859331Y1904600D01*
X4758964Y1904600D01*
X4748807Y1900903D01*
X4746219Y1896422D01*
X2710958Y1896422D01*
X2710015Y1902246D01*
X2707288Y1904600D01*
X1854059Y1904600D01*
X1843902Y1900903D01*
X1840800Y1895531D01*
X1840800Y1341659D01*
X1688400Y1341659D01*
X1688400Y1891341D01*
X1684703Y1901498D01*
X1679331Y1904600D01*
X828964Y1904600D01*
X818807Y1900903D01*
X816219Y1896422D01*
X152400Y1896422D01*
X152400Y2070026D01*
X817457Y2070026D01*
X819185Y2059354D01*
X821912Y2057000D01*
X1675141Y2057000D01*
X1685298Y2060697D01*
X1688400Y2066069D01*
X1688400Y2070259D01*
X1840800Y2070259D01*
X1844497Y2060102D01*
X1849869Y2057000D01*
X2700236Y2057000D01*
X2710393Y2060697D01*
X2712981Y2065178D01*
X2712676Y2070026D01*
X4747457Y2070026D01*
X4749185Y2059354D01*
X4751912Y2057000D01*
X5855141Y2057000D01*
X5865298Y2060697D01*
X5868400Y2066069D01*
X5868400Y2627964D01*
X5859330Y2633200D01*
X5355926Y2633200D01*
X5351205Y2632903D01*
X5235757Y2618319D01*
X5226667Y2615985D01*
X5082205Y2558788D01*
X5073978Y2554265D01*
X4948284Y2462943D01*
X4941434Y2456510D01*
X4842395Y2336793D01*
X4837371Y2328876D01*
X4771215Y2188287D01*
X4768313Y2179356D01*
X4747457Y2070026D01*
X2712676Y2070026D01*
X2710834Y2099301D01*
X2709076Y2108515D01*
X2661062Y2256291D01*
X2657066Y2264780D01*
X2573815Y2395962D01*
X2567827Y2403201D01*
X2454571Y2509555D01*
X2446970Y2515078D01*
X2310819Y2589928D01*
X2302090Y2593384D01*
X2151603Y2632022D01*
X2142283Y2633200D01*
X1854059Y2633200D01*
X1843902Y2629503D01*
X1840800Y2624131D01*
X1840800Y2070259D01*
X1688400Y2070259D01*
X1688400Y2619941D01*
X1684703Y2630098D01*
X1679331Y2633200D01*
X1425926Y2633200D01*
X1421205Y2632903D01*
X1305757Y2618319D01*
X1296667Y2615985D01*
X1152205Y2558788D01*
X1143978Y2554265D01*
X1018284Y2462943D01*
X1011434Y2456510D01*
X912395Y2336793D01*
X907371Y2328876D01*
X841215Y2188287D01*
X838313Y2179356D01*
X817457Y2070026D01*
X152400Y2070026D01*
X152400Y2739484D01*
X5982200Y2739484D01*
X5982921Y2732166D01*
X5988816Y2702530D01*
X5986980Y2690599D01*
X5988077Y2689883D01*
X5990077Y2688416D01*
X6018648Y2645640D01*
X6020800Y2627779D01*
X6020800Y2070259D01*
X6024497Y2060102D01*
X6029869Y2057000D01*
X7130236Y2057000D01*
X7140393Y2060697D01*
X7142981Y2065178D01*
X7140834Y2099301D01*
X7139076Y2108515D01*
X7091062Y2256291D01*
X7087066Y2264780D01*
X7003815Y2395962D01*
X6997827Y2403201D01*
X6928416Y2468382D01*
X6905223Y2514296D01*
X6916969Y2564377D01*
X6958159Y2595190D01*
X6979894Y2598400D01*
X7595916Y2598400D01*
X7603237Y2599121D01*
X7636798Y2605797D01*
X7650223Y2611358D01*
X7688320Y2636814D01*
X7698586Y2647080D01*
X7724042Y2685177D01*
X7729603Y2698602D01*
X7736279Y2732163D01*
X7737000Y2739484D01*
X7737000Y2961341D01*
X7733303Y2971498D01*
X7727931Y2974600D01*
X5995459Y2974600D01*
X5985302Y2970903D01*
X5982200Y2965531D01*
X5982200Y2739484D01*
X152400Y2739484D01*
X152400Y10536422D01*
X816219Y10536422D01*
X818366Y10502299D01*
X820124Y10493085D01*
X868138Y10345309D01*
X872134Y10336820D01*
X955385Y10205638D01*
X961373Y10198399D01*
X1074629Y10092045D01*
X1082230Y10086522D01*
X1218381Y10011672D01*
X1227110Y10008216D01*
X1377597Y9969578D01*
X1386917Y9968400D01*
X1675141Y9968400D01*
X1685298Y9972097D01*
X1688400Y9977469D01*
X1688400Y9981659D01*
X1840800Y9981659D01*
X1844497Y9971502D01*
X1849869Y9968400D01*
X2103274Y9968400D01*
X2107995Y9968697D01*
X2223443Y9983281D01*
X2232533Y9985615D01*
X2376995Y10042812D01*
X2385222Y10047335D01*
X2510916Y10138657D01*
X2517766Y10145090D01*
X2616805Y10264807D01*
X2621829Y10272724D01*
X2687985Y10413313D01*
X2690887Y10422244D01*
X2711743Y10531574D01*
X2710958Y10536422D01*
X4746219Y10536422D01*
X4748366Y10502299D01*
X4750124Y10493085D01*
X4798138Y10345309D01*
X4802134Y10336820D01*
X4885385Y10205638D01*
X4891373Y10198399D01*
X5004629Y10092045D01*
X5012230Y10086522D01*
X5148381Y10011672D01*
X5157110Y10008216D01*
X5307597Y9969578D01*
X5316917Y9968400D01*
X5855140Y9968400D01*
X5868440Y9973241D01*
X5868400Y9973489D01*
X5868400Y10531341D01*
X5864703Y10541498D01*
X5859331Y10544600D01*
X4758964Y10544600D01*
X4748807Y10540903D01*
X4746219Y10536422D01*
X2710958Y10536422D01*
X2710015Y10542246D01*
X2707288Y10544600D01*
X1854059Y10544600D01*
X1843902Y10540903D01*
X1840800Y10535531D01*
X1840800Y9981659D01*
X1688400Y9981659D01*
X1688400Y10531341D01*
X1684703Y10541498D01*
X1679331Y10544600D01*
X828964Y10544600D01*
X818807Y10540903D01*
X816219Y10536422D01*
X152400Y10536422D01*
X152400Y10710026D01*
X817457Y10710026D01*
X819185Y10699354D01*
X821912Y10697000D01*
X1675141Y10697000D01*
X1685298Y10700697D01*
X1688400Y10706069D01*
X1688400Y10710259D01*
X1840800Y10710259D01*
X1844497Y10700102D01*
X1849869Y10697000D01*
X2700236Y10697000D01*
X2710393Y10700697D01*
X2712981Y10705178D01*
X2712676Y10710026D01*
X4747457Y10710026D01*
X4749185Y10699354D01*
X4751912Y10697000D01*
X5855141Y10697000D01*
X5865298Y10700697D01*
X5868400Y10706069D01*
X5868400Y10710259D01*
X6020800Y10710259D01*
X6024497Y10700102D01*
X6029869Y10697000D01*
X7130236Y10697000D01*
X7140393Y10700697D01*
X7142981Y10705178D01*
X7140834Y10739301D01*
X7139076Y10748515D01*
X7091062Y10896291D01*
X7087066Y10904780D01*
X7003815Y11035962D01*
X6997827Y11043201D01*
X6884571Y11149555D01*
X6876970Y11155078D01*
X6740819Y11229928D01*
X6732090Y11233384D01*
X6581603Y11272022D01*
X6572283Y11273200D01*
X6034059Y11273200D01*
X6023902Y11269503D01*
X6020800Y11264131D01*
X6020800Y10710259D01*
X5868400Y10710259D01*
X5868400Y11259941D01*
X5864703Y11270098D01*
X5859331Y11273200D01*
X5355926Y11273200D01*
X5351205Y11272903D01*
X5235757Y11258319D01*
X5226667Y11255985D01*
X5082205Y11198788D01*
X5073978Y11194265D01*
X4948284Y11102943D01*
X4941434Y11096510D01*
X4842395Y10976793D01*
X4837371Y10968876D01*
X4771215Y10828287D01*
X4768313Y10819356D01*
X4747457Y10710026D01*
X2712676Y10710026D01*
X2710834Y10739301D01*
X2709076Y10748515D01*
X2661062Y10896291D01*
X2657066Y10904780D01*
X2573815Y11035962D01*
X2567827Y11043201D01*
X2454571Y11149555D01*
X2446970Y11155078D01*
X2310819Y11229928D01*
X2302090Y11233384D01*
X2151603Y11272022D01*
X2142283Y11273200D01*
X1854059Y11273200D01*
X1843902Y11269503D01*
X1840800Y11264131D01*
X1840800Y10710259D01*
X1688400Y10710259D01*
X1688400Y11259941D01*
X1684703Y11270098D01*
X1679331Y11273200D01*
X1425926Y11273200D01*
X1421205Y11272903D01*
X1305757Y11258319D01*
X1296667Y11255985D01*
X1152205Y11198788D01*
X1143978Y11194265D01*
X1018284Y11102943D01*
X1011434Y11096510D01*
X912395Y10976793D01*
X907371Y10968876D01*
X841215Y10828287D01*
X838313Y10819356D01*
X817457Y10710026D01*
X152400Y10710026D01*
X152400Y11470038D01*
X154961Y11489495D01*
X157776Y11500000D01*
X155214Y11509563D01*
X155214Y11519465D01*
X155910Y11519465D01*
X155186Y11528289D01*
X158853Y11565516D01*
X167960Y11657990D01*
X170836Y11672447D01*
X170867Y11672549D01*
X174826Y11685600D01*
X12715028Y11685600D01*
X12715954Y11679753D01*
X12717095Y11672549D01*
X12735191Y11558294D01*
X12752142Y11525027D01*
X12770185Y11489616D01*
X12793708Y11443449D01*
X12884849Y11352308D01*
X12890126Y11349619D01*
X12894913Y11346141D01*
X12893781Y11344583D01*
X12923223Y11313007D01*
X12929200Y11283627D01*
X12929200Y10470759D01*
X12944932Y10381539D01*
X12948221Y10375843D01*
X12948221Y10375842D01*
X12959626Y10356089D01*
X12969701Y10318488D01*
X12969701Y9735744D01*
X12978572Y9691142D01*
X13012366Y9640566D01*
X13018523Y9636452D01*
X13056783Y9610887D01*
X13056784Y9610886D01*
X13062942Y9606772D01*
X13070206Y9605327D01*
X13103783Y9598648D01*
X13107543Y9597900D01*
X13272577Y9597900D01*
X13437656Y9597901D01*
X13482258Y9606772D01*
X13488419Y9610889D01*
X13494487Y9613402D01*
X13545877Y9615645D01*
X13552043Y9613401D01*
X13570399Y9605797D01*
X13603963Y9599121D01*
X13611284Y9598400D01*
X13683141Y9598400D01*
X13693298Y9602097D01*
X13696400Y9607469D01*
X13696400Y9611659D01*
X13848800Y9611659D01*
X13852497Y9601502D01*
X13857869Y9598400D01*
X13933916Y9598400D01*
X13941237Y9599121D01*
X13974801Y9605797D01*
X13993157Y9613401D01*
X14044548Y9615646D01*
X14050715Y9613401D01*
X14056783Y9610887D01*
X14062942Y9606772D01*
X14070206Y9605327D01*
X14103783Y9598648D01*
X14107543Y9597900D01*
X14272577Y9597900D01*
X14437656Y9597901D01*
X14482258Y9606772D01*
X14488419Y9610889D01*
X14494487Y9613402D01*
X14545877Y9615645D01*
X14552043Y9613401D01*
X14570399Y9605797D01*
X14603963Y9599121D01*
X14611284Y9598400D01*
X14683141Y9598400D01*
X14693298Y9602097D01*
X14696400Y9607469D01*
X14696400Y11389941D01*
X14692703Y11400098D01*
X14687331Y11403200D01*
X14611284Y11403200D01*
X14603963Y11402479D01*
X14570399Y11395803D01*
X14552043Y11388199D01*
X14500652Y11385954D01*
X14494485Y11388199D01*
X14488417Y11390713D01*
X14482258Y11394828D01*
X14474989Y11396274D01*
X14441282Y11402979D01*
X14441281Y11402979D01*
X14437657Y11403700D01*
X14272623Y11403700D01*
X14107544Y11403699D01*
X14062942Y11394828D01*
X14056781Y11390711D01*
X14050713Y11388198D01*
X13999323Y11385955D01*
X13993157Y11388199D01*
X13974801Y11395803D01*
X13941237Y11402479D01*
X13933916Y11403200D01*
X13862059Y11403200D01*
X13851902Y11399503D01*
X13848800Y11394131D01*
X13848800Y9611659D01*
X13696400Y9611659D01*
X13696400Y11389941D01*
X13692703Y11400098D01*
X13680731Y11407010D01*
X13642862Y11420793D01*
X13617142Y11465342D01*
X13616000Y11478400D01*
X13616000Y11521742D01*
X13616286Y11528296D01*
X13619396Y11563837D01*
X13619396Y11563839D01*
X13619969Y11570391D01*
X13614756Y11589847D01*
X13609029Y11611224D01*
X13607610Y11617626D01*
X13601410Y11652784D01*
X13600268Y11659261D01*
X13596980Y11664956D01*
X13595820Y11668143D01*
X13591769Y11677924D01*
X13590328Y11681015D01*
X13588626Y11687366D01*
X13581457Y11697605D01*
X13564374Y11722003D01*
X13560850Y11727535D01*
X13543009Y11758437D01*
X13543007Y11758439D01*
X13539717Y11764138D01*
X13536556Y11766790D01*
X13520550Y11801913D01*
X13519735Y11807060D01*
X13519735Y11807061D01*
X13518809Y11812906D01*
X13512972Y11824363D01*
X13462981Y11922474D01*
X13462980Y11922475D01*
X13460292Y11927751D01*
X13369151Y12018892D01*
X13359280Y12023922D01*
X13259579Y12074722D01*
X13259580Y12074722D01*
X13254306Y12077409D01*
X13127000Y12097572D01*
X12999694Y12077409D01*
X12994420Y12074722D01*
X12994421Y12074722D01*
X12894721Y12023922D01*
X12884849Y12018892D01*
X12793708Y11927751D01*
X12791020Y11922475D01*
X12791019Y11922474D01*
X12777159Y11895273D01*
X12735191Y11812906D01*
X12734265Y11807060D01*
X12734265Y11807059D01*
X12719935Y11716579D01*
X12715028Y11685600D01*
X174826Y11685600D01*
X214771Y11817282D01*
X220409Y11830893D01*
X291755Y11964372D01*
X299945Y11976628D01*
X300033Y11976735D01*
X395960Y12093622D01*
X406378Y12104040D01*
X523373Y12200056D01*
X535629Y12208245D01*
X536877Y12208912D01*
X669107Y12279591D01*
X682718Y12285229D01*
X827554Y12329164D01*
X842010Y12332040D01*
X971712Y12344814D01*
X980535Y12344090D01*
X980535Y12344786D01*
X990437Y12344786D01*
X1000000Y12342224D01*
X1010505Y12345039D01*
X1029962Y12347600D01*
X21099744Y12347600D01*
X21148082Y12330007D01*
G37*
%TD.AperFunction*%
%TA.AperFunction,Conductor*%
G36*
X16662403Y3595200D02*
G01*
X16685448Y3595200D01*
X16697213Y3594274D01*
X16712173Y3591904D01*
X16712175Y3591904D01*
X16719979Y3590668D01*
X16727614Y3592714D01*
X16728094Y3592739D01*
X16746794Y3595200D01*
X18035416Y3595200D01*
X18083754Y3577607D01*
X18088590Y3573174D01*
X18538135Y3123629D01*
X18559875Y3077009D01*
X18546561Y3027322D01*
X18504424Y2997817D01*
X18470290Y2996700D01*
X18441237Y3002479D01*
X18433916Y3003200D01*
X18362059Y3003200D01*
X18351902Y2999503D01*
X18348800Y2994131D01*
X18348800Y2099800D01*
X18331207Y2051462D01*
X18286658Y2025742D01*
X18273600Y2024600D01*
X18271600Y2024600D01*
X18223262Y2042193D01*
X18197542Y2086742D01*
X18196400Y2099800D01*
X18196400Y2989941D01*
X18192703Y3000098D01*
X18187331Y3003200D01*
X18111284Y3003200D01*
X18103963Y3002479D01*
X18070399Y2995803D01*
X18052043Y2988199D01*
X18000652Y2985954D01*
X17994485Y2988199D01*
X17988417Y2990713D01*
X17982258Y2994828D01*
X17967232Y2997817D01*
X17941282Y3002979D01*
X17941281Y3002979D01*
X17937657Y3003700D01*
X17772623Y3003700D01*
X17607544Y3003699D01*
X17582850Y2998788D01*
X17570211Y2996274D01*
X17570210Y2996274D01*
X17562942Y2994828D01*
X17556780Y2990711D01*
X17551378Y2988473D01*
X17499987Y2986230D01*
X17493821Y2988474D01*
X17488417Y2990712D01*
X17482258Y2994828D01*
X17467232Y2997817D01*
X17441282Y3002979D01*
X17441281Y3002979D01*
X17437657Y3003700D01*
X17272623Y3003700D01*
X17107544Y3003699D01*
X17067509Y2995736D01*
X17016670Y3003561D01*
X16982754Y3042236D01*
X16979285Y3053854D01*
X16976352Y3067650D01*
X16974708Y3075384D01*
X16970063Y3081777D01*
X16969861Y3082231D01*
X16961242Y3098104D01*
X16960975Y3098515D01*
X16958143Y3105893D01*
X16941848Y3122188D01*
X16934190Y3131152D01*
X16920635Y3149810D01*
X16913789Y3153763D01*
X16913433Y3154083D01*
X16898469Y3165567D01*
X16593966Y3470070D01*
X16572226Y3516690D01*
X16585540Y3566377D01*
X16627677Y3595882D01*
X16659027Y3596703D01*
X16662403Y3595200D01*
G37*
%TD.AperFunction*%
%TA.AperFunction,Conductor*%
G36*
X21703396Y6316807D02*
G01*
X21729116Y6272258D01*
X21720183Y6221600D01*
X21696840Y6196676D01*
X21657566Y6170434D01*
X21623772Y6119858D01*
X21614900Y6075257D01*
X21614901Y5445144D01*
X21623772Y5400542D01*
X21627888Y5394382D01*
X21656521Y5351530D01*
X21668748Y5301564D01*
X21656521Y5267971D01*
X21628358Y5225823D01*
X21622797Y5212398D01*
X21616121Y5178837D01*
X21615400Y5171516D01*
X21615400Y4949659D01*
X21619097Y4939502D01*
X21624469Y4936400D01*
X22068800Y4936400D01*
X22117138Y4918807D01*
X22142858Y4874258D01*
X22144000Y4861200D01*
X22144000Y4421059D01*
X22147697Y4410902D01*
X22153069Y4407800D01*
X22382812Y4407800D01*
X22382812Y4406611D01*
X22428264Y4394957D01*
X22458223Y4353141D01*
X22461000Y4332894D01*
X22461000Y4135584D01*
X22443407Y4087246D01*
X22438974Y4082410D01*
X20958791Y2602226D01*
X20912171Y2580486D01*
X20905617Y2580200D01*
X20642632Y2580200D01*
X20594294Y2597793D01*
X20589458Y2602226D01*
X20352993Y2838691D01*
X20112657Y3079026D01*
X20090917Y3125646D01*
X20104231Y3175333D01*
X20146368Y3204838D01*
X20165831Y3207400D01*
X20252641Y3207400D01*
X20255866Y3207969D01*
X20255870Y3207969D01*
X20317293Y3218800D01*
X20341861Y3223132D01*
X20367311Y3237826D01*
X20404912Y3247901D01*
X20987656Y3247901D01*
X21032258Y3256772D01*
X21082834Y3290566D01*
X21102201Y3319551D01*
X21112513Y3334983D01*
X21112514Y3334984D01*
X21116628Y3341142D01*
X21122946Y3372902D01*
X21124779Y3382118D01*
X21124779Y3382119D01*
X21125500Y3385743D01*
X21125499Y3566261D01*
X21143092Y3614597D01*
X21188935Y3640534D01*
X21299620Y3658065D01*
X21305467Y3658991D01*
X21394700Y3704458D01*
X21415035Y3714819D01*
X21415036Y3714820D01*
X21420312Y3717508D01*
X21511453Y3808649D01*
X21514205Y3814049D01*
X21553180Y3890542D01*
X21569970Y3923494D01*
X21586522Y4028000D01*
X21589207Y4044953D01*
X21590133Y4050800D01*
X21587907Y4064858D01*
X21570896Y4172259D01*
X21569970Y4178106D01*
X21537101Y4242614D01*
X21514142Y4287674D01*
X21514141Y4287675D01*
X21511453Y4292951D01*
X21420312Y4384092D01*
X21414152Y4387231D01*
X21355984Y4416869D01*
X21305467Y4442609D01*
X21188936Y4461065D01*
X21143946Y4486003D01*
X21125500Y4535339D01*
X21125500Y4548884D01*
X21615400Y4548884D01*
X21616121Y4541563D01*
X21622797Y4508002D01*
X21628358Y4494577D01*
X21653814Y4456480D01*
X21664080Y4446214D01*
X21702177Y4420758D01*
X21715602Y4415197D01*
X21749163Y4408521D01*
X21756484Y4407800D01*
X21978341Y4407800D01*
X21988498Y4411497D01*
X21991600Y4416869D01*
X21991600Y4770741D01*
X21987903Y4780898D01*
X21982531Y4784000D01*
X21628659Y4784000D01*
X21618502Y4780303D01*
X21615400Y4774931D01*
X21615400Y4548884D01*
X21125500Y4548884D01*
X21125499Y4712159D01*
X21125499Y4715856D01*
X21118238Y4752364D01*
X21118074Y4753189D01*
X21118074Y4753190D01*
X21116628Y4760458D01*
X21112511Y4766620D01*
X21110273Y4772022D01*
X21108030Y4823413D01*
X21110274Y4829579D01*
X21112512Y4834983D01*
X21116628Y4841142D01*
X21125500Y4885743D01*
X21125499Y5215856D01*
X21116628Y5260458D01*
X21112511Y5266620D01*
X21110273Y5272022D01*
X21108030Y5323413D01*
X21110274Y5329579D01*
X21112512Y5334983D01*
X21116628Y5341142D01*
X21125500Y5385743D01*
X21125499Y5715856D01*
X21116628Y5760458D01*
X21112511Y5766620D01*
X21110273Y5772022D01*
X21108030Y5823413D01*
X21110274Y5829579D01*
X21112512Y5834983D01*
X21116628Y5841142D01*
X21121516Y5865714D01*
X21124779Y5882118D01*
X21124779Y5882119D01*
X21125500Y5885743D01*
X21125499Y6215856D01*
X21119796Y6244531D01*
X21127622Y6295372D01*
X21166298Y6329288D01*
X21193551Y6334400D01*
X21655058Y6334400D01*
X21703396Y6316807D01*
G37*
%TD.AperFunction*%
%TA.AperFunction,Conductor*%
G36*
X15831583Y4288807D02*
G01*
X15857303Y4244258D01*
X15848370Y4193600D01*
X15817385Y4164196D01*
X15811046Y4160966D01*
X15739521Y4124522D01*
X15729649Y4119492D01*
X15638508Y4028351D01*
X15635820Y4023075D01*
X15635819Y4023074D01*
X15620902Y3993797D01*
X15579991Y3913506D01*
X15574442Y3878468D01*
X15563384Y3808649D01*
X15559828Y3786200D01*
X15579991Y3658894D01*
X15638508Y3544049D01*
X15729649Y3452908D01*
X15844494Y3394391D01*
X15971800Y3374228D01*
X15977647Y3375154D01*
X16025409Y3382718D01*
X16075904Y3372902D01*
X16090346Y3361618D01*
X16319891Y3132073D01*
X16341631Y3085453D01*
X16328317Y3035766D01*
X16286180Y3006261D01*
X16266721Y3003699D01*
X16107544Y3003699D01*
X16082850Y2998788D01*
X16070211Y2996274D01*
X16070210Y2996274D01*
X16062942Y2994828D01*
X16056780Y2990711D01*
X16051378Y2988473D01*
X15999987Y2986230D01*
X15993821Y2988474D01*
X15988417Y2990712D01*
X15982258Y2994828D01*
X15967232Y2997817D01*
X15941282Y3002979D01*
X15941281Y3002979D01*
X15937657Y3003700D01*
X15772623Y3003700D01*
X15607544Y3003699D01*
X15582850Y2998788D01*
X15570211Y2996274D01*
X15570210Y2996274D01*
X15562942Y2994828D01*
X15556780Y2990711D01*
X15551378Y2988473D01*
X15499987Y2986230D01*
X15493821Y2988474D01*
X15488417Y2990712D01*
X15482258Y2994828D01*
X15467232Y2997817D01*
X15441282Y3002979D01*
X15441281Y3002979D01*
X15437657Y3003700D01*
X15272623Y3003700D01*
X15107544Y3003699D01*
X15082850Y2998788D01*
X15070211Y2996274D01*
X15070210Y2996274D01*
X15062942Y2994828D01*
X15056780Y2990711D01*
X15051378Y2988473D01*
X14999987Y2986230D01*
X14993821Y2988474D01*
X14988417Y2990712D01*
X14982258Y2994828D01*
X14967232Y2997817D01*
X14941282Y3002979D01*
X14941281Y3002979D01*
X14937657Y3003700D01*
X14926580Y3003700D01*
X14750680Y3003699D01*
X14702344Y3021292D01*
X14676624Y3065840D01*
X14676407Y3090663D01*
X14681046Y3119953D01*
X14681046Y3119954D01*
X14681972Y3125800D01*
X14680979Y3132073D01*
X14662735Y3247259D01*
X14661809Y3253106D01*
X14606519Y3361618D01*
X14605981Y3362674D01*
X14605980Y3362675D01*
X14603292Y3367951D01*
X14512151Y3459092D01*
X14397306Y3517609D01*
X14333653Y3527691D01*
X14275847Y3536846D01*
X14270000Y3537772D01*
X14264153Y3536846D01*
X14206347Y3527691D01*
X14142694Y3517609D01*
X14027849Y3459092D01*
X13936708Y3367951D01*
X13934020Y3362675D01*
X13934019Y3362674D01*
X13933481Y3361618D01*
X13878191Y3253106D01*
X13877265Y3247259D01*
X13859022Y3132073D01*
X13858028Y3125800D01*
X13863012Y3094335D01*
X13863593Y3090664D01*
X13853778Y3040169D01*
X13813801Y3007797D01*
X13789324Y3003700D01*
X13782225Y3003700D01*
X13774434Y3003699D01*
X13726096Y3021289D01*
X13700373Y3065836D01*
X13700156Y3090662D01*
X13702296Y3104171D01*
X13702296Y3104174D01*
X13703532Y3111979D01*
X13701486Y3119614D01*
X13701461Y3120094D01*
X13699000Y3138794D01*
X13699000Y4173416D01*
X13716593Y4221754D01*
X13721026Y4226590D01*
X13778810Y4284374D01*
X13825430Y4306114D01*
X13831984Y4306400D01*
X15783245Y4306400D01*
X15831583Y4288807D01*
G37*
%TD.AperFunction*%
%TA.AperFunction,Conductor*%
G36*
X17672660Y9129944D02*
G01*
X17702165Y9087807D01*
X17703801Y9080108D01*
X17713591Y9018294D01*
X17772108Y8903449D01*
X17863249Y8812308D01*
X17868525Y8809620D01*
X17868526Y8809619D01*
X17912406Y8787261D01*
X17978094Y8753791D01*
X17981050Y8753323D01*
X18020530Y8722478D01*
X18031226Y8672163D01*
X18007078Y8626743D01*
X18000006Y8621881D01*
X18000313Y8621459D01*
X17995526Y8617981D01*
X17990249Y8615292D01*
X17899108Y8524151D01*
X17896420Y8518875D01*
X17896419Y8518874D01*
X17884487Y8495456D01*
X17840591Y8409306D01*
X17839665Y8403459D01*
X17822678Y8296203D01*
X17820428Y8282000D01*
X17821354Y8276153D01*
X17823715Y8261245D01*
X17840591Y8154694D01*
X17899108Y8039849D01*
X17990249Y7948708D01*
X17995525Y7946020D01*
X17995526Y7946019D01*
X18097226Y7894200D01*
X18105094Y7890191D01*
X18110939Y7889265D01*
X18110940Y7889265D01*
X18120734Y7887714D01*
X18162145Y7866614D01*
X18707860Y7320899D01*
X18712293Y7316062D01*
X18739462Y7283683D01*
X18745156Y7280395D01*
X18745159Y7280393D01*
X18776071Y7262545D01*
X18781600Y7259022D01*
X18810843Y7238547D01*
X18810846Y7238546D01*
X18816234Y7234773D01*
X18822585Y7233071D01*
X18825665Y7231635D01*
X18835440Y7227587D01*
X18838640Y7226422D01*
X18844339Y7223132D01*
X18866689Y7219191D01*
X18885963Y7215792D01*
X18892365Y7214373D01*
X18922654Y7206258D01*
X18933209Y7203430D01*
X18939761Y7204003D01*
X18939763Y7204003D01*
X18975316Y7207114D01*
X18981870Y7207400D01*
X19245000Y7207400D01*
X19293338Y7189807D01*
X19314909Y7152444D01*
X19315665Y7152719D01*
X19317225Y7148433D01*
X19319058Y7145258D01*
X19319272Y7142808D01*
X19323897Y7130102D01*
X19329269Y7127000D01*
X21111741Y7127000D01*
X21121898Y7130697D01*
X21128810Y7142669D01*
X21142593Y7180538D01*
X21187142Y7206258D01*
X21200200Y7207400D01*
X21539700Y7207400D01*
X21588038Y7189807D01*
X21613758Y7145258D01*
X21614900Y7132200D01*
X21614901Y6974600D01*
X21614901Y6842400D01*
X21597308Y6794063D01*
X21552760Y6768343D01*
X21539701Y6767200D01*
X21193043Y6767200D01*
X21144705Y6784793D01*
X21118985Y6829342D01*
X21119288Y6857070D01*
X21124279Y6882161D01*
X21125000Y6889484D01*
X21125000Y6961341D01*
X21121303Y6971498D01*
X21115931Y6974600D01*
X19333459Y6974600D01*
X19323302Y6970903D01*
X19320200Y6965531D01*
X19320200Y6889484D01*
X19320921Y6882163D01*
X19327597Y6848599D01*
X19335201Y6830243D01*
X19337446Y6778852D01*
X19335201Y6772685D01*
X19332687Y6766617D01*
X19328572Y6760458D01*
X19327127Y6753194D01*
X19323951Y6737225D01*
X19319700Y6715857D01*
X19319701Y6385744D01*
X19320423Y6382116D01*
X19325404Y6357069D01*
X19317578Y6306228D01*
X19278902Y6272312D01*
X19251649Y6267200D01*
X18399984Y6267200D01*
X18351646Y6284793D01*
X18346810Y6289226D01*
X17742582Y6893454D01*
X17720842Y6940074D01*
X17721482Y6958391D01*
X17729046Y7006153D01*
X17729972Y7012000D01*
X17709809Y7139306D01*
X17670837Y7215792D01*
X17653981Y7248874D01*
X17653980Y7248875D01*
X17651292Y7254151D01*
X17560151Y7345292D01*
X17554040Y7348406D01*
X17489040Y7381525D01*
X17445306Y7403809D01*
X17318000Y7423972D01*
X17190694Y7403809D01*
X17146960Y7381525D01*
X17081961Y7348406D01*
X17075849Y7345292D01*
X16984708Y7254151D01*
X16982020Y7248875D01*
X16982019Y7248874D01*
X16965163Y7215792D01*
X16926191Y7139306D01*
X16906028Y7012000D01*
X16926191Y6884694D01*
X16944678Y6848411D01*
X16980460Y6778187D01*
X16984708Y6769849D01*
X17075849Y6678708D01*
X17081125Y6676020D01*
X17081126Y6676019D01*
X17128914Y6651670D01*
X17190694Y6620191D01*
X17214573Y6616409D01*
X17302765Y6602441D01*
X17318000Y6600028D01*
X17323847Y6600954D01*
X17371609Y6608518D01*
X17422104Y6598702D01*
X17436546Y6587418D01*
X18120762Y5903203D01*
X18123472Y5900348D01*
X18130290Y5892776D01*
X18149560Y5845082D01*
X18133665Y5796160D01*
X18087653Y5769057D01*
X18082792Y5769312D01*
X18075412Y5766479D01*
X18061273Y5761052D01*
X18049960Y5757701D01*
X18035148Y5754552D01*
X18035146Y5754551D01*
X18027416Y5752908D01*
X18021023Y5748263D01*
X18020580Y5748066D01*
X18004696Y5739442D01*
X18004285Y5739175D01*
X17996907Y5736343D01*
X17980612Y5720048D01*
X17971648Y5712390D01*
X17952990Y5698835D01*
X17949037Y5691989D01*
X17948717Y5691633D01*
X17937233Y5676669D01*
X17311262Y5050698D01*
X17264642Y5028958D01*
X17246325Y5029598D01*
X17198563Y5037162D01*
X17192716Y5038088D01*
X17065410Y5017925D01*
X17003630Y4986446D01*
X16958143Y4963269D01*
X16950565Y4959408D01*
X16859424Y4868267D01*
X16856736Y4862991D01*
X16856735Y4862990D01*
X16835711Y4821729D01*
X16800907Y4753422D01*
X16797232Y4730220D01*
X16789169Y4679307D01*
X16780744Y4626116D01*
X16800907Y4498810D01*
X16827706Y4446214D01*
X16851353Y4399806D01*
X16859424Y4383965D01*
X16950565Y4292824D01*
X16955841Y4290136D01*
X16955842Y4290135D01*
X16983976Y4275800D01*
X17065410Y4234307D01*
X17071257Y4233381D01*
X17169412Y4217835D01*
X17192716Y4214144D01*
X17216021Y4217835D01*
X17314175Y4233381D01*
X17320022Y4234307D01*
X17401456Y4275800D01*
X17429590Y4290135D01*
X17429591Y4290136D01*
X17434867Y4292824D01*
X17526008Y4383965D01*
X17534080Y4399806D01*
X17557726Y4446214D01*
X17584525Y4498810D01*
X17604688Y4626116D01*
X17603136Y4635918D01*
X17596198Y4679725D01*
X17606014Y4730220D01*
X17617298Y4744662D01*
X18185010Y5312374D01*
X18231630Y5334114D01*
X18238184Y5334400D01*
X19251648Y5334400D01*
X19299986Y5316807D01*
X19325706Y5272258D01*
X19325403Y5244530D01*
X19320421Y5219484D01*
X19319700Y5215857D01*
X19319701Y4885744D01*
X19328572Y4841142D01*
X19332689Y4834980D01*
X19334927Y4829578D01*
X19337170Y4778187D01*
X19334926Y4772021D01*
X19332688Y4766617D01*
X19328572Y4760458D01*
X19327127Y4753194D01*
X19322699Y4730931D01*
X19319700Y4715857D01*
X19319701Y4385744D01*
X19328572Y4341142D01*
X19332689Y4334980D01*
X19334927Y4329578D01*
X19337170Y4278187D01*
X19334926Y4272021D01*
X19332688Y4266617D01*
X19328572Y4260458D01*
X19327127Y4253194D01*
X19323905Y4236994D01*
X19319700Y4215857D01*
X19319701Y4087246D01*
X19319701Y4055635D01*
X19302108Y4007298D01*
X19257560Y3981578D01*
X19232738Y3981361D01*
X19178199Y3989999D01*
X19152647Y3994046D01*
X19146800Y3994972D01*
X19140953Y3994046D01*
X19083147Y3984891D01*
X19019494Y3974809D01*
X19010176Y3970061D01*
X18914011Y3921062D01*
X18904649Y3916292D01*
X18813508Y3825151D01*
X18810820Y3819875D01*
X18810819Y3819874D01*
X18795091Y3789006D01*
X18754991Y3710306D01*
X18754065Y3704458D01*
X18751901Y3690795D01*
X18726964Y3645804D01*
X18678942Y3627368D01*
X18630304Y3644114D01*
X18624460Y3649375D01*
X18314619Y3959216D01*
X18311927Y3962053D01*
X18291528Y3984709D01*
X18286239Y3990583D01*
X18265178Y3999960D01*
X18254808Y4005591D01*
X18242112Y4013836D01*
X18242111Y4013836D01*
X18235484Y4018140D01*
X18227679Y4019376D01*
X18227221Y4019552D01*
X18209902Y4024682D01*
X18209418Y4024785D01*
X18202197Y4028000D01*
X18179152Y4028000D01*
X18167388Y4028926D01*
X18152427Y4031296D01*
X18152425Y4031296D01*
X18144621Y4032532D01*
X18136986Y4030486D01*
X18136506Y4030461D01*
X18117806Y4028000D01*
X16829184Y4028000D01*
X16780846Y4045593D01*
X16776010Y4050026D01*
X16155638Y4670397D01*
X16152927Y4673253D01*
X16132528Y4695909D01*
X16127239Y4701783D01*
X16106178Y4711160D01*
X16095808Y4716791D01*
X16083112Y4725036D01*
X16083111Y4725036D01*
X16076484Y4729340D01*
X16068679Y4730576D01*
X16068221Y4730752D01*
X16050902Y4735882D01*
X16050418Y4735985D01*
X16043197Y4739200D01*
X16020152Y4739200D01*
X16008388Y4740126D01*
X15993427Y4742496D01*
X15993425Y4742496D01*
X15985621Y4743732D01*
X15977986Y4741686D01*
X15977506Y4741661D01*
X15958806Y4739200D01*
X13718839Y4739200D01*
X13714903Y4739303D01*
X13714167Y4739342D01*
X13676591Y4741311D01*
X13669214Y4738479D01*
X13669212Y4738479D01*
X13655071Y4733051D01*
X13643757Y4729700D01*
X13621216Y4724908D01*
X13614823Y4720263D01*
X13614369Y4720061D01*
X13598496Y4711442D01*
X13598085Y4711175D01*
X13590707Y4708343D01*
X13574412Y4692048D01*
X13565448Y4684390D01*
X13546790Y4670835D01*
X13546622Y4670544D01*
X13505263Y4648555D01*
X13454948Y4659251D01*
X13423280Y4699787D01*
X13419600Y4723023D01*
X13419600Y7539549D01*
X13419703Y7543486D01*
X13421298Y7573916D01*
X13421712Y7581809D01*
X13413446Y7603343D01*
X13410102Y7614631D01*
X13405308Y7637184D01*
X13400662Y7643580D01*
X13400462Y7644028D01*
X13391844Y7659901D01*
X13391576Y7660314D01*
X13388743Y7667693D01*
X13372448Y7683988D01*
X13364790Y7692952D01*
X13351235Y7711610D01*
X13344389Y7715563D01*
X13344033Y7715883D01*
X13329069Y7727367D01*
X12858038Y8198397D01*
X12855327Y8201253D01*
X12848458Y8208882D01*
X12829189Y8256577D01*
X12845085Y8305499D01*
X12888709Y8332757D01*
X12904343Y8334400D01*
X16691949Y8334400D01*
X16695886Y8334297D01*
X16734209Y8332288D01*
X16755743Y8340554D01*
X16767031Y8343898D01*
X16789584Y8348692D01*
X16795980Y8353338D01*
X16796428Y8353538D01*
X16812301Y8362156D01*
X16812714Y8362424D01*
X16820093Y8365257D01*
X16836388Y8381552D01*
X16845352Y8389210D01*
X16864010Y8402765D01*
X16867963Y8409611D01*
X16868283Y8409967D01*
X16879767Y8424931D01*
X17226858Y8772022D01*
X17576353Y9121518D01*
X17622973Y9143258D01*
X17672660Y9129944D01*
G37*
%TD.AperFunction*%
%TA.AperFunction,Conductor*%
G36*
X10899986Y4816807D02*
G01*
X10925706Y4772258D01*
X10925403Y4744530D01*
X10920536Y4720061D01*
X10919700Y4715857D01*
X10919701Y4385744D01*
X10928572Y4341142D01*
X10932687Y4334984D01*
X10935202Y4328913D01*
X10937445Y4277523D01*
X10935201Y4271357D01*
X10927597Y4253001D01*
X10920921Y4219437D01*
X10920200Y4212116D01*
X10920200Y4140259D01*
X10923897Y4130102D01*
X10929269Y4127000D01*
X11823600Y4127000D01*
X11871938Y4109407D01*
X11897658Y4064858D01*
X11898800Y4051800D01*
X11898800Y4049800D01*
X11881207Y4001462D01*
X11836658Y3975742D01*
X11823600Y3974600D01*
X10933459Y3974600D01*
X10923302Y3970903D01*
X10916390Y3958931D01*
X10902607Y3921062D01*
X10858058Y3895342D01*
X10845000Y3894200D01*
X10471470Y3894200D01*
X10464916Y3894486D01*
X10429363Y3897597D01*
X10429361Y3897597D01*
X10422809Y3898170D01*
X10416453Y3896467D01*
X10381965Y3887227D01*
X10375564Y3885808D01*
X10371643Y3885116D01*
X10351771Y3881612D01*
X10301115Y3890542D01*
X10268048Y3929946D01*
X10263512Y3955669D01*
X10263511Y4173759D01*
X10263511Y4177456D01*
X10254640Y4222058D01*
X10220846Y4272634D01*
X10176430Y4302312D01*
X10176428Y4302314D01*
X10170270Y4306428D01*
X10162719Y4307930D01*
X10129294Y4314579D01*
X10129293Y4314579D01*
X10125669Y4315300D01*
X9810655Y4315300D01*
X9495556Y4315299D01*
X9450954Y4306428D01*
X9444796Y4302313D01*
X9444794Y4302312D01*
X9402391Y4273979D01*
X9352425Y4261752D01*
X9318833Y4273979D01*
X9276429Y4302313D01*
X9276428Y4302314D01*
X9270270Y4306428D01*
X9262719Y4307930D01*
X9229294Y4314579D01*
X9229293Y4314579D01*
X9225669Y4315300D01*
X9202200Y4315300D01*
X9153862Y4332893D01*
X9128142Y4377442D01*
X9127000Y4390500D01*
X9127000Y4426501D01*
X9144593Y4474839D01*
X9189142Y4500559D01*
X9202200Y4501701D01*
X9225656Y4501701D01*
X9270258Y4510572D01*
X9318821Y4543021D01*
X9368787Y4555248D01*
X9402379Y4543021D01*
X9444783Y4514687D01*
X9444784Y4514686D01*
X9450942Y4510572D01*
X9458206Y4509127D01*
X9480678Y4504657D01*
X9495543Y4501700D01*
X9810557Y4501700D01*
X10125656Y4501701D01*
X10170258Y4510572D01*
X10220834Y4544366D01*
X10254628Y4594942D01*
X10263500Y4639543D01*
X10263500Y4663000D01*
X10281093Y4711338D01*
X10325642Y4737058D01*
X10338700Y4738200D01*
X10452349Y4738200D01*
X10456286Y4738097D01*
X10494609Y4736088D01*
X10516143Y4744354D01*
X10527431Y4747698D01*
X10549984Y4752492D01*
X10556380Y4757138D01*
X10556828Y4757338D01*
X10572701Y4765956D01*
X10573114Y4766224D01*
X10580493Y4769057D01*
X10596788Y4785352D01*
X10605752Y4793010D01*
X10624410Y4806565D01*
X10626672Y4810483D01*
X10670276Y4833668D01*
X10680742Y4834400D01*
X10851648Y4834400D01*
X10899986Y4816807D01*
G37*
%TD.AperFunction*%
%TA.AperFunction,Conductor*%
G36*
X25278626Y9381285D02*
G01*
X25281595Y9379659D01*
X25285880Y9376448D01*
X25290892Y9374569D01*
X25290894Y9374568D01*
X25407634Y9330804D01*
X25407638Y9330803D01*
X25412050Y9329149D01*
X25416738Y9328640D01*
X25416741Y9328639D01*
X25467546Y9323120D01*
X25467552Y9323120D01*
X25469574Y9322900D01*
X27463626Y9322900D01*
X27465648Y9323120D01*
X27465654Y9323120D01*
X27516459Y9328639D01*
X27516462Y9328640D01*
X27521150Y9329149D01*
X27525562Y9330803D01*
X27525566Y9330804D01*
X27630403Y9370106D01*
X27681840Y9370600D01*
X27721561Y9337915D01*
X27732000Y9299691D01*
X27732000Y8359186D01*
X27714407Y8310848D01*
X27669858Y8285128D01*
X27621334Y8293422D01*
X27620158Y8294315D01*
X27615391Y8296202D01*
X27615390Y8296203D01*
X27540635Y8325800D01*
X27484150Y8348164D01*
X27397084Y8358700D01*
X25536116Y8358700D01*
X25449050Y8348164D01*
X25392565Y8325800D01*
X25317810Y8296203D01*
X25317809Y8296202D01*
X25313042Y8294315D01*
X25308958Y8291215D01*
X25203053Y8210828D01*
X25196526Y8205874D01*
X25108085Y8089358D01*
X25054236Y7953350D01*
X25043700Y7866284D01*
X25043700Y7353284D01*
X25026107Y7304946D01*
X25021674Y7300110D01*
X24228191Y6506626D01*
X24181571Y6484886D01*
X24175017Y6484600D01*
X23865899Y6484600D01*
X23817561Y6502193D01*
X23791841Y6546742D01*
X23790699Y6559800D01*
X23790699Y6583256D01*
X23781828Y6627858D01*
X23749379Y6676421D01*
X23737152Y6726387D01*
X23749379Y6759979D01*
X23777713Y6802383D01*
X23777714Y6802384D01*
X23781828Y6808542D01*
X23785966Y6829342D01*
X23789979Y6849518D01*
X23789979Y6849519D01*
X23790700Y6853143D01*
X23790699Y7483256D01*
X23781828Y7527858D01*
X23752621Y7571569D01*
X23740873Y7601585D01*
X23730535Y7666860D01*
X23730535Y7666861D01*
X23729609Y7672706D01*
X23724177Y7683368D01*
X23673781Y7782274D01*
X23673780Y7782275D01*
X23671092Y7787551D01*
X23579951Y7878692D01*
X23573228Y7882118D01*
X23470379Y7934522D01*
X23470380Y7934522D01*
X23465106Y7937209D01*
X23366048Y7952898D01*
X23343647Y7956446D01*
X23337800Y7957372D01*
X23331953Y7956446D01*
X23309552Y7952898D01*
X23210494Y7937209D01*
X23205220Y7934522D01*
X23205221Y7934522D01*
X23102373Y7882118D01*
X23095649Y7878692D01*
X23004508Y7787551D01*
X23001820Y7782275D01*
X23001819Y7782274D01*
X22951424Y7683368D01*
X22945991Y7672706D01*
X22945065Y7666861D01*
X22945065Y7666860D01*
X22934727Y7601585D01*
X22922979Y7571569D01*
X22900092Y7537316D01*
X22893772Y7527858D01*
X22884900Y7483257D01*
X22884901Y6853144D01*
X22893772Y6808542D01*
X22897888Y6802382D01*
X22926221Y6759979D01*
X22938448Y6710013D01*
X22926221Y6676421D01*
X22898976Y6635646D01*
X22893772Y6627858D01*
X22884900Y6583257D01*
X22884901Y5953144D01*
X22893772Y5908542D01*
X22897888Y5902382D01*
X22926221Y5859979D01*
X22938448Y5810013D01*
X22926221Y5776421D01*
X22899442Y5736343D01*
X22893772Y5727858D01*
X22884900Y5683257D01*
X22884901Y5452483D01*
X22884901Y5252484D01*
X22867308Y5204147D01*
X22862875Y5199310D01*
X22648574Y4985009D01*
X22601954Y4963269D01*
X22552267Y4976583D01*
X22522762Y5018720D01*
X22520200Y5038183D01*
X22520200Y5171516D01*
X22519479Y5178837D01*
X22512803Y5212398D01*
X22507242Y5225823D01*
X22479079Y5267971D01*
X22466852Y5317936D01*
X22479079Y5351530D01*
X22507713Y5394383D01*
X22507714Y5394384D01*
X22511828Y5400542D01*
X22520700Y5445143D01*
X22520699Y6075256D01*
X22511828Y6119858D01*
X22478034Y6170434D01*
X22437897Y6197253D01*
X22433617Y6200113D01*
X22433616Y6200114D01*
X22427458Y6204228D01*
X22382857Y6213100D01*
X22359400Y6213100D01*
X22311062Y6230693D01*
X22285342Y6275242D01*
X22284200Y6288300D01*
X22284200Y6338701D01*
X22301793Y6387039D01*
X22346342Y6412759D01*
X22359400Y6413901D01*
X22382856Y6413901D01*
X22427458Y6422772D01*
X22478034Y6456566D01*
X22498178Y6486713D01*
X22507713Y6500983D01*
X22507714Y6500984D01*
X22511828Y6507142D01*
X22520700Y6551743D01*
X22520699Y7181856D01*
X22511828Y7226458D01*
X22479379Y7275021D01*
X22467152Y7324987D01*
X22479379Y7358579D01*
X22507713Y7400983D01*
X22507714Y7400984D01*
X22511828Y7407142D01*
X22520700Y7451743D01*
X22520699Y8081856D01*
X22511828Y8126458D01*
X22478034Y8177034D01*
X22471877Y8181148D01*
X22466639Y8186386D01*
X22468182Y8187929D01*
X22443966Y8220954D01*
X22447328Y8272284D01*
X22482898Y8309444D01*
X22516161Y8317200D01*
X22574979Y8317200D01*
X22623317Y8299607D01*
X22628107Y8295221D01*
X22629661Y8293670D01*
X22657531Y8265847D01*
X22657533Y8265846D01*
X22662444Y8260943D01*
X22668792Y8258136D01*
X22668793Y8258136D01*
X22676068Y8254920D01*
X22764796Y8215694D01*
X22770407Y8215040D01*
X22770410Y8215039D01*
X22788313Y8212952D01*
X22788314Y8212952D01*
X22790475Y8212700D01*
X23005573Y8212700D01*
X23224724Y8212701D01*
X23250923Y8215817D01*
X23353195Y8261245D01*
X23387019Y8295128D01*
X23433621Y8316908D01*
X23440240Y8317200D01*
X23977530Y8317200D01*
X23984084Y8316914D01*
X23984809Y8316851D01*
X24019637Y8313803D01*
X24019639Y8313803D01*
X24026191Y8313230D01*
X24032547Y8314933D01*
X24067035Y8324173D01*
X24073437Y8325592D01*
X24087802Y8328125D01*
X24115061Y8332932D01*
X24120760Y8336222D01*
X24123960Y8337387D01*
X24133735Y8341435D01*
X24136815Y8342871D01*
X24143166Y8344573D01*
X24148554Y8348346D01*
X24148557Y8348347D01*
X24177800Y8368822D01*
X24183329Y8372345D01*
X24214241Y8390193D01*
X24214244Y8390195D01*
X24219938Y8393483D01*
X24224164Y8398519D01*
X24224166Y8398521D01*
X24247109Y8425864D01*
X24251541Y8430700D01*
X25189339Y9368498D01*
X25235959Y9390238D01*
X25278626Y9381285D01*
G37*
%TD.AperFunction*%
%TA.AperFunction,Conductor*%
G36*
X25290184Y6864635D02*
G01*
X25308540Y6850702D01*
X25313042Y6847285D01*
X25317809Y6845398D01*
X25317810Y6845397D01*
X25357765Y6829578D01*
X25449050Y6793436D01*
X25536116Y6782900D01*
X27397084Y6782900D01*
X27484150Y6793436D01*
X27575435Y6829578D01*
X27615390Y6845397D01*
X27615391Y6845398D01*
X27620158Y6847285D01*
X27621321Y6848168D01*
X27670634Y6856331D01*
X27714910Y6830145D01*
X27732000Y6782414D01*
X27732000Y5819186D01*
X27714407Y5770848D01*
X27669858Y5745128D01*
X27621334Y5753422D01*
X27620158Y5754315D01*
X27615391Y5756202D01*
X27615390Y5756203D01*
X27514971Y5795961D01*
X27484150Y5808164D01*
X27397084Y5818700D01*
X25536116Y5818700D01*
X25533862Y5818427D01*
X25533858Y5818427D01*
X25528944Y5817832D01*
X25524812Y5817332D01*
X25474711Y5828990D01*
X25443826Y5870126D01*
X25446607Y5921490D01*
X25462604Y5945161D01*
X25499892Y5982449D01*
X25558409Y6097294D01*
X25576636Y6212379D01*
X25577646Y6218753D01*
X25578572Y6224600D01*
X25558409Y6351906D01*
X25499892Y6466751D01*
X25408751Y6557892D01*
X25293906Y6616409D01*
X25166600Y6636572D01*
X25160753Y6635646D01*
X25154836Y6635646D01*
X25154836Y6637179D01*
X25111346Y6645632D01*
X25078973Y6685608D01*
X25079870Y6737040D01*
X25096902Y6763266D01*
X25191545Y6857909D01*
X25238165Y6879649D01*
X25290184Y6864635D01*
G37*
%TD.AperFunction*%
%TA.AperFunction,Conductor*%
G36*
X21477007Y11086134D02*
G01*
X21526428Y11078307D01*
X21571419Y11053369D01*
X21577192Y11045811D01*
X21580021Y11041577D01*
X21592247Y10991611D01*
X21580022Y10958022D01*
X21547572Y10909458D01*
X21538700Y10864857D01*
X21538701Y10234744D01*
X21547572Y10190142D01*
X21551688Y10183982D01*
X21566439Y10161906D01*
X21581366Y10139566D01*
X21587523Y10135452D01*
X21625783Y10109887D01*
X21625784Y10109886D01*
X21631942Y10105772D01*
X21639205Y10104327D01*
X21646050Y10101492D01*
X21644715Y10098269D01*
X21676523Y10078977D01*
X21693067Y10030270D01*
X21671106Y9978768D01*
X21643143Y9950756D01*
X21640338Y9944410D01*
X21640336Y9944408D01*
X21612596Y9881659D01*
X21597894Y9848404D01*
X21594900Y9822725D01*
X21594901Y9438476D01*
X21598017Y9412277D01*
X21608824Y9387948D01*
X21637150Y9324178D01*
X21643445Y9310005D01*
X21648361Y9305098D01*
X21648362Y9305096D01*
X21717730Y9235848D01*
X21717732Y9235847D01*
X21722644Y9230943D01*
X21760145Y9214364D01*
X21797240Y9178729D01*
X21802752Y9127585D01*
X21774099Y9084864D01*
X21760265Y9076861D01*
X21728553Y9062775D01*
X21728552Y9062774D01*
X21722205Y9059955D01*
X21717298Y9055039D01*
X21717296Y9055038D01*
X21648048Y8985670D01*
X21643143Y8980756D01*
X21640338Y8974410D01*
X21640336Y8974408D01*
X21632881Y8957544D01*
X21597894Y8878404D01*
X21597240Y8872793D01*
X21597239Y8872790D01*
X21595152Y8854887D01*
X21594900Y8852725D01*
X21594901Y8468476D01*
X21598017Y8442277D01*
X21615568Y8402765D01*
X21640611Y8346386D01*
X21643445Y8340005D01*
X21681997Y8301520D01*
X21703776Y8254920D01*
X21690506Y8205222D01*
X21670649Y8185776D01*
X21657566Y8177034D01*
X21623772Y8126458D01*
X21614900Y8081857D01*
X21614900Y7969400D01*
X21597307Y7921062D01*
X21552758Y7895342D01*
X21539700Y7894200D01*
X21200700Y7894200D01*
X21152362Y7911793D01*
X21126642Y7956342D01*
X21125500Y7969400D01*
X21125499Y8212159D01*
X21125499Y8215856D01*
X21116628Y8260458D01*
X21112511Y8266620D01*
X21110273Y8272022D01*
X21108030Y8323413D01*
X21110274Y8329579D01*
X21112512Y8334983D01*
X21116628Y8341142D01*
X21125500Y8385743D01*
X21125499Y8715856D01*
X21116628Y8760458D01*
X21112511Y8766620D01*
X21110273Y8772022D01*
X21108030Y8823413D01*
X21110274Y8829579D01*
X21112512Y8834983D01*
X21116628Y8841142D01*
X21125500Y8885743D01*
X21125499Y9215856D01*
X21116628Y9260458D01*
X21082834Y9311034D01*
X21074217Y9316792D01*
X21038417Y9340713D01*
X21038416Y9340714D01*
X21032258Y9344828D01*
X20987657Y9353700D01*
X20514200Y9353700D01*
X20465862Y9371293D01*
X20440142Y9415842D01*
X20439000Y9428900D01*
X20439000Y10060816D01*
X20456593Y10109154D01*
X20461026Y10113990D01*
X21412070Y11065034D01*
X21458690Y11086774D01*
X21477007Y11086134D01*
G37*
%TD.AperFunction*%
%TA.AperFunction,Conductor*%
G36*
X20644306Y11106034D02*
G01*
X20668334Y11102229D01*
X20713325Y11077292D01*
X20731761Y11029269D01*
X20715015Y10980632D01*
X20709746Y10974781D01*
X20075004Y10340039D01*
X20072149Y10337329D01*
X20043617Y10311639D01*
X20040403Y10304420D01*
X20034240Y10290578D01*
X20028609Y10280208D01*
X20016060Y10260884D01*
X20014824Y10253079D01*
X20014648Y10252621D01*
X20009518Y10235302D01*
X20009415Y10234818D01*
X20006200Y10227597D01*
X20006200Y10204552D01*
X20005274Y10192788D01*
X20001668Y10170021D01*
X20003714Y10162386D01*
X20003739Y10161906D01*
X20006200Y10143206D01*
X20006200Y9428899D01*
X19988607Y9380561D01*
X19944058Y9354841D01*
X19931000Y9353699D01*
X19457544Y9353699D01*
X19412942Y9344828D01*
X19362366Y9311034D01*
X19358252Y9304877D01*
X19332983Y9267059D01*
X19328572Y9260458D01*
X19319700Y9215857D01*
X19319701Y8885744D01*
X19328572Y8841142D01*
X19332689Y8834980D01*
X19334927Y8829578D01*
X19337170Y8778187D01*
X19334926Y8772021D01*
X19332688Y8766617D01*
X19328572Y8760458D01*
X19319700Y8715857D01*
X19319701Y8561509D01*
X19319701Y8418883D01*
X19302108Y8370546D01*
X19257560Y8344826D01*
X19206901Y8353758D01*
X19191327Y8365709D01*
X18529982Y9027054D01*
X18508242Y9073674D01*
X18508882Y9091991D01*
X18516446Y9139753D01*
X18517372Y9145600D01*
X18497209Y9272906D01*
X18447431Y9370600D01*
X18441381Y9382474D01*
X18441380Y9382475D01*
X18438692Y9387751D01*
X18356916Y9469527D01*
X18335176Y9516147D01*
X18348490Y9565834D01*
X18390627Y9595339D01*
X18410089Y9597901D01*
X18437656Y9597901D01*
X18462350Y9602812D01*
X18474989Y9605326D01*
X18474990Y9605326D01*
X18482258Y9606772D01*
X18488420Y9610889D01*
X18493822Y9613127D01*
X18545213Y9615370D01*
X18551379Y9613126D01*
X18556783Y9610888D01*
X18562942Y9606772D01*
X18570206Y9605327D01*
X18603783Y9598648D01*
X18607543Y9597900D01*
X18772577Y9597900D01*
X18937656Y9597901D01*
X18982258Y9606772D01*
X19032834Y9640566D01*
X19040467Y9651990D01*
X19062513Y9684983D01*
X19062514Y9684984D01*
X19066628Y9691142D01*
X19073462Y9725499D01*
X19074779Y9732118D01*
X19074779Y9732119D01*
X19075500Y9735743D01*
X19075500Y10209200D01*
X19093093Y10257538D01*
X19137642Y10283258D01*
X19150700Y10284400D01*
X19681549Y10284400D01*
X19685486Y10284297D01*
X19723809Y10282288D01*
X19745343Y10290554D01*
X19756631Y10293898D01*
X19779184Y10298692D01*
X19785580Y10303338D01*
X19786028Y10303538D01*
X19801901Y10312156D01*
X19802314Y10312424D01*
X19809693Y10315257D01*
X19825988Y10331552D01*
X19834952Y10339210D01*
X19853610Y10352765D01*
X19857563Y10359611D01*
X19857883Y10359967D01*
X19869367Y10374931D01*
X20579370Y11084934D01*
X20625990Y11106674D01*
X20644306Y11106034D01*
G37*
%TD.AperFunction*%
%TA.AperFunction,Conductor*%
G36*
X26873895Y12345039D02*
G01*
X26884400Y12342224D01*
X26893963Y12344786D01*
X26903865Y12344786D01*
X26903865Y12344090D01*
X26912688Y12344814D01*
X27042390Y12332040D01*
X27056846Y12329164D01*
X27201682Y12285229D01*
X27215293Y12279591D01*
X27347523Y12208912D01*
X27348771Y12208245D01*
X27361027Y12200056D01*
X27478022Y12104040D01*
X27488440Y12093622D01*
X27584367Y11976735D01*
X27584455Y11976628D01*
X27592645Y11964372D01*
X27663991Y11830893D01*
X27669629Y11817282D01*
X27713533Y11672549D01*
X27713564Y11672447D01*
X27716440Y11657990D01*
X27725548Y11565516D01*
X27729214Y11528289D01*
X27728490Y11519465D01*
X27729186Y11519465D01*
X27729186Y11509563D01*
X27726624Y11500000D01*
X27729439Y11489495D01*
X27732000Y11470038D01*
X27732000Y10921909D01*
X27714407Y10873571D01*
X27669858Y10847851D01*
X27630403Y10851494D01*
X27525566Y10890796D01*
X27525562Y10890797D01*
X27521150Y10892451D01*
X27516462Y10892960D01*
X27516459Y10892961D01*
X27465654Y10898480D01*
X27465648Y10898480D01*
X27463626Y10898700D01*
X25469574Y10898700D01*
X25467552Y10898480D01*
X25467546Y10898480D01*
X25416741Y10892961D01*
X25416738Y10892960D01*
X25412050Y10892451D01*
X25407638Y10890797D01*
X25407634Y10890796D01*
X25361688Y10873571D01*
X25285880Y10845152D01*
X25178057Y10764343D01*
X25097248Y10656520D01*
X25070052Y10583976D01*
X25054409Y10542246D01*
X25049949Y10530350D01*
X25049440Y10525662D01*
X25049439Y10525659D01*
X25043920Y10474854D01*
X25043700Y10472826D01*
X25043700Y10225289D01*
X25026107Y10176951D01*
X25021674Y10172115D01*
X23875585Y9026026D01*
X23828965Y9004286D01*
X23822411Y9004000D01*
X23440221Y9004000D01*
X23391883Y9021593D01*
X23387092Y9025980D01*
X23357669Y9055353D01*
X23357667Y9055354D01*
X23352756Y9060257D01*
X23315255Y9076836D01*
X23278160Y9112471D01*
X23272648Y9163615D01*
X23301301Y9206336D01*
X23315135Y9214339D01*
X23346847Y9228425D01*
X23346848Y9228426D01*
X23353195Y9231245D01*
X23358102Y9236161D01*
X23358104Y9236162D01*
X23427352Y9305530D01*
X23427353Y9305532D01*
X23432257Y9310444D01*
X23435062Y9316790D01*
X23435064Y9316792D01*
X23466521Y9387948D01*
X23477506Y9412796D01*
X23480500Y9438475D01*
X23480499Y9822724D01*
X23477383Y9848923D01*
X23438257Y9937008D01*
X23434775Y9944847D01*
X23434774Y9944848D01*
X23431955Y9951195D01*
X23404419Y9978684D01*
X23382640Y10025283D01*
X23395910Y10074981D01*
X23430875Y10097811D01*
X23429350Y10101493D01*
X23436192Y10104327D01*
X23443458Y10105772D01*
X23494034Y10139566D01*
X23508961Y10161906D01*
X23523713Y10183983D01*
X23523714Y10183984D01*
X23527828Y10190142D01*
X23529274Y10197409D01*
X23535979Y10231118D01*
X23535979Y10231119D01*
X23536700Y10234743D01*
X23536699Y10864856D01*
X23527828Y10909458D01*
X23495379Y10958021D01*
X23483152Y11007987D01*
X23495379Y11041579D01*
X23523713Y11083983D01*
X23523714Y11083984D01*
X23527828Y11090142D01*
X23536700Y11134743D01*
X23536699Y11764856D01*
X23527828Y11809458D01*
X23494034Y11860034D01*
X23468716Y11876951D01*
X23449617Y11889713D01*
X23449616Y11889714D01*
X23443458Y11893828D01*
X23419323Y11898629D01*
X23402482Y11901979D01*
X23402481Y11901979D01*
X23398857Y11902700D01*
X23349860Y11902700D01*
X22968084Y11902699D01*
X22919747Y11920292D01*
X22914910Y11924725D01*
X22701638Y12137997D01*
X22698927Y12140853D01*
X22678528Y12163509D01*
X22673239Y12169383D01*
X22652178Y12178760D01*
X22641808Y12184391D01*
X22629112Y12192636D01*
X22629111Y12192636D01*
X22622484Y12196940D01*
X22614679Y12198176D01*
X22607299Y12201009D01*
X22607737Y12202150D01*
X22570006Y12223064D01*
X22551571Y12271088D01*
X22568319Y12319725D01*
X22612411Y12346218D01*
X22626760Y12347600D01*
X26854438Y12347600D01*
X26873895Y12345039D01*
G37*
%TD.AperFunction*%
%TD*%
M02*
