M48
; DRILL file {KiCad (6.0.2)} date Mon Apr 18 15:37:34 2022
; FORMAT={-:-/ absolute / metric / decimal}
; #@! TF.CreationDate,2022-04-18T15:37:34+08:00
; #@! TF.GenerationSoftware,Kicad,Pcbnew,(6.0.2)
; #@! TF.FileFunction,Plated,1,2,PTH
FMAT,2
METRIC
; #@! TA.AperFunction,Plated,PTH,ViaDrill
T1C0.305
; #@! TA.AperFunction,Plated,PTH,ComponentDrill
T2C0.600
%
G90
G05
T1
X5.329Y7.266
X5.329Y5.336
X10.003Y1.907
X10.028Y3.126
X10.536Y4.396
X10.714Y1.907
X13.127Y11.686
X14.27Y3.126
X14.651Y7.825
X14.651Y6.656
X14.651Y5.437
X14.727Y4.015
X15.272Y9.545
X15.972Y3.786
X16.226Y7.825
X16.226Y6.707
X16.226Y5.437
X16.277Y11.584
X17.193Y4.626
X17.318Y7.012
X17.775Y11.635
X17.877Y3.329
X18.105Y9.146
X18.232Y8.282
X19.147Y3.583
X19.452Y11.127
X19.477Y9.679
X19.655Y2.567
X20.698Y11.51
X20.772Y2.948
X20.874Y9.933
X20.976Y0.56
X21.178Y4.051
X21.531Y11.49
X22.525Y0.535
X23.338Y7.545
X23.617Y0.535
X23.77Y9.603
X24.024Y12.092
X24.455Y7.139
X24.659Y0.535
X25.04Y12.117
X25.04Y3.735
X25.167Y6.225
X25.649Y8.866
X25.7Y0.535
X25.954Y6.301
X25.979Y12.117
X26.36Y8.866
X26.64Y6.301
X26.64Y3.786
X26.843Y0.56
X27.021Y8.866
X27.402Y6.301
X27.402Y3.786
X27.402Y1.322
T2
G00X2.065Y10.621
M15
G01X1.465Y10.621
M16
G05
G00X2.065Y1.981
M15
G01X1.465Y1.981
M16
G05
G00X6.495Y10.621
M15
G01X5.395Y10.621
M16
G05
G00X6.495Y1.981
M15
G01X5.395Y1.981
M16
G05
T0
M30
